<?xml version="1.0" encoding="UTF-8" standalone="no"?>
<!DOCTYPE svg PUBLIC "-//W3C//DTD SVG 1.1//EN" "http://www.w3.org/Graphics/SVG/1.1/DTD/svg11.dtd">
<!-- Created with gpx2svg 0.2.0 -->
<svg xmlns="http://www.w3.org/2000/svg" version="1.1" width="659.1123527826203px" height="1107.5861918650567px" viewBox="0 0 659.1123527826203 1107.5861918650567" viewport-fill="black" >
<rect width="100%" height="100%" fill="#3B3434" />
<g>
<circle cx="250.4013392678451" cy="445.8058005262166" r="0.5" style="fill:none;stroke:white;stroke-width:3"/>
<circle cx="246.23353753254503" cy="461.62658435851336" r="0.5" style="fill:none;stroke:white;stroke-width:3"/>
<circle cx="241.7184189859692" cy="471.23051654174924" r="0.5" style="fill:none;stroke:white;stroke-width:3"/>
<circle cx="235.84074987208442" cy="482.7423603326082" r="0.5" style="fill:none;stroke:white;stroke-width:3"/>
<circle cx="230.52413099179793" cy="493.03226510882376" r="0.5" style="fill:none;stroke:white;stroke-width:3"/>
<circle cx="225.90214573406138" cy="503.3650335956365" r="0.5" style="fill:none;stroke:white;stroke-width:3"/>
<circle cx="221.34695217080062" cy="517.084875312075" r="0.5" style="fill:none;stroke:white;stroke-width:3"/>
<circle cx="218.08751748037412" cy="525.9813249003142" r="0.5" style="fill:none;stroke:white;stroke-width:3"/>
<circle cx="214.9215911622132" cy="535.6066311176866" r="0.5" style="fill:none;stroke:white;stroke-width:3"/>
<circle cx="208.41608012025426" cy="541.158863587305" r="0.5" style="fill:none;stroke:white;stroke-width:3"/>
<circle cx="203.67386981246017" cy="548.7690612740814" r="0.5" style="fill:none;stroke:white;stroke-width:3"/>
<circle cx="198.18359252653661" cy="559.6162623971701" r="0.5" style="fill:none;stroke:white;stroke-width:3"/>
<circle cx="195.52528308639285" cy="573.7218933049589" r="0.5" style="fill:none;stroke:white;stroke-width:3"/>
<circle cx="192.70667357950714" cy="585.2336165282875" r="0.5" style="fill:none;stroke:white;stroke-width:3"/>
<circle cx="192.14562334590937" cy="595.6949100606143" r="0.5" style="fill:none;stroke:white;stroke-width:3"/>
<circle cx="188.61902187757804" cy="606.6278073325753" r="0.5" style="fill:none;stroke:white;stroke-width:3"/>
<circle cx="183.27568631950126" cy="618.82547634691" r="0.5" style="fill:none;stroke:white;stroke-width:3"/>
<circle cx="176.73010026085686" cy="629.4796668928117" r="0.5" style="fill:none;stroke:white;stroke-width:3"/>
<circle cx="172.50886516997562" cy="640.2195937123149" r="0.5" style="fill:none;stroke:white;stroke-width:3"/>
<circle cx="168.70173858484594" cy="650.3378373462707" r="0.5" style="fill:none;stroke:white;stroke-width:3"/>
<circle cx="165.18849545541033" cy="661.0348674237728" r="0.5" style="fill:none;stroke:white;stroke-width:3"/>
<circle cx="162.0225691372494" cy="675.0760414760559" r="0.5" style="fill:none;stroke:white;stroke-width:3"/>
<circle cx="157.01319205155158" cy="687.2950620375574" r="0.5" style="fill:none;stroke:white;stroke-width:3"/>
<circle cx="152.6450152328236" cy="698.5494095843285" r="0.5" style="fill:none;stroke:white;stroke-width:3"/>
<circle cx="148.30355509188647" cy="710.57546951361" r="0.5" style="fill:none;stroke:white;stroke-width:3"/>
<circle cx="144.21590338995682" cy="721.1866865929215" r="0.5" style="fill:none;stroke:white;stroke-width:3"/>
<circle cx="140.6893019216266" cy="728.4108823467046" r="0.5" style="fill:none;stroke:white;stroke-width:3"/>
<circle cx="136.2810500862126" cy="739.7080561123788" r="0.5" style="fill:none;stroke:white;stroke-width:3"/>
<circle cx="132.3403401121308" cy="752.5915343698114" r="0.5" style="fill:none;stroke:white;stroke-width:3"/>
<circle cx="128.05231332677377" cy="763.7600600358098" r="0.5" style="fill:none;stroke:white;stroke-width:3"/>
<circle cx="123.18987796892378" cy="776.0218432076275" r="0.5" style="fill:none;stroke:white;stroke-width:3"/>
<circle cx="120.54492686767571" cy="785.0038040019572" r="0.5" style="fill:none;stroke:white;stroke-width:3"/>
<circle cx="116.20346672673749" cy="797.0297576911747" r="0.5" style="fill:none;stroke:white;stroke-width:3"/>
<circle cx="112.39634014160838" cy="809.2486259814351" r="0.5" style="fill:none;stroke:white;stroke-width:3"/>
<circle cx="106.59882106109399" cy="821.7675910022109" r="0.5" style="fill:none;stroke:white;stroke-width:3"/>
<circle cx="103.20580298171535" cy="833.7077533453703" r="0.5" style="fill:none;stroke:white;stroke-width:3"/>
<circle cx="99.50554310774696" cy="846.033758424595" r="0.5" style="fill:none;stroke:white;stroke-width:3"/>
<circle cx="94.69654110547762" cy="858.2096925515681" r="0.5" style="fill:none;stroke:white;stroke-width:3"/>
<circle cx="90.51538103128242" cy="869.2066059552133" r="0.5" style="fill:none;stroke:white;stroke-width:3"/>
<circle cx="86.10712919586895" cy="879.281739936769" r="0.5" style="fill:none;stroke:white;stroke-width:3"/>
<circle cx="81.56529397150224" cy="890.8788494054228" r="0.5" style="fill:none;stroke:white;stroke-width:3"/>
<circle cx="78.5863843978752" cy="897.8671194512397" r="0.5" style="fill:none;stroke:white;stroke-width:3"/>
<circle cx="77.02345874713664" cy="909.7857525665313" r="0.5" style="fill:none;stroke:white;stroke-width:3"/>
<circle cx="70.93205621092929" cy="923.3764064200222" r="0.5" style="fill:none;stroke:white;stroke-width:3"/>
<circle cx="66.06962085307931" cy="933.9659564360976" r="0.5" style="fill:none;stroke:white;stroke-width:3"/>
<circle cx="60.80643532837348" cy="946.5490708071738" r="0.5" style="fill:none;stroke:white;stroke-width:3"/>
<circle cx="55.089066281230586" cy="958.5748259849846" r="0.5" style="fill:none;stroke:white;stroke-width:3"/>
<circle cx="49.90603078989625" cy="969.3572641354053" r="0.5" style="fill:none;stroke:white;stroke-width:3"/>
<circle cx="46.0454708491854" cy="979.0464429572224" r="0.5" style="fill:none;stroke:white;stroke-width:3"/>
<circle cx="43.07991961445241" cy="987.5566208705305" r="0.5" style="fill:none;stroke:white;stroke-width:3"/>
<circle cx="44.041720014906055" cy="996.4955151434988" r="0.5" style="fill:none;stroke:white;stroke-width:3"/>
<circle cx="38.84532618467601" cy="1006.2489755943417" r="0.5" style="fill:none;stroke:white;stroke-width:3"/>
<circle cx="36.33395847237953" cy="1019.0677945442498" r="0.5" style="fill:none;stroke:white;stroke-width:3"/>
<circle cx="36.0" cy="1027.642246012017" r="0.5" style="fill:none;stroke:white;stroke-width:3"/>
<circle cx="38.99226791252331" cy="1036.4524870645255" r="0.5" style="fill:none;stroke:white;stroke-width:3"/>
<circle cx="51.73612321853743" cy="1040.4824730310588" r="0.5" style="fill:none;stroke:white;stroke-width:3"/>
<circle cx="62.87697785712862" cy="1040.139495569095" r="0.5" style="fill:none;stroke:white;stroke-width:3"/>
<circle cx="72.74879030067531" cy="1038.9605104409159" r="0.5" style="fill:none;stroke:white;stroke-width:3"/>
<circle cx="75.98150831331259" cy="1040.2895482130348" r="0.5" style="fill:none;stroke:white;stroke-width:3"/>
<circle cx="78.10548419764781" cy="1048.4566956941037" r="0.5" style="fill:none;stroke:white;stroke-width:3"/>
<circle cx="79.90885994849923" cy="1062.5401859667152" r="0.5" style="fill:none;stroke:white;stroke-width:3"/>
<circle cx="74.65903276268854" cy="1070.2357223231345" r="0.5" style="fill:none;stroke:white;stroke-width:3"/>
<circle cx="62.609811079223796" cy="1066.1200044706463" r="0.5" style="fill:none;stroke:white;stroke-width:3"/>
<circle cx="60.29881845035579" cy="1053.9228929534554" r="0.5" style="fill:none;stroke:white;stroke-width:3"/>
<circle cx="66.51044603662066" cy="1044.855434652418" r="0.5" style="fill:none;stroke:white;stroke-width:3"/>
<circle cx="75.0197079128584" cy="1043.0333675444126" r="0.5" style="fill:none;stroke:white;stroke-width:3"/>
<circle cx="82.59388606643279" cy="1042.368848875165" r="0.5" style="fill:none;stroke:white;stroke-width:3"/>
<circle cx="90.99628123150923" cy="1046.1415994636714" r="0.5" style="fill:none;stroke:white;stroke-width:3"/>
<circle cx="101.32227719749353" cy="1052.2723160661756" r="0.5" style="fill:none;stroke:white;stroke-width:3"/>
<circle cx="111.58148146900093" cy="1055.9593186050654" r="0.5" style="fill:none;stroke:white;stroke-width:3"/>
<circle cx="120.50485185099024" cy="1059.0032382667064" r="0.5" style="fill:none;stroke:white;stroke-width:3"/>
<circle cx="128.773663627114" cy="1061.4255116779357" r="0.5" style="fill:none;stroke:white;stroke-width:3"/>
<circle cx="136.86881699760124" cy="1065.5626675397157" r="0.5" style="fill:none;stroke:white;stroke-width:3"/>
<circle cx="149.91991409820457" cy="1063.7191682551056" r="0.5" style="fill:none;stroke:white;stroke-width:3"/>
<circle cx="150.17372253721368" cy="1053.965765080601" r="0.5" style="fill:none;stroke:white;stroke-width:3"/>
<circle cx="141.263710494119" cy="1048.1137185093014" r="0.5" style="fill:none;stroke:white;stroke-width:3"/>
<circle cx="137.4432255700947" cy="1045.0697954613715" r="0.5" style="fill:none;stroke:white;stroke-width:3"/>
<circle cx="137.36307553672268" cy="1044.8983068164437" r="0.5" style="fill:none;stroke:white;stroke-width:3"/>
<circle cx="135.8402249026718" cy="1049.571371459216" r="0.5" style="fill:none;stroke:white;stroke-width:3"/>
<circle cx="134.58454104652301" cy="1071.4361397016794" r="0.5" style="fill:none;stroke:white;stroke-width:3"/>
<circle cx="150.77484778749695" cy="1071.5861918650567" r="0.5" style="fill:none;stroke:white;stroke-width:3"/>
<circle cx="163.97288661594703" cy="1066.0985684372483" r="0.5" style="fill:none;stroke:white;stroke-width:3"/>
<circle cx="159.95202660849426" cy="1048.4995678402483" r="0.5" style="fill:none;stroke:white;stroke-width:3"/>
<circle cx="156.5590085291151" cy="1033.258507649973" r="0.5" style="fill:none;stroke:white;stroke-width:3"/>
<circle cx="154.9560078616927" cy="1023.9766689263283" r="0.5" style="fill:none;stroke:white;stroke-width:3"/>
<circle cx="155.47698307860446" cy="1013.1514186542481" r="0.5" style="fill:none;stroke:white;stroke-width:3"/>
<circle cx="156.9063253403903" cy="1002.2404117047786" r="0.5" style="fill:none;stroke:white;stroke-width:3"/>
<circle cx="159.23067630815402" cy="991.0935943990945" r="0.5" style="fill:none;stroke:white;stroke-width:3"/>
<circle cx="162.16951086509616" cy="979.9896368443965" r="0.5" style="fill:none;stroke:white;stroke-width:3"/>
<circle cx="164.9614036941921" cy="968.11396173276" r="0.5" style="fill:none;stroke:white;stroke-width:3"/>
<circle cx="168.3811384513605" cy="956.0882182817905" r="0.5" style="fill:none;stroke:white;stroke-width:3"/>
<circle cx="171.94781493637782" cy="944.0624600484966" r="0.5" style="fill:none;stroke:white;stroke-width:3"/>
<circle cx="175.36754969354678" cy="932.6369042314589" r="0.5" style="fill:none;stroke:white;stroke-width:3"/>
<circle cx="179.8693099012269" cy="922.1330981768667" r="0.5" style="fill:none;stroke:white;stroke-width:3"/>
<circle cx="183.8768115697845" cy="911.693589970842" r="0.5" style="fill:none;stroke:white;stroke-width:3"/>
<circle cx="187.25647131026906" cy="904.72676618658" r="0.5" style="fill:none;stroke:white;stroke-width:3"/>
<circle cx="191.3975563677788" cy="896.3665710881352" r="0.5" style="fill:none;stroke:white;stroke-width:3"/>
<circle cx="195.04438288616657" cy="887.2346575196832" r="0.5" style="fill:none;stroke:white;stroke-width:3"/>
<circle cx="199.51942641605584" cy="876.0019634149968" r="0.5" style="fill:none;stroke:white;stroke-width:3"/>
<circle cx="203.84752821809835" cy="866.8914673145861" r="0.5" style="fill:none;stroke:white;stroke-width:3"/>
<circle cx="208.2023466979306" cy="856.837757070735" r="0.5" style="fill:none;stroke:white;stroke-width:3"/>
<circle cx="211.79573986073774" cy="847.47000496611" r="0.5" style="fill:none;stroke:white;stroke-width:3"/>
<circle cx="215.56279142918302" cy="836.2372652191668" r="0.5" style="fill:none;stroke:white;stroke-width:3"/>
<circle cx="219.26305130315086" cy="825.347497582063" r="0.5" style="fill:none;stroke:white;stroke-width:3"/>
<circle cx="223.96518659425837" cy="814.3934080705046" r="0.5" style="fill:none;stroke:white;stroke-width:3"/>
<circle cx="229.08143039111746" cy="802.5604052301496" r="0.5" style="fill:none;stroke:white;stroke-width:3"/>
<circle cx="234.66521604930767" cy="791.8849664781243" r="0.5" style="fill:none;stroke:white;stroke-width:3"/>
<circle cx="239.35399300152056" cy="780.6735995896161" r="0.5" style="fill:none;stroke:white;stroke-width:3"/>
<circle cx="243.17447792554538" cy="771.5201413840056" r="0.5" style="fill:none;stroke:white;stroke-width:3"/>
<circle cx="245.96637075464076" cy="762.9454655047506" r="0.5" style="fill:none;stroke:white;stroke-width:3"/>
<circle cx="249.35938883401994" cy="753.4061297681183" r="0.5" style="fill:none;stroke:white;stroke-width:3"/>
<circle cx="252.99285701351198" cy="743.9525316864252" r="0.5" style="fill:none;stroke:white;stroke-width:3"/>
<circle cx="257.8820090491534" cy="734.3917406670749" r="0.5" style="fill:none;stroke:white;stroke-width:3"/>
<circle cx="260.96778533394223" cy="725.0238713543862" r="0.5" style="fill:none;stroke:white;stroke-width:3"/>
<circle cx="269.1831637544859" cy="714.1339799579233" r="0.5" style="fill:none;stroke:white;stroke-width:3"/>
<circle cx="274.7669494126772" cy="705.9879902847111" r="0.5" style="fill:none;stroke:white;stroke-width:3"/>
<circle cx="279.42900968709927" cy="697.0488306641579" r="0.5" style="fill:none;stroke:white;stroke-width:3"/>
<circle cx="282.4747109552027" cy="693.2330717839301" r="0.5" style="fill:none;stroke:white;stroke-width:3"/>
<circle cx="282.90217779984886" cy="691.1965706516057" r="0.5" style="fill:none;stroke:white;stroke-width:3"/>
<circle cx="282.541502649679" cy="690.4677175104617" r="0.5" style="fill:none;stroke:white;stroke-width:3"/>
<circle cx="282.32776922735536" cy="690.3605332240462" r="0.5" style="fill:none;stroke:white;stroke-width:3"/>
<circle cx="283.530019727923" cy="687.7881099164485" r="0.5" style="fill:none;stroke:white;stroke-width:3"/>
<circle cx="287.8848382077558" cy="677.2197303939611" r="0.5" style="fill:none;stroke:white;stroke-width:3"/>
<circle cx="291.65188977620056" cy="666.8657085578889" r="0.5" style="fill:none;stroke:white;stroke-width:3"/>
<circle cx="295.4322996835399" cy="659.1269811552017" r="0.5" style="fill:none;stroke:white;stroke-width:3"/>
<circle cx="300.00085158569635" cy="650.4878959625959" r="0.5" style="fill:none;stroke:white;stroke-width:3"/>
<circle cx="305.7716539884188" cy="642.8563404154032" r="0.5" style="fill:none;stroke:white;stroke-width:3"/>
<circle cx="310.30013087388977" cy="632.9095849212259" r="0.5" style="fill:none;stroke:white;stroke-width:3"/>
<circle cx="311.7027564578848" cy="624.8707126490772" r="0.5" style="fill:none;stroke:white;stroke-width:3"/>
<circle cx="316.1243666321939" cy="613.4233471311628" r="0.5" style="fill:none;stroke:white;stroke-width:3"/>
<circle cx="319.7845514894769" cy="603.1764430459589" r="0.5" style="fill:none;stroke:white;stroke-width:3"/>
<circle cx="323.1909279077512" cy="593.5726403519511" r="0.5" style="fill:none;stroke:white;stroke-width:3"/>
<circle cx="328.40068007687586" cy="583.4543380312622" r="0.5" style="fill:none;stroke:white;stroke-width:3"/>
<circle cx="333.98446573506664" cy="575.9513528611511" r="0.5" style="fill:none;stroke:white;stroke-width:3"/>
<circle cx="336.1084416194024" cy="567.3765056211502" r="0.5" style="fill:none;stroke:white;stroke-width:3"/>
<circle cx="340.4365434214449" cy="557.193864768371" r="0.5" style="fill:none;stroke:white;stroke-width:3"/>
<circle cx="344.4440450900025" cy="548.4046294089407" r="0.5" style="fill:none;stroke:white;stroke-width:3"/>
<circle cx="349.5335722090707" cy="536.378370181471" r="0.5" style="fill:none;stroke:white;stroke-width:3"/>
<circle cx="353.6345822498955" cy="525.8955760225654" r="0.5" style="fill:none;stroke:white;stroke-width:3"/>
<circle cx="357.8691756796714" cy="516.0558878514915" r="0.5" style="fill:none;stroke:white;stroke-width:3"/>
<circle cx="361.3156271146312" cy="506.19475252367556" r="0.5" style="fill:none;stroke:white;stroke-width:3"/>
<circle cx="365.6437289166737" cy="495.17599390558894" r="0.5" style="fill:none;stroke:white;stroke-width:3"/>
<circle cx="368.96995530157653" cy="485.3577121518552" r="0.5" style="fill:none;stroke:white;stroke-width:3"/>
<circle cx="372.964098631239" cy="475.4322339054197" r="0.5" style="fill:none;stroke:white;stroke-width:3"/>
<circle cx="376.66435850520793" cy="465.871180543676" r="0.5" style="fill:none;stroke:white;stroke-width:3"/>
<circle cx="380.7520102071365" cy="455.9028077915311" r="0.5" style="fill:none;stroke:white;stroke-width:3"/>
<circle cx="384.86637858685646" cy="445.59142657890914" r="0.5" style="fill:none;stroke:white;stroke-width:3"/>
<circle cx="389.98262238371495" cy="434.251038441807" r="0.5" style="fill:none;stroke:white;stroke-width:3"/>
<circle cx="395.6999914308573" cy="423.9181969743222" r="0.5" style="fill:none;stroke:white;stroke-width:3"/>
<circle cx="401.08340200562014" cy="412.7707209158689" r="0.5" style="fill:none;stroke:white;stroke-width:3"/>
<circle cx="406.5603209526491" cy="401.13016986250875" r="0.5" style="fill:none;stroke:white;stroke-width:3"/>
<circle cx="411.5162646827657" cy="389.66110510043796" r="0.5" style="fill:none;stroke:white;stroke-width:3"/>
<circle cx="415.4035413012669" cy="379.90703010074793" r="0.5" style="fill:none;stroke:white;stroke-width:3"/>
<circle cx="420.77359353713456" cy="369.89569465667006" r="0.5" style="fill:none;stroke:white;stroke-width:3"/>
<circle cx="428.0004548794337" cy="360.248787862435" r="0.5" style="fill:none;stroke:white;stroke-width:3"/>
<circle cx="436.28262499445316" cy="351.2449996076524" r="0.5" style="fill:none;stroke:white;stroke-width:3"/>
<circle cx="444.7918868706909" cy="343.2273335650563" r="0.5" style="fill:none;stroke:white;stroke-width:3"/>
<circle cx="454.46332423081077" cy="334.84522113874556" r="0.5" style="fill:none;stroke:white;stroke-width:3"/>
<circle cx="462.3447441789749" cy="327.7922360625118" r="0.5" style="fill:none;stroke:white;stroke-width:3"/>
<circle cx="467.8216631260033" cy="322.47569684833286" r="0.5" style="fill:none;stroke:white;stroke-width:3"/>
<circle cx="476.9587669303151" cy="319.9460521716624" r="0.5" style="fill:none;stroke:white;stroke-width:3"/>
<circle cx="481.52731883247156" cy="312.70011719092724" r="0.5" style="fill:none;stroke:white;stroke-width:3"/>
<circle cx="488.7942551914562" cy="299.7303089361638" r="0.5" style="fill:none;stroke:white;stroke-width:3"/>
<circle cx="494.6051326108652" cy="290.2119593773037" r="0.5" style="fill:none;stroke:white;stroke-width:3"/>
<circle cx="500.74996850265376" cy="280.9294158741832" r="0.5" style="fill:none;stroke:white;stroke-width:3"/>
<circle cx="504.20977827650876" cy="271.7969279900193" r="0.5" style="fill:none;stroke:white;stroke-width:3"/>
<circle cx="510.9423810796859" cy="261.4210393901914" r="0.5" style="fill:none;stroke:white;stroke-width:3"/>
<circle cx="517.5280421550164" cy="252.54578710757195" r="0.5" style="fill:none;stroke:white;stroke-width:3"/>
<circle cx="522.777869340827" cy="241.33380230627952" r="0.5" style="fill:none;stroke:white;stroke-width:3"/>
<circle cx="527.3597795818781" cy="230.59343770779668" r="0.5" style="fill:none;stroke:white;stroke-width:3"/>
<circle cx="532.4626650398415" cy="218.97410784065724" r="0.5" style="fill:none;stroke:white;stroke-width:3"/>
<circle cx="538.2067507647747" cy="209.82012422382832" r="0.5" style="fill:none;stroke:white;stroke-width:3"/>
<circle cx="543.309636222738" cy="198.73671807982026" r="0.5" style="fill:none;stroke:white;stroke-width:3"/>
<circle cx="548.0384881916365" cy="187.03159854523838" r="0.5" style="fill:none;stroke:white;stroke-width:3"/>
<circle cx="544.0309865230789" cy="179.27105370014905" r="0.5" style="fill:none;stroke:white;stroke-width:3"/>
<circle cx="534.8805243798713" cy="168.1876129567623" r="0.5" style="fill:none;stroke:white;stroke-width:3"/>
<circle cx="533.6248405237236" cy="155.2604892298579" r="0.5" style="fill:none;stroke:white;stroke-width:3"/>
<circle cx="535.0408244466138" cy="144.21989739909768" r="0.5" style="fill:none;stroke:white;stroke-width:3"/>
<circle cx="540.370801665796" cy="132.1931414488703" r="0.5" style="fill:none;stroke:white;stroke-width:3"/>
<circle cx="547.9316214804752" cy="120.68088526949286" r="0.5" style="fill:none;stroke:white;stroke-width:3"/>
<circle cx="555.8397581064291" cy="110.47634147331118" r="0.5" style="fill:none;stroke:white;stroke-width:3"/>
<circle cx="564.282228288191" cy="102.52279260680079" r="0.5" style="fill:none;stroke:white;stroke-width:3"/>
<circle cx="573.7666489037781" cy="96.30572833791375" r="0.5" style="fill:none;stroke:white;stroke-width:3"/>
<circle cx="583.2510695193647" cy="92.33966804109514" r="0.5" style="fill:none;stroke:white;stroke-width:3"/>
<circle cx="592.2011565791443" cy="89.50982943847775" r="0.5" style="fill:none;stroke:white;stroke-width:3"/>
<circle cx="601.471843772408" cy="89.89571656733752" r="0.5" style="fill:none;stroke:white;stroke-width:3"/>
<circle cx="611.7577647217063" cy="90.11009829975664" r="0.5" style="fill:none;stroke:white;stroke-width:3"/>
<circle cx="620.4406850035822" cy="86.76574273779988" r="0.5" style="fill:none;stroke:white;stroke-width:3"/>
<circle cx="621.7631605542061" cy="76.00377028360963" r="0.5" style="fill:none;stroke:white;stroke-width:3"/>
<circle cx="623.1123527826203" cy="71.95194890722632" r="0.5" style="fill:none;stroke:white;stroke-width:3"/>
<circle cx="621.736443876415" cy="60.804071897640824" r="0.5" style="fill:none;stroke:white;stroke-width:3"/>
<circle cx="609.9143139541699" cy="60.11804828569293" r="0.5" style="fill:none;stroke:white;stroke-width:3"/>
<circle cx="596.2620916032826" cy="58.57449497580528" r="0.5" style="fill:none;stroke:white;stroke-width:3"/>
<circle cx="584.186153242028" cy="57.095256158709525" r="0.5" style="fill:none;stroke:white;stroke-width:3"/>
<circle cx="571.7228230528133" cy="56.58073825724423" r="0.5" style="fill:none;stroke:white;stroke-width:3"/>
<circle cx="559.0858344579605" cy="56.516423519700766" r="0.5" style="fill:none;stroke:white;stroke-width:3"/>
<circle cx="547.3839295857715" cy="56.2806028034538" r="0.5" style="fill:none;stroke:white;stroke-width:3"/>
<circle cx="532.8500568678022" cy="54.90855489224195" r="0.5" style="fill:none;stroke:white;stroke-width:3"/>
<circle cx="523.8198197746522" cy="54.35116036869585" r="0.5" style="fill:none;stroke:white;stroke-width:3"/>
<circle cx="515.4307829484709" cy="53.021988696232434" r="0.5" style="fill:none;stroke:white;stroke-width:3"/>
<circle cx="504.1162699042421" cy="51.800008124113084" r="0.5" style="fill:none;stroke:white;stroke-width:3"/>
<circle cx="496.42186670061125" cy="51.30692820176482" r="0.5" style="fill:none;stroke:white;stroke-width:3"/>
<circle cx="492.30749832089236" cy="49.89200307168066" r="0.5" style="fill:none;stroke:white;stroke-width:3"/>
<circle cx="479.21632620360305" cy="46.997837390005586" r="0.5" style="fill:none;stroke:white;stroke-width:3"/>
<circle cx="465.99157069736265" cy="46.783454712107776" r="0.5" style="fill:none;stroke:white;stroke-width:3"/>
<circle cx="452.8603235633873" cy="45.86160915121436" r="0.5" style="fill:none;stroke:white;stroke-width:3"/>
<circle cx="442.80149437530724" cy="41.916966680064796" r="0.5" style="fill:none;stroke:white;stroke-width:3"/>
<circle cx="431.28660624765104" cy="45.261337576434016" r="0.5" style="fill:none;stroke:white;stroke-width:3"/>
<circle cx="417.95498403024885" cy="41.745460455492136" r="0.5" style="fill:none;stroke:white;stroke-width:3"/>
<circle cx="406.8141293916577" cy="49.634743931517" r="0.5" style="fill:none;stroke:white;stroke-width:3"/>
<circle cx="395.13894119725956" cy="53.279247742518784" r="0.5" style="fill:none;stroke:white;stroke-width:3"/>
<circle cx="383.557261375127" cy="53.92239532917738" r="0.5" style="fill:none;stroke:white;stroke-width:3"/>
<circle cx="374.17970747070177" cy="54.56554288119077" r="0.5" style="fill:none;stroke:white;stroke-width:3"/>
<circle cx="375.3552412934785" cy="55.93759084492922" r="0.5" style="fill:none;stroke:white;stroke-width:3"/>
<circle cx="374.7273993654049" cy="56.40923228189349" r="0.5" style="fill:none;stroke:white;stroke-width:3"/>
<circle cx="368.86308859041475" cy="58.33867431096732" r="0.5" style="fill:none;stroke:white;stroke-width:3"/>
<circle cx="358.93784279128687" cy="55.48738762848079" r="0.5" style="fill:none;stroke:white;stroke-width:3"/>
<circle cx="352.33882337706126" cy="52.678976618126036" r="0.5" style="fill:none;stroke:white;stroke-width:3"/>
<circle cx="344.2971033621552" cy="53.32212424948811" r="0.5" style="fill:none;stroke:white;stroke-width:3"/>
<circle cx="332.0742232730545" cy="51.22117517106235" r="0.5" style="fill:none;stroke:white;stroke-width:3"/>
<circle cx="320.3055267063892" cy="51.992952435091134" r="0.5" style="fill:none;stroke:white;stroke-width:3"/>
<circle cx="310.1799058238328" cy="53.47219202667475" r="0.5" style="fill:none;stroke:white;stroke-width:3"/>
<circle cx="295.64603310586295" cy="55.44451113156974" r="0.5" style="fill:none;stroke:white;stroke-width:3"/>
<circle cx="284.8658536174427" cy="56.687929486110804" r="0.5" style="fill:none;stroke:white;stroke-width:3"/>
<circle cx="275.3413579851707" cy="56.70936773233115" r="0.5" style="fill:none;stroke:white;stroke-width:3"/>
<circle cx="262.65093603473724" cy="56.94518843963742" r="0.5" style="fill:none;stroke:white;stroke-width:3"/>
<circle cx="261.4620438730648" cy="48.19838029593229" r="0.5" style="fill:none;stroke:white;stroke-width:3"/>
<circle cx="263.1318362349635" cy="48.09118896871805" r="0.5" style="fill:none;stroke:white;stroke-width:3"/>
<circle cx="264.13371165210316" cy="46.26893627308309" r="0.5" style="fill:none;stroke:white;stroke-width:3"/>
<circle cx="264.54782015785423" cy="44.89688695371151" r="0.5" style="fill:none;stroke:white;stroke-width:3"/>
<circle cx="271.4941563833545" cy="43.52483744099736" r="0.5" style="fill:none;stroke:white;stroke-width:3"/>
<circle cx="270.2384725272062" cy="43.58915226571262" r="0.5" style="fill:none;stroke:white;stroke-width:3"/>
<circle cx="264.7214785634918" cy="43.07463365346193" r="0.5" style="fill:none;stroke:white;stroke-width:3"/>
<circle cx="263.9600532464656" cy="42.302855690941215" r="0.5" style="fill:none;stroke:white;stroke-width:3"/>
<circle cx="263.81311151861826" cy="41.0808737821877" r="0.5" style="fill:none;stroke:white;stroke-width:3"/>
<circle cx="263.8799032130946" cy="39.83745343834162" r="0.5" style="fill:none;stroke:white;stroke-width:3"/>
<circle cx="248.6113218558894" cy="55.98046733848751" r="0.5" style="fill:none;stroke:white;stroke-width:3"/>
<circle cx="263.3990030128678" cy="36.0" r="0.5" style="fill:none;stroke:white;stroke-width:3"/>
<circle cx="262.07652746224375" cy="36.32157436721027" r="0.5" style="fill:none;stroke:white;stroke-width:3"/>
<circle cx="263.706244807457" cy="37.47924200221896" r="0.5" style="fill:none;stroke:white;stroke-width:3"/>
<circle cx="263.51922806292424" cy="37.82225461341441" r="0.5" style="fill:none;stroke:white;stroke-width:3"/>
<circle cx="263.5726614185054" cy="38.76553922072053" r="0.5" style="fill:none;stroke:white;stroke-width:3"/>
<circle cx="265.3626788304617" cy="40.20190424211323" r="0.5" style="fill:none;stroke:white;stroke-width:3"/>
<circle cx="263.79975317972367" cy="37.972322626411916" r="0.5" style="fill:none;stroke:white;stroke-width:3"/>
<circle cx="263.01161118490705" cy="37.82225461341441" r="0.5" style="fill:none;stroke:white;stroke-width:3"/>
<circle cx="265.2023787637186" cy="37.500680294260384" r="0.5" style="fill:none;stroke:white;stroke-width:3"/>
<circle cx="262.3169775623572" cy="37.88656947389245" r="0.5" style="fill:none;stroke:white;stroke-width:3"/>
<circle cx="259.76553483337517" cy="40.2662190914154" r="0.5" style="fill:none;stroke:white;stroke-width:3"/>
<circle cx="257.6415589490394" cy="38.80841579250991" r="0.5" style="fill:none;stroke:white;stroke-width:3"/>
<circle cx="258.015592438105" cy="39.53731746934354" r="0.5" style="fill:none;stroke:white;stroke-width:3"/>
<circle cx="258.5365676550173" cy="40.15902768261731" r="0.5" style="fill:none;stroke:white;stroke-width:3"/>
<circle cx="259.1777679219866" cy="40.20190424211323" r="0.5" style="fill:none;stroke:white;stroke-width:3"/>
<circle cx="251.89747322410676" cy="40.00895970202982" r="0.5" style="fill:none;stroke:white;stroke-width:3"/>
<circle cx="251.71045647957396" cy="39.04423692896962" r="0.5" style="fill:none;stroke:white;stroke-width:3"/>
<circle cx="249.84028903424678" cy="40.00895970202982" r="0.5" style="fill:none;stroke:white;stroke-width:3"/>
<circle cx="253.17987375804532" cy="40.287657375633714" r="0.5" style="fill:none;stroke:white;stroke-width:3"/>
<circle cx="255.10347455895317" cy="40.351972218230365" r="0.5" style="fill:none;stroke:white;stroke-width:3"/>
<circle cx="257.86865071025767" cy="38.65834778957069" r="0.5" style="fill:none;stroke:white;stroke-width:3"/>
<circle cx="257.00035868207016" cy="38.1652672111988" r="0.5" style="fill:none;stroke:white;stroke-width:3"/>
<circle cx="261.75592732875884" cy="36.921846490725876" r="0.5" style="fill:none;stroke:white;stroke-width:3"/>
<circle cx="263.18526959054526" cy="38.744100937619805" r="0.5" style="fill:none;stroke:white;stroke-width:3"/>
<circle cx="263.3856446739721" cy="39.001360360533" r="0.5" style="fill:none;stroke:white;stroke-width:3"/>
<circle cx="263.1585529127538" cy="39.365811195597054" r="0.5" style="fill:none;stroke:white;stroke-width:3"/>
<circle cx="262.9982528460119" cy="39.60163231864571" r="0.5" style="fill:none;stroke:white;stroke-width:3"/>
<circle cx="263.86654487419946" cy="37.6721866004169" r="0.5" style="fill:none;stroke:white;stroke-width:3"/>
<circle cx="263.01161118490705" cy="38.55115636400878" r="0.5" style="fill:none;stroke:white;stroke-width:3"/>
<circle cx="263.6394531129812" cy="37.500680294260384" r="0.5" style="fill:none;stroke:white;stroke-width:3"/>
<circle cx="263.51922806292424" cy="37.607871734350915" r="0.5" style="fill:none;stroke:white;stroke-width:3"/>
<circle cx="263.67952812966666" cy="37.500680294260384" r="0.5" style="fill:none;stroke:white;stroke-width:3"/>
<circle cx="263.4123613517635" cy="38.82985407561063" r="0.5" style="fill:none;stroke:white;stroke-width:3"/>
<circle cx="262.5440693235754" cy="38.358211787045" r="0.5" style="fill:none;stroke:white;stroke-width:3"/>
<circle cx="258.8438094496076" cy="37.972322626411916" r="0.5" style="fill:none;stroke:white;stroke-width:3"/>
<circle cx="258.6033593494931" cy="37.114791095629336" r="0.5" style="fill:none;stroke:white;stroke-width:3"/>
<circle cx="258.429700943856" cy="36.878969913348556" r="0.5" style="fill:none;stroke:white;stroke-width:3"/>
<circle cx="257.3476754933454" cy="39.40868776291609" r="0.5" style="fill:none;stroke:white;stroke-width:3"/>
<circle cx="257.5346922378781" cy="39.17286663986742" r="0.5" style="fill:none;stroke:white;stroke-width:3"/>
<circle cx="255.67788313144663" cy="38.59403293468058" r="0.5" style="fill:none;stroke:white;stroke-width:3"/>
<circle cx="252.8459152856647" cy="39.816015154123306" r="0.5" style="fill:none;stroke:white;stroke-width:3"/>
<circle cx="252.04441495195405" cy="39.40868776291609" r="0.5" style="fill:none;stroke:white;stroke-width:3"/>
<circle cx="250.30783089557897" cy="39.473002613335844" r="0.5" style="fill:none;stroke:white;stroke-width:3"/>
<circle cx="250.61507269016818" cy="39.40868776291609" r="0.5" style="fill:none;stroke:white;stroke-width:3"/>
<circle cx="249.5998389341339" cy="39.88033000230789" r="0.5" style="fill:none;stroke:white;stroke-width:3"/>
<circle cx="247.9968382667099" cy="40.480601909011604" r="0.5" style="fill:none;stroke:white;stroke-width:3"/>
<circle cx="248.37087175577543" cy="42.81737434342504" r="0.5" style="fill:none;stroke:white;stroke-width:3"/>
<circle cx="247.5560130831691" cy="45.02551658302546" r="0.5" style="fill:none;stroke:white;stroke-width:3"/>
<circle cx="247.76974650549164" cy="45.28277584612369" r="0.5" style="fill:none;stroke:white;stroke-width:3"/>
<circle cx="248.9185636504786" cy="44.939763497561216" r="0.5" style="fill:none;stroke:white;stroke-width:3"/>
<circle cx="249.55976391744787" cy="46.1403066560626" r="0.5" style="fill:none;stroke:white;stroke-width:3"/>
<circle cx="252.1646400020105" cy="44.87544868178666" r="0.5" style="fill:none;stroke:white;stroke-width:3"/>
<circle cx="251.24291461824285" cy="43.37476951852441" r="0.5" style="fill:none;stroke:white;stroke-width:3"/>
<circle cx="252.87263196345612" cy="42.17422602027654" r="0.5" style="fill:none;stroke:white;stroke-width:3"/>
<circle cx="251.04253953481438" cy="42.47436190769076" r="0.5" style="fill:none;stroke:white;stroke-width:3"/>
<circle cx="257.9220840658383" cy="42.25997913703322" r="0.5" style="fill:none;stroke:white;stroke-width:3"/>
<circle cx="256.3458000762057" cy="41.895528403669594" r="0.5" style="fill:none;stroke:white;stroke-width:3"/>
<circle cx="253.23330711362541" cy="42.688744680583476" r="0.5" style="fill:none;stroke:white;stroke-width:3"/>
<circle cx="255.95840824824552" cy="42.131349466368555" r="0.5" style="fill:none;stroke:white;stroke-width:3"/>
<circle cx="256.452666787367" cy="42.02415807768703" r="0.5" style="fill:none;stroke:white;stroke-width:3"/>
<circle cx="257.4679005434018" cy="42.96744227483868" r="0.5" style="fill:none;stroke:white;stroke-width:3"/>
<circle cx="256.8534169542234" cy="42.38860879987478" r="0.5" style="fill:none;stroke:white;stroke-width:3"/>
<circle cx="254.6492910365161" cy="41.659707334265114" r="0.5" style="fill:none;stroke:white;stroke-width:3"/>
<circle cx="256.1454249927783" cy="42.77449779063463" r="0.5" style="fill:none;stroke:white;stroke-width:3"/>
<circle cx="259.3781430054145" cy="40.2662190914154" r="0.5" style="fill:none;stroke:white;stroke-width:3"/>
<circle cx="259.2044845997774" cy="42.60299157500267" r="0.5" style="fill:none;stroke:white;stroke-width:3"/>
<circle cx="260.0327016112789" cy="42.10991118773818" r="0.5" style="fill:none;stroke:white;stroke-width:3"/>
<circle cx="261.59562726201636" cy="56.94518843963742" r="0.5" style="fill:none;stroke:white;stroke-width:3"/>
<circle cx="257.93544240473346" cy="56.60217650234699" r="0.5" style="fill:none;stroke:white;stroke-width:3"/>
<circle cx="242.39969426962452" cy="50.02063263505697" r="0.5" style="fill:none;stroke:white;stroke-width:3"/>
<circle cx="230.27032255278937" cy="51.45699600912631" r="0.5" style="fill:none;stroke:white;stroke-width:3"/>
<circle cx="213.35866551147518" cy="59.47490110695362" r="0.5" style="fill:none;stroke:white;stroke-width:3"/>
<circle cx="208.88362198158592" cy="60.9541395585984" r="0.5" style="fill:none;stroke:white;stroke-width:3"/>
<circle cx="210.7270727491228" cy="62.49769249297678" r="0.5" style="fill:none;stroke:white;stroke-width:3"/>
<circle cx="215.13532458453574" cy="74.996174646914" r="0.5" style="fill:none;stroke:white;stroke-width:3"/>
<circle cx="223.0434612104902" cy="80.39860110394656" r="0.5" style="fill:none;stroke:white;stroke-width:3"/>
<circle cx="236.49530847794995" cy="77.97608484774828" r="0.5" style="fill:none;stroke:white;stroke-width:3"/>
<circle cx="246.05987912690688" cy="73.9242642827332" r="0.5" style="fill:none;stroke:white;stroke-width:3"/>
<circle cx="248.62468019478456" cy="70.60134140588343" r="0.5" style="fill:none;stroke:white;stroke-width:3"/>
<circle cx="261.1815187562659" cy="65.28466245308518" r="0.5" style="fill:none;stroke:white;stroke-width:3"/>
<circle cx="270.8930311330707" cy="65.47760649919509" r="0.5" style="fill:none;stroke:white;stroke-width:3"/>
<circle cx="282.7285193942118" cy="67.75005829520524" r="0.5" style="fill:none;stroke:white;stroke-width:3"/>
<circle cx="285.8944457123727" cy="79.43388231173158" r="0.5" style="fill:none;stroke:white;stroke-width:3"/>
<circle cx="286.5089293015511" cy="90.41023271642625" r="0.5" style="fill:none;stroke:white;stroke-width:3"/>
<circle cx="289.38097216401746" cy="105.43838000111282" r="0.5" style="fill:none;stroke:white;stroke-width:3"/>
<circle cx="292.3999567543311" cy="119.69473234713077" r="0.5" style="fill:none;stroke:white;stroke-width:3"/>
<circle cx="293.6823572882702" cy="132.68621729537844" r="0.5" style="fill:none;stroke:white;stroke-width:3"/>
<circle cx="293.4953405437374" cy="142.2475961923599" r="0.5" style="fill:none;stroke:white;stroke-width:3"/>
<circle cx="294.85789111104697" cy="149.45078129433094" r="0.5" style="fill:none;stroke:white;stroke-width:3"/>
<circle cx="296.36738340620377" cy="157.18991176262497" r="0.5" style="fill:none;stroke:white;stroke-width:3"/>
<circle cx="298.1039674625783" cy="168.0804229427129" r="0.5" style="fill:none;stroke:white;stroke-width:3"/>
<circle cx="298.55815098501586" cy="182.22949417233465" r="0.5" style="fill:none;stroke:white;stroke-width:3"/>
<circle cx="299.35965131872655" cy="194.17043685056268" r="0.5" style="fill:none;stroke:white;stroke-width:3"/>
<circle cx="300.1077182968582" cy="204.43920713737606" r="0.5" style="fill:none;stroke:white;stroke-width:3"/>
<circle cx="299.8405515189539" cy="216.0371163703501" r="0.5" style="fill:none;stroke:white;stroke-width:3"/>
<circle cx="299.21270959087923" cy="228.81409472599626" r="0.5" style="fill:none;stroke:white;stroke-width:3"/>
<circle cx="298.0906091236831" cy="242.68438624218106" r="0.5" style="fill:none;stroke:white;stroke-width:3"/>
<circle cx="296.36738340620377" cy="253.91780731268227" r="0.5" style="fill:none;stroke:white;stroke-width:3"/>
<circle cx="295.85976652818607" cy="262.60011819563806" r="0.5" style="fill:none;stroke:white;stroke-width:3"/>
<circle cx="293.7357906438503" cy="273.76920308992266" r="0.5" style="fill:none;stroke:white;stroke-width:3"/>
<circle cx="291.43815635387745" cy="285.1526526913047" r="0.5" style="fill:none;stroke:white;stroke-width:3"/>
<circle cx="289.76836399197816" cy="295.7000179130584" r="0.5" style="fill:none;stroke:white;stroke-width:3"/>
<circle cx="287.1501295685204" cy="309.48446385115386" r="0.5" style="fill:none;stroke:white;stroke-width:3"/>
<circle cx="284.6120451784336" cy="324.5122747130692" r="0.5" style="fill:none;stroke:white;stroke-width:3"/>
<circle cx="280.7247685599335" cy="336.47448140792545" r="0.5" style="fill:none;stroke:white;stroke-width:3"/>
<circle cx="277.03786702485974" cy="350.9234355892986" r="0.5" style="fill:none;stroke:white;stroke-width:3"/>
<circle cx="274.25933253465956" cy="360.6346643194556" r="0.5" style="fill:none;stroke:white;stroke-width:3"/>
<circle cx="270.3186225605772" cy="372.5110766418278" r="0.5" style="fill:none;stroke:white;stroke-width:3"/>
<circle cx="267.1393379035211" cy="385.9952890444547" r="0.5" style="fill:none;stroke:white;stroke-width:3"/>
<circle cx="263.46579470734304" cy="397.9574205838144" r="0.5" style="fill:none;stroke:white;stroke-width:3"/>
<circle cx="260.01934327238433" cy="411.54878526628016" r="0.5" style="fill:none;stroke:white;stroke-width:3"/>
<circle cx="256.4793834651584" cy="421.4314534205943" r="0.5" style="fill:none;stroke:white;stroke-width:3"/>
<circle cx="256.1855000094638" cy="434.4439752090722" r="0.5" style="fill:none;stroke:white;stroke-width:3"/>
<circle cx="251.91083156300135" cy="445.7629257313907" r="0.5" style="fill:none;stroke:white;stroke-width:3"/>
<circle cx="250.54828099569184" cy="449.7288428004831" r="0.5" style="fill:none;stroke:white;stroke-width:3"/>
<circle cx="247.5560130831691" cy="446.36317274607717" r="0.5" style="fill:none;stroke:white;stroke-width:3"/>
<circle cx="245.3518871654618" cy="444.8625551506877" r="0.5" style="fill:none;stroke:white;stroke-width:3"/>
<circle cx="244.73740357628284" cy="444.8839925453067" r="0.5" style="fill:none;stroke:white;stroke-width:3"/>
<circle cx="243.97597825925712" cy="441.94706887565553" r="0.5" style="fill:none;stroke:white;stroke-width:3"/>
<circle cx="242.92066948653735" cy="440.8537613008171" r="0.5" style="fill:none;stroke:white;stroke-width:3"/>
<circle cx="243.508436397926" cy="439.0744565527886" r="0.5" style="fill:none;stroke:white;stroke-width:3"/>
<circle cx="243.24126962002174" cy="438.86008246466514" r="0.5" style="fill:none;stroke:white;stroke-width:3"/>
<circle cx="246.848021121724" cy="442.4830039165914" r="0.5" style="fill:none;stroke:white;stroke-width:3"/>
<circle cx="247.07511288294225" cy="441.7755696594715" r="0.5" style="fill:none;stroke:white;stroke-width:3"/>
<circle cx="255.6912414703418" cy="444.02649667337533" r="0.5" style="fill:none;stroke:white;stroke-width:3"/>
<circle cx="256.6263251930057" cy="445.2269908703864" r="0.5" style="fill:none;stroke:white;stroke-width:3"/>
<circle cx="260.2063600169171" cy="447.43504231497644" r="0.5" style="fill:none;stroke:white;stroke-width:3"/>
<circle cx="262.87802779595546" cy="449.2786577001214" r="0.5" style="fill:none;stroke:white;stroke-width:3"/>
</g>
</svg>
