<?xml version="1.0" encoding="UTF-8" standalone="no"?>
<!DOCTYPE svg PUBLIC "-//W3C//DTD SVG 1.1//EN" "http://www.w3.org/Graphics/SVG/1.1/DTD/svg11.dtd">
<!-- Created with gpx2svg 0.2.0 -->
<svg xmlns="http://www.w3.org/2000/svg" version="1.1" width="365.6430055941284px" height="495.6978827163577px" viewBox="0 0 365.6430055941284 495.6978827163577" viewport-fill="black" >
<rect width="100%" height="100%" fill="#3B3434" />
<g>
<circle cx="276.7974169247458" cy="452.23766578584906" r="0.5" style="fill:none;stroke:white;stroke-width:3"/>
<circle cx="279.24199294256596" cy="444.584506296739" r="0.5" style="fill:none;stroke:white;stroke-width:3"/>
<circle cx="286.36198757370386" cy="435.02340788617727" r="0.5" style="fill:none;stroke:white;stroke-width:3"/>
<circle cx="289.3542554862266" cy="424.3475515309721" r="0.5" style="fill:none;stroke:white;stroke-width:3"/>
<circle cx="288.8867136248949" cy="415.36524570286275" r="0.5" style="fill:none;stroke:white;stroke-width:3"/>
<circle cx="290.0355307698819" cy="407.30474467277526" r="0.5" style="fill:none;stroke:white;stroke-width:3"/>
<circle cx="292.94764864903374" cy="398.64398616291584" r="0.5" style="fill:none;stroke:white;stroke-width:3"/>
<circle cx="296.4608917784693" cy="390.4762836098671" r="0.5" style="fill:none;stroke:white;stroke-width:3"/>
<circle cx="299.9340598912195" cy="382.26569911390544" r="0.5" style="fill:none;stroke:white;stroke-width:3"/>
<circle cx="301.6572856086999" cy="376.0702404554933" r="0.5" style="fill:none;stroke:white;stroke-width:3"/>
<circle cx="309.01773033995124" cy="370.9037823066115" r="0.5" style="fill:none;stroke:white;stroke-width:3"/>
<circle cx="309.2982554567501" cy="356.28333410695194" r="0.5" style="fill:none;stroke:white;stroke-width:3"/>
<circle cx="311.9031315413122" cy="345.1143259629607" r="0.5" style="fill:none;stroke:white;stroke-width:3"/>
<circle cx="314.200765831285" cy="335.53169270083305" r="0.5" style="fill:none;stroke:white;stroke-width:3"/>
<circle cx="316.88579194921965" cy="328.09281879924237" r="0.5" style="fill:none;stroke:white;stroke-width:3"/>
<circle cx="318.9563344779743" cy="317.6097851637751" r="0.5" style="fill:none;stroke:white;stroke-width:3"/>
<circle cx="320.7864269066154" cy="307.6198081053793" r="0.5" style="fill:none;stroke:white;stroke-width:3"/>
<circle cx="320.5860518231875" cy="299.1090256087482" r="0.5" style="fill:none;stroke:white;stroke-width:3"/>
<circle cx="322.0020357460782" cy="289.9551026813686" r="0.5" style="fill:none;stroke:white;stroke-width:3"/>
<circle cx="323.2844362800168" cy="282.53763191252943" r="0.5" style="fill:none;stroke:white;stroke-width:3"/>
<circle cx="324.45997010279353" cy="275.76328953579065" r="0.5" style="fill:none;stroke:white;stroke-width:3"/>
<circle cx="325.6355039255703" cy="268.7531265132129" r="0.5" style="fill:none;stroke:white;stroke-width:3"/>
<circle cx="327.3587296430507" cy="262.34321769475935" r="0.5" style="fill:none;stroke:white;stroke-width:3"/>
<circle cx="329.6430055941284" cy="251.83867577947674" r="0.5" style="fill:none;stroke:white;stroke-width:3"/>
<circle cx="329.58957223854776" cy="242.7918979872018" r="0.5" style="fill:none;stroke:white;stroke-width:3"/>
<circle cx="328.908296954893" cy="237.13229815028606" r="0.5" style="fill:none;stroke:white;stroke-width:3"/>
<circle cx="327.53238804868835" cy="228.34276160784066" r="0.5" style="fill:none;stroke:white;stroke-width:3"/>
<circle cx="326.74424605387173" cy="219.3817137915641" r="0.5" style="fill:none;stroke:white;stroke-width:3"/>
<circle cx="325.74237063673206" cy="208.66274629198014" r="0.5" style="fill:none;stroke:white;stroke-width:3"/>
<circle cx="324.91415362523" cy="200.21619163267314" r="0.5" style="fill:none;stroke:white;stroke-width:3"/>
<circle cx="324.5401201361645" cy="194.8995748065412" r="0.5" style="fill:none;stroke:white;stroke-width:3"/>
<circle cx="324.2195200026801" cy="188.42530364133418" r="0.5" style="fill:none;stroke:white;stroke-width:3"/>
<circle cx="323.2176445855404" cy="181.02919392585753" r="0.5" style="fill:none;stroke:white;stroke-width:3"/>
<circle cx="322.79017774089425" cy="173.46157442964613" r="0.5" style="fill:none;stroke:white;stroke-width:3"/>
<circle cx="322.4562192685147" cy="169.70991954021156" r="0.5" style="fill:none;stroke:white;stroke-width:3"/>
<circle cx="322.2558441850868" cy="161.2204551525414" r="0.5" style="fill:none;stroke:white;stroke-width:3"/>
<circle cx="321.85509401823145" cy="153.05255443789065" r="0.5" style="fill:none;stroke:white;stroke-width:3"/>
<circle cx="321.0001603289391" cy="144.1771900266409" r="0.5" style="fill:none;stroke:white;stroke-width:3"/>
<circle cx="318.9563344779743" cy="135.96639886982737" r="0.5" style="fill:none;stroke:white;stroke-width:3"/>
<circle cx="316.69877520468634" cy="129.2777075126767" r="0.5" style="fill:none;stroke:white;stroke-width:3"/>
<circle cx="314.89539945383547" cy="123.55372762754558" r="0.5" style="fill:none;stroke:white;stroke-width:3"/>
<circle cx="313.4927738698405" cy="115.34291916713119" r="0.5" style="fill:none;stroke:white;stroke-width:3"/>
<circle cx="311.9565648968933" cy="107.88243971541523" r="0.5" style="fill:none;stroke:white;stroke-width:3"/>
<circle cx="311.0882728687058" cy="99.65017992630601" r="0.5" style="fill:none;stroke:white;stroke-width:3"/>
<circle cx="310.66080602405907" cy="93.45454233549535" r="0.5" style="fill:none;stroke:white;stroke-width:3"/>
<circle cx="310.09975579046073" cy="86.70150727629661" r="0.5" style="fill:none;stroke:white;stroke-width:3"/>
<circle cx="310.95468947975365" cy="86.70150727629661" r="0.5" style="fill:none;stroke:white;stroke-width:3"/>
<circle cx="304.9968703324979" cy="83.97885373346507" r="0.5" style="fill:none;stroke:white;stroke-width:3"/>
<circle cx="294.8979661277319" cy="77.80464445240796" r="0.5" style="fill:none;stroke:white;stroke-width:3"/>
<circle cx="287.1501295685204" cy="74.52459418997168" r="0.5" style="fill:none;stroke:white;stroke-width:3"/>
<circle cx="275.822258185397" cy="80.91318780742586" r="0.5" style="fill:none;stroke:white;stroke-width:3"/>
<circle cx="270.3186225605772" cy="85.8868551146239" r="0.5" style="fill:none;stroke:white;stroke-width:3"/>
<circle cx="261.5154772286449" cy="82.79975156597793" r="0.5" style="fill:none;stroke:white;stroke-width:3"/>
<circle cx="253.86114904169898" cy="83.46433644220232" r="0.5" style="fill:none;stroke:white;stroke-width:3"/>
<circle cx="244.22978669826514" cy="84.87925892919301" r="0.5" style="fill:none;stroke:white;stroke-width:3"/>
<circle cx="234.77208276046895" cy="86.91588942110538" r="0.5" style="fill:none;stroke:white;stroke-width:3"/>
<circle cx="227.71887982380684" cy="86.20842834860086" r="0.5" style="fill:none;stroke:white;stroke-width:3"/>
<circle cx="222.20188586009243" cy="87.98780003227293" r="0.5" style="fill:none;stroke:white;stroke-width:3"/>
<circle cx="217.7802756857838" cy="91.73948625326156" r="0.5" style="fill:none;stroke:white;stroke-width:3"/>
<circle cx="208.04204663118762" cy="93.47598053365945" r="0.5" style="fill:none;stroke:white;stroke-width:3"/>
<circle cx="200.6682435610417" cy="94.93377796411514" r="0.5" style="fill:none;stroke:white;stroke-width:3"/>
<circle cx="189.38044719460322" cy="92.74708173796535" r="0.5" style="fill:none;stroke:white;stroke-width:3"/>
<circle cx="181.88641907440032" cy="93.5831715311855" r="0.5" style="fill:none;stroke:white;stroke-width:3"/>
<circle cx="172.21498171428047" cy="95.255350895226" r="0.5" style="fill:none;stroke:white;stroke-width:3"/>
<circle cx="162.06264415393488" cy="95.40541826337575" r="0.5" style="fill:none;stroke:white;stroke-width:3"/>
<circle cx="149.83976406483308" cy="94.78371059037745" r="0.5" style="fill:none;stroke:white;stroke-width:3"/>
<circle cx="138.31151759828225" cy="94.33350845687092" r="0.5" style="fill:none;stroke:white;stroke-width:3"/>
<circle cx="129.42822223297844" cy="91.16065475977958" r="0.5" style="fill:none;stroke:white;stroke-width:3"/>
<circle cx="122.74905278538135" cy="89.01683411188424" r="0.5" style="fill:none;stroke:white;stroke-width:3"/>
<circle cx="111.91543994138046" cy="87.02308048345148" r="0.5" style="fill:none;stroke:white;stroke-width:3"/>
<circle cx="101.8566107532999" cy="87.06595690995455" r="0.5" style="fill:none;stroke:white;stroke-width:3"/>
<circle cx="92.51913186556067" cy="86.25130477175117" r="0.5" style="fill:none;stroke:white;stroke-width:3"/>
<circle cx="82.05955251062423" cy="86.42281049787998" r="0.5" style="fill:none;stroke:white;stroke-width:3"/>
<circle cx="74.52544937373531" cy="85.05076466873288" r="0.5" style="fill:none;stroke:white;stroke-width:3"/>
<circle cx="62.59645274032809" cy="87.4947211638093" r="0.5" style="fill:none;stroke:white;stroke-width:3"/>
<circle cx="49.398413911878016" cy="89.16690156944095" r="0.5" style="fill:none;stroke:white;stroke-width:3"/>
<circle cx="40.194518413089824" cy="83.16420133821666" r="0.5" style="fill:none;stroke:white;stroke-width:3"/>
<circle cx="36.0" cy="73.90288519486785" r="0.5" style="fill:none;stroke:white;stroke-width:3"/>
<circle cx="43.78791157589694" cy="60.225277261063454" r="0.5" style="fill:none;stroke:white;stroke-width:3"/>
<circle cx="47.27443802754224" cy="60.07520936094224" r="0.5" style="fill:none;stroke:white;stroke-width:3"/>
<circle cx="47.167571316380965" cy="58.48877708092331" r="0.5" style="fill:none;stroke:white;stroke-width:3"/>
<circle cx="47.648471516607785" cy="56.79515314958989" r="0.5" style="fill:none;stroke:white;stroke-width:3"/>
<circle cx="46.13897922145043" cy="59.60356735959649" r="0.5" style="fill:none;stroke:white;stroke-width:3"/>
<circle cx="45.31076220994891" cy="60.56828961074352" r="0.5" style="fill:none;stroke:white;stroke-width:3"/>
<circle cx="48.08929670014859" cy="60.35390689596534" r="0.5" style="fill:none;stroke:white;stroke-width:3"/>
<circle cx="46.753462810629934" cy="60.20383899137377" r="0.5" style="fill:none;stroke:white;stroke-width:3"/>
<circle cx="48.87743869496571" cy="56.55933207795024" r="0.5" style="fill:none;stroke:white;stroke-width:3"/>
<circle cx="44.56269523181781" cy="61.42582041732967" r="0.5" style="fill:none;stroke:white;stroke-width:3"/>
<circle cx="45.17717882099732" cy="61.49013522416353" r="0.5" style="fill:none;stroke:white;stroke-width:3"/>
<circle cx="46.03211251028915" cy="61.06136983595788" r="0.5" style="fill:none;stroke:white;stroke-width:3"/>
<circle cx="44.95008705977907" cy="61.36150560490787" r="0.5" style="fill:none;stroke:white;stroke-width:3"/>
<circle cx="46.13897922145043" cy="60.88986367173493" r="0.5" style="fill:none;stroke:white;stroke-width:3"/>
<circle cx="47.40802141649437" cy="59.73219699561596" r="0.5" style="fill:none;stroke:white;stroke-width:3"/>
<circle cx="44.73635363745598" cy="58.917542587593196" r="0.5" style="fill:none;stroke:white;stroke-width:3"/>
<circle cx="41.036093763487585" cy="58.638845012336965" r="0.5" style="fill:none;stroke:white;stroke-width:3"/>
<circle cx="40.742210307792995" cy="55.33735004402697" r="0.5" style="fill:none;stroke:white;stroke-width:3"/>
<circle cx="42.238344264054646" cy="53.57941070795059" r="0.5" style="fill:none;stroke:white;stroke-width:3"/>
<circle cx="42.33185263632131" cy="53.66516385264695" r="0.5" style="fill:none;stroke:white;stroke-width:3"/>
<circle cx="42.398644330797104" cy="53.686602137982845" r="0.5" style="fill:none;stroke:white;stroke-width:3"/>
<circle cx="42.251702602949806" cy="53.21495982930064" r="0.5" style="fill:none;stroke:white;stroke-width:3"/>
<circle cx="43.854703270373285" cy="54.737078107148406" r="0.5" style="fill:none;stroke:white;stroke-width:3"/>
<circle cx="43.453953103517414" cy="52.46461974978447" r="0.5" style="fill:none;stroke:white;stroke-width:3"/>
<circle cx="42.973052903290586" cy="50.749556484818456" r="0.5" style="fill:none;stroke:white;stroke-width:3"/>
<circle cx="44.26881177612376" cy="49.37750565782189" r="0.5" style="fill:none;stroke:white;stroke-width:3"/>
<circle cx="45.4443455989016" cy="51.9715390920639" r="0.5" style="fill:none;stroke:white;stroke-width:3"/>
<circle cx="46.913762877371845" cy="52.85050893947482" r="0.5" style="fill:none;stroke:white;stroke-width:3"/>
<circle cx="46.913762877371845" cy="53.172083255276085" r="0.5" style="fill:none;stroke:white;stroke-width:3"/>
<circle cx="45.91188746023327" cy="52.593249479681255" r="0.5" style="fill:none;stroke:white;stroke-width:3"/>
<circle cx="48.89079703386032" cy="49.50613542795181" r="0.5" style="fill:none;stroke:white;stroke-width:3"/>
<circle cx="49.598788995305945" cy="48.391344005987044" r="0.5" style="fill:none;stroke:white;stroke-width:3"/>
<circle cx="45.72487071569994" cy="50.64236501790583" r="0.5" style="fill:none;stroke:white;stroke-width:3"/>
<circle cx="48.75721364490873" cy="52.807632364332676" r="0.5" style="fill:none;stroke:white;stroke-width:3"/>
<circle cx="51.13499796825363" cy="54.822831246256825" r="0.5" style="fill:none;stroke:white;stroke-width:3"/>
<circle cx="53.59293232496839" cy="53.10776839368045" r="0.5" style="fill:none;stroke:white;stroke-width:3"/>
<circle cx="49.71901404536238" cy="49.763394969329234" r="0.5" style="fill:none;stroke:white;stroke-width:3"/>
<circle cx="49.79916407873388" cy="51.07113086655736" r="0.5" style="fill:none;stroke:white;stroke-width:3"/>
<circle cx="51.00141457930094" cy="48.75579506009817" r="0.5" style="fill:none;stroke:white;stroke-width:3"/>
<circle cx="50.82775617366442" cy="46.22607567943633" r="0.5" style="fill:none;stroke:white;stroke-width:3"/>
<circle cx="49.71901404536238" cy="46.954977940768" r="0.5" style="fill:none;stroke:white;stroke-width:3"/>
<circle cx="48.850722017174846" cy="51.907224223762746" r="0.5" style="fill:none;stroke:white;stroke-width:3"/>
<circle cx="49.89267245100054" cy="56.366387554630634" r="0.5" style="fill:none;stroke:white;stroke-width:3"/>
<circle cx="53.68644069723505" cy="54.822831246256825" r="0.5" style="fill:none;stroke:white;stroke-width:3"/>
<circle cx="52.17694840207878" cy="48.88442484475672" r="0.5" style="fill:none;stroke:white;stroke-width:3"/>
<circle cx="50.747606140292916" cy="48.49853549189866" r="0.5" style="fill:none;stroke:white;stroke-width:3"/>
<circle cx="47.768696566664765" cy="51.58564986102283" r="0.5" style="fill:none;stroke:white;stroke-width:3"/>
<circle cx="48.490046867005546" cy="54.56557183787226" r="0.5" style="fill:none;stroke:white;stroke-width:3"/>
<circle cx="48.28967178357707" cy="52.89338551573455" r="0.5" style="fill:none;stroke:white;stroke-width:3"/>
<circle cx="49.47856394524897" cy="50.149284267425536" r="0.5" style="fill:none;stroke:white;stroke-width:3"/>
<circle cx="48.663705272642616" cy="54.20112099386751" r="0.5" style="fill:none;stroke:white;stroke-width:3"/>
<circle cx="52.550981891143785" cy="52.52893461473286" r="0.5" style="fill:none;stroke:white;stroke-width:3"/>
<circle cx="51.22850634051974" cy="50.256475739926096" r="0.5" style="fill:none;stroke:white;stroke-width:3"/>
<circle cx="49.11788879507858" cy="50.53517355434597" r="0.5" style="fill:none;stroke:white;stroke-width:3"/>
<circle cx="47.36794639980889" cy="51.371266949549316" r="0.5" style="fill:none;stroke:white;stroke-width:3"/>
<circle cx="49.01102208391785" cy="55.01577579863369" r="0.5" style="fill:none;stroke:white;stroke-width:3"/>
<circle cx="48.556838561480795" cy="54.24399756900966" r="0.5" style="fill:none;stroke:white;stroke-width:3"/>
<circle cx="50.133122551113956" cy="50.36366721019149" r="0.5" style="fill:none;stroke:white;stroke-width:3"/>
<circle cx="47.835488261140014" cy="51.88578592836857" r="0.5" style="fill:none;stroke:white;stroke-width:3"/>
<circle cx="47.11413796080033" cy="54.88714609667659" r="0.5" style="fill:none;stroke:white;stroke-width:3"/>
<circle cx="48.02250500567334" cy="52.486058038473125" r="0.5" style="fill:none;stroke:white;stroke-width:3"/>
<circle cx="48.850722017174846" cy="48.00545463413" r="0.5" style="fill:none;stroke:white;stroke-width:3"/>
<circle cx="48.34310513915825" cy="46.71915662661195" r="0.5" style="fill:none;stroke:white;stroke-width:3"/>
<circle cx="47.19428799417128" cy="51.9715390920639" r="0.5" style="fill:none;stroke:white;stroke-width:3"/>
<circle cx="47.70190487218897" cy="55.12296721301973" r="0.5" style="fill:none;stroke:white;stroke-width:3"/>
<circle cx="51.41552308505197" cy="52.52893461473286" r="0.5" style="fill:none;stroke:white;stroke-width:3"/>
<circle cx="49.9060307898957" cy="48.41278230249882" r="0.5" style="fill:none;stroke:white;stroke-width:3"/>
<circle cx="48.82400533938453" cy="50.5566118452698" r="0.5" style="fill:none;stroke:white;stroke-width:3"/>
<circle cx="47.08742128301001" cy="54.05105300210416" r="0.5" style="fill:none;stroke:white;stroke-width:3"/>
<circle cx="48.34310513915825" cy="56.15200474821031" r="0.5" style="fill:none;stroke:white;stroke-width:3"/>
<circle cx="49.19803882845008" cy="51.99297738187015" r="0.5" style="fill:none;stroke:white;stroke-width:3"/>
<circle cx="48.50340520590016" cy="50.320790624991055" r="0.5" style="fill:none;stroke:white;stroke-width:3"/>
<circle cx="47.24772134975246" cy="53.000576958060265" r="0.5" style="fill:none;stroke:white;stroke-width:3"/>
<circle cx="48.73049696711841" cy="56.473578960075976" r="0.5" style="fill:none;stroke:white;stroke-width:3"/>
<circle cx="49.398413911878016" cy="51.32839036770165" r="0.5" style="fill:none;stroke:white;stroke-width:3"/>
<circle cx="50.15983922890373" cy="48.1555227253586" r="0.5" style="fill:none;stroke:white;stroke-width:3"/>
<circle cx="51.976573318650296" cy="45.94737774319947" r="0.5" style="fill:none;stroke:white;stroke-width:3"/>
<circle cx="51.7494815574315" cy="46.59052681624889" r="0.5" style="fill:none;stroke:white;stroke-width:3"/>
<circle cx="51.18843132383372" cy="47.76963334456086" r="0.5" style="fill:none;stroke:white;stroke-width:3"/>
<circle cx="49.238113845136105" cy="52.27167514488101" r="0.5" style="fill:none;stroke:white;stroke-width:3"/>
<circle cx="48.75721364490873" cy="58.27439432032406" r="0.5" style="fill:none;stroke:white;stroke-width:3"/>
<circle cx="52.75135697457117" cy="54.95146094597876" r="0.5" style="fill:none;stroke:white;stroke-width:3"/>
<circle cx="52.59105690782926" cy="50.79243306778371" r="0.5" style="fill:none;stroke:white;stroke-width:3"/>
<circle cx="53.87345744176782" cy="46.52621190994978" r="0.5" style="fill:none;stroke:white;stroke-width:3"/>
<circle cx="52.898298702418465" cy="50.53517355434597" r="0.5" style="fill:none;stroke:white;stroke-width:3"/>
<circle cx="49.50528062304038" cy="50.084969385713336" r="0.5" style="fill:none;stroke:white;stroke-width:3"/>
<circle cx="47.91563829451152" cy="54.972899234667416" r="0.5" style="fill:none;stroke:white;stroke-width:3"/>
<circle cx="46.33935430487945" cy="61.06136983595788" r="0.5" style="fill:none;stroke:white;stroke-width:3"/>
<circle cx="46.579804404992316" cy="60.225277261063454" r="0.5" style="fill:none;stroke:white;stroke-width:3"/>
<circle cx="47.94235497230238" cy="57.352548404037954" r="0.5" style="fill:none;stroke:white;stroke-width:3"/>
<circle cx="48.32974680026255" cy="55.68036255575716" r="0.5" style="fill:none;stroke:white;stroke-width:3"/>
<circle cx="48.5701969003765" cy="51.71427960321307" r="0.5" style="fill:none;stroke:white;stroke-width:3"/>
<circle cx="47.20764633306644" cy="54.072491286322474" r="0.5" style="fill:none;stroke:white;stroke-width:3"/>
<circle cx="45.6580790212236" cy="59.474937721341846" r="0.5" style="fill:none;stroke:white;stroke-width:3"/>
<circle cx="43.453953103517414" cy="61.18999945297837" r="0.5" style="fill:none;stroke:white;stroke-width:3"/>
<circle cx="43.66768652583996" cy="61.1471229147166" r="0.5" style="fill:none;stroke:white;stroke-width:3"/>
<circle cx="44.00164499822004" cy="60.35390689596534" r="0.5" style="fill:none;stroke:white;stroke-width:3"/>
<circle cx="43.881419948163604" cy="59.04617223925888" r="0.5" style="fill:none;stroke:white;stroke-width:3"/>
<circle cx="44.18866174275281" cy="59.024733958393334" r="0.5" style="fill:none;stroke:white;stroke-width:3"/>
<circle cx="43.57417815357385" cy="59.517814261838794" r="0.5" style="fill:none;stroke:white;stroke-width:3"/>
<circle cx="43.453953103517414" cy="59.96801799573004" r="0.5" style="fill:none;stroke:white;stroke-width:3"/>
<circle cx="43.33372805346098" cy="60.0323328115046" r="0.5" style="fill:none;stroke:white;stroke-width:3"/>
<circle cx="43.37380307014591" cy="59.775073539465666" r="0.5" style="fill:none;stroke:white;stroke-width:3"/>
<circle cx="43.614253170259325" cy="59.689320449531074" r="0.5" style="fill:none;stroke:white;stroke-width:3"/>
<circle cx="42.63909443091052" cy="59.60356735959649" r="0.5" style="fill:none;stroke:white;stroke-width:3"/>
<circle cx="44.015003337115196" cy="55.251596913859245" r="0.5" style="fill:none;stroke:white;stroke-width:3"/>
<circle cx="47.033987927428825" cy="50.1921608582139" r="0.5" style="fill:none;stroke:white;stroke-width:3"/>
<circle cx="49.398413911878016" cy="46.37614379860461" r="0.5" style="fill:none;stroke:white;stroke-width:3"/>
<circle cx="49.0778137783931" cy="45.132722187414764" r="0.5" style="fill:none;stroke:white;stroke-width:3"/>
<circle cx="48.90415537275603" cy="45.475735059008" r="0.5" style="fill:none;stroke:white;stroke-width:3"/>
<circle cx="47.795413244455084" cy="46.67628002464771" r="0.5" style="fill:none;stroke:white;stroke-width:3"/>
<circle cx="45.35083722663439" cy="51.99297738187015" r="0.5" style="fill:none;stroke:white;stroke-width:3"/>
<circle cx="43.52074479799321" cy="57.97425845079124" r="0.5" style="fill:none;stroke:white;stroke-width:3"/>
<circle cx="38.083900867649206" cy="65.67059681899845" r="0.5" style="fill:none;stroke:white;stroke-width:3"/>
<circle cx="44.055078353801214" cy="55.35878832489252" r="0.5" style="fill:none;stroke:white;stroke-width:3"/>
<circle cx="48.87743869496571" cy="51.28551378585398" r="0.5" style="fill:none;stroke:white;stroke-width:3"/>
<circle cx="49.157963811764056" cy="51.41414353586733" r="0.5" style="fill:none;stroke:white;stroke-width:3"/>
<circle cx="48.32974680026255" cy="51.735717898607255" r="0.5" style="fill:none;stroke:white;stroke-width:3"/>
<circle cx="48.30303012247223" cy="51.7571561884135" r="0.5" style="fill:none;stroke:white;stroke-width:3"/>
<circle cx="47.75533822776906" cy="51.22119891196489" r="0.5" style="fill:none;stroke:white;stroke-width:3"/>
<circle cx="47.795413244455084" cy="50.53517355434597" r="0.5" style="fill:none;stroke:white;stroke-width:3"/>
<circle cx="48.32974680026255" cy="49.61332690156996" r="0.5" style="fill:none;stroke:white;stroke-width:3"/>
<circle cx="47.72862154997874" cy="49.591888608410954" r="0.5" style="fill:none;stroke:white;stroke-width:3"/>
<circle cx="46.9939129107428" cy="51.1140074506402" r="0.5" style="fill:none;stroke:white;stroke-width:3"/>
<circle cx="46.76682114952564" cy="51.028254283592105" r="0.5" style="fill:none;stroke:white;stroke-width:3"/>
<circle cx="46.419504338250405" cy="49.61332690156996" r="0.5" style="fill:none;stroke:white;stroke-width:3"/>
<circle cx="45.430987260005345" cy="49.591888608410954" r="0.5" style="fill:none;stroke:white;stroke-width:3"/>
<circle cx="46.17905423813645" cy="49.763394969329234" r="0.5" style="fill:none;stroke:white;stroke-width:3"/>
<circle cx="46.726746132839615" cy="49.14168440289795" r="0.5" style="fill:none;stroke:white;stroke-width:3"/>
<circle cx="46.13897922145043" cy="49.634765196964146" r="0.5" style="fill:none;stroke:white;stroke-width:3"/>
<circle cx="45.01687875425432" cy="49.72051838077605" r="0.5" style="fill:none;stroke:white;stroke-width:3"/>
<circle cx="44.30888679280979" cy="57.71699912510812" r="0.5" style="fill:none;stroke:white;stroke-width:3"/>
<circle cx="42.07804419731165" cy="61.876024059578775" r="0.5" style="fill:none;stroke:white;stroke-width:3"/>
<circle cx="43.54746147578298" cy="61.01849329657853" r="0.5" style="fill:none;stroke:white;stroke-width:3"/>
<circle cx="47.768696566664765" cy="55.35878832489252" r="0.5" style="fill:none;stroke:white;stroke-width:3"/>
<circle cx="50.467081023493485" cy="51.56421157121658" r="0.5" style="fill:none;stroke:white;stroke-width:3"/>
<circle cx="50.10640587332364" cy="52.67900263108313" r="0.5" style="fill:none;stroke:white;stroke-width:3"/>
<circle cx="50.1197642122188" cy="52.70044092647731" r="0.5" style="fill:none;stroke:white;stroke-width:3"/>
<circle cx="50.54723105686444" cy="51.56421157121658" r="0.5" style="fill:none;stroke:white;stroke-width:3"/>
<circle cx="51.669331524060546" cy="52.74331749603152" r="0.5" style="fill:none;stroke:white;stroke-width:3"/>
<circle cx="47.24772134975246" cy="57.674122570082545" r="0.5" style="fill:none;stroke:white;stroke-width:3"/>
<circle cx="45.61800400453867" cy="59.49637598879635" r="0.5" style="fill:none;stroke:white;stroke-width:3"/>
<circle cx="42.4654360252729" cy="63.055128747224806" r="0.5" style="fill:none;stroke:white;stroke-width:3"/>
<circle cx="44.72299529856082" cy="62.219036348909135" r="0.5" style="fill:none;stroke:white;stroke-width:3"/>
<circle cx="49.19803882845008" cy="53.66516385264695" r="0.5" style="fill:none;stroke:white;stroke-width:3"/>
<circle cx="50.61402275134078" cy="48.605726977810264" r="0.5" style="fill:none;stroke:white;stroke-width:3"/>
<circle cx="50.760964479188075" cy="49.270314175263046" r="0.5" style="fill:none;stroke:white;stroke-width:3"/>
<circle cx="51.93649830196482" cy="48.13408442884683" r="0.5" style="fill:none;stroke:white;stroke-width:3"/>
<circle cx="49.49192228414413" cy="52.95770038291812" r="0.5" style="fill:none;stroke:white;stroke-width:3"/>
<circle cx="46.78017948842025" cy="56.60220863744616" r="0.5" style="fill:none;stroke:white;stroke-width:3"/>
<circle cx="45.23061217657796" cy="61.98321540355682" r="0.5" style="fill:none;stroke:white;stroke-width:3"/>
<circle cx="45.41762892111073" cy="62.58348689340055" r="0.5" style="fill:none;stroke:white;stroke-width:3"/>
<circle cx="48.18280507241525" cy="59.11048706062138" r="0.5" style="fill:none;stroke:white;stroke-width:3"/>
<circle cx="51.92313996306966" cy="50.64236501790583" r="0.5" style="fill:none;stroke:white;stroke-width:3"/>
<circle cx="50.72088946250205" cy="47.46949715092778" r="0.5" style="fill:none;stroke:white;stroke-width:3"/>
<circle cx="49.93274746768547" cy="46.504773607850076" r="0.5" style="fill:none;stroke:white;stroke-width:3"/>
<circle cx="49.87931411210484" cy="44.85402421876788" r="0.5" style="fill:none;stroke:white;stroke-width:3"/>
<circle cx="50.25334760117094" cy="43.24615116454661" r="0.5" style="fill:none;stroke:white;stroke-width:3"/>
<circle cx="51.18843132383372" cy="43.353342710807915" r="0.5" style="fill:none;stroke:white;stroke-width:3"/>
<circle cx="53.339123885959815" cy="42.710193420946595" r="0.5" style="fill:none;stroke:white;stroke-width:3"/>
<circle cx="64.93416204698751" cy="37.11479283235967" r="0.5" style="fill:none;stroke:white;stroke-width:3"/>
<circle cx="74.44529934036436" cy="36.0" r="0.5" style="fill:none;stroke:white;stroke-width:3"/>
<circle cx="84.70450361187285" cy="41.70259278528392" r="0.5" style="fill:none;stroke:white;stroke-width:3"/>
<circle cx="92.47905684887463" cy="54.222559279203416" r="0.5" style="fill:none;stroke:white;stroke-width:3"/>
<circle cx="100.0799516802399" cy="65.07032551802695" r="0.5" style="fill:none;stroke:white;stroke-width:3"/>
<circle cx="116.01644998220472" cy="69.25078558512031" r="0.5" style="fill:none;stroke:white;stroke-width:3"/>
<circle cx="126.32908760929331" cy="70.17263038605451" r="0.5" style="fill:none;stroke:white;stroke-width:3"/>
<circle cx="136.42799181405934" cy="71.24454283230007" r="0.5" style="fill:none;stroke:white;stroke-width:3"/>
<circle cx="146.0860708352835" cy="70.90153085924685" r="0.5" style="fill:none;stroke:white;stroke-width:3"/>
<circle cx="157.36050886282683" cy="71.20166633874177" r="0.5" style="fill:none;stroke:white;stroke-width:3"/>
<circle cx="168.34106343467502" cy="70.98728385195136" r="0.5" style="fill:none;stroke:white;stroke-width:3"/>
<circle cx="178.39989262275503" cy="71.58755478858947" r="0.5" style="fill:none;stroke:white;stroke-width:3"/>
<circle cx="184.78517861465699" cy="72.18782569281757" r="0.5" style="fill:none;stroke:white;stroke-width:3"/>
<circle cx="191.504423078939" cy="71.994881477952" r="0.5" style="fill:none;stroke:white;stroke-width:3"/>
<circle cx="201.04227705010672" cy="72.87384952828288" r="0.5" style="fill:none;stroke:white;stroke-width:3"/>
<circle cx="199.88010156622568" cy="73.73137926198542" r="0.5" style="fill:none;stroke:white;stroke-width:3"/>
<circle cx="200.29421007197615" cy="72.2307021819055" r="0.5" style="fill:none;stroke:white;stroke-width:3"/>
<circle cx="208.37600510356768" cy="69.70098887085915" r="0.5" style="fill:none;stroke:white;stroke-width:3"/>
<circle cx="220.7324685816211" cy="71.67330777570605" r="0.5" style="fill:none;stroke:white;stroke-width:3"/>
<circle cx="235.29305797738124" cy="73.98863816075027" r="0.5" style="fill:none;stroke:white;stroke-width:3"/>
<circle cx="247.7831048443868" cy="73.3883673749864" r="0.5" style="fill:none;stroke:white;stroke-width:3"/>
<circle cx="254.8763827977338" cy="73.06679371967911" r="0.5" style="fill:none;stroke:white;stroke-width:3"/>
<circle cx="261.6757772953868" cy="72.25214042812586" r="0.5" style="fill:none;stroke:white;stroke-width:3"/>
<circle cx="268.71562189315426" cy="70.98728385195136" r="0.5" style="fill:none;stroke:white;stroke-width:3"/>
<circle cx="283.9842032503595" cy="68.26462593488395" r="0.5" style="fill:none;stroke:white;stroke-width:3"/>
<circle cx="296.0734999505092" cy="69.50804460793734" r="0.5" style="fill:none;stroke:white;stroke-width:3"/>
<circle cx="308.429963428562" cy="66.09936200715602" r="0.5" style="fill:none;stroke:white;stroke-width:3"/>
<circle cx="305.46441219382905" cy="62.026091942936176" r="0.5" style="fill:none;stroke:white;stroke-width:3"/>
<circle cx="304.9033619602307" cy="58.14576466530561" r="0.5" style="fill:none;stroke:white;stroke-width:3"/>
<circle cx="311.0348395131246" cy="51.242637204006314" r="0.5" style="fill:none;stroke:white;stroke-width:3"/>
<circle cx="308.590263495305" cy="55.91618365645409" r="0.5" style="fill:none;stroke:white;stroke-width:3"/>
<circle cx="306.1456874774838" cy="54.737078107148406" r="0.5" style="fill:none;stroke:white;stroke-width:3"/>
<circle cx="304.98351199360275" cy="55.187282061204314" r="0.5" style="fill:none;stroke:white;stroke-width:3"/>
<circle cx="303.2068529205422" cy="55.53029458522796" r="0.5" style="fill:none;stroke:white;stroke-width:3"/>
<circle cx="301.77751065875583" cy="55.251596913859245" r="0.5" style="fill:none;stroke:white;stroke-width:3"/>
<circle cx="300.4416767692366" cy="55.23015862628817" r="0.5" style="fill:none;stroke:white;stroke-width:3"/>
<circle cx="298.87875111849917" cy="55.42310317642987" r="0.5" style="fill:none;stroke:white;stroke-width:3"/>
<circle cx="299.56002640215394" cy="56.194881308823824" r="0.5" style="fill:none;stroke:white;stroke-width:3"/>
<circle cx="298.9722594907653" cy="55.6589242760092" r="0.5" style="fill:none;stroke:white;stroke-width:3"/>
<circle cx="298.7050927128621" cy="54.436942133679985" r="0.5" style="fill:none;stroke:white;stroke-width:3"/>
<circle cx="298.62494267949114" cy="52.443181462213396" r="0.5" style="fill:none;stroke:white;stroke-width:3"/>
<circle cx="298.2241925126347" cy="51.7571561884135" r="0.5" style="fill:none;stroke:white;stroke-width:3"/>
<circle cx="296.0067082560328" cy="50.98537770174443" r="0.5" style="fill:none;stroke:white;stroke-width:3"/>
<circle cx="294.9647578222077" cy="51.58564986102283" r="0.5" style="fill:none;stroke:white;stroke-width:3"/>
<circle cx="291.531664726143" cy="54.11536785475909" r="0.5" style="fill:none;stroke:white;stroke-width:3"/>
<circle cx="291.7053231317812" cy="54.501256986334916" r="0.5" style="fill:none;stroke:white;stroke-width:3"/>
<circle cx="292.1728649931123" cy="54.737078107148406" r="0.5" style="fill:none;stroke:white;stroke-width:3"/>
<circle cx="292.23965668758865" cy="55.165843778103586" r="0.5" style="fill:none;stroke:white;stroke-width:3"/>
<circle cx="291.63853143730483" cy="55.38022660687566" r="0.5" style="fill:none;stroke:white;stroke-width:3"/>
<circle cx="292.33316505985476" cy="56.5807703576982" r="0.5" style="fill:none;stroke:white;stroke-width:3"/>
<circle cx="299.6001014188399" cy="52.50749632716179" r="0.5" style="fill:none;stroke:white;stroke-width:3"/>
<circle cx="300.30809338028445" cy="50.106407678872344" r="0.5" style="fill:none;stroke:white;stroke-width:3"/>
<circle cx="300.2546600247044" cy="52.20736027546227" r="0.5" style="fill:none;stroke:white;stroke-width:3"/>
<circle cx="294.9647578222077" cy="55.76611568257213" r="0.5" style="fill:none;stroke:white;stroke-width:3"/>
<circle cx="294.5640076553523" cy="53.85810842849314" r="0.5" style="fill:none;stroke:white;stroke-width:3"/>
<circle cx="295.04490785557863" cy="52.55037290342152" r="0.5" style="fill:none;stroke:white;stroke-width:3"/>
<circle cx="295.39222466685385" cy="52.91482380330562" r="0.5" style="fill:none;stroke:white;stroke-width:3"/>
<circle cx="295.55252473359633" cy="51.56421157121658" r="0.5" style="fill:none;stroke:white;stroke-width:3"/>
<circle cx="296.26051669504193" cy="52.0572922501713" r="0.5" style="fill:none;stroke:white;stroke-width:3"/>
<circle cx="295.4723747002248" cy="55.14440549612045" r="0.5" style="fill:none;stroke:white;stroke-width:3"/>
<circle cx="294.0163157606492" cy="54.67276325672865" r="0.5" style="fill:none;stroke:white;stroke-width:3"/>
<circle cx="292.065998281951" cy="52.936262094229455" r="0.5" style="fill:none;stroke:white;stroke-width:3"/>
<circle cx="291.6251730984097" cy="53.129206681251524" r="0.5" style="fill:none;stroke:white;stroke-width:3"/>
<circle cx="292.18622333200744" cy="53.600848994404075" r="0.5" style="fill:none;stroke:white;stroke-width:3"/>
<circle cx="289.9687390754061" cy="54.45838041119277" r="0.5" style="fill:none;stroke:white;stroke-width:3"/>
<circle cx="286.56236265713125" cy="54.865707812458275" r="0.5" style="fill:none;stroke:white;stroke-width:3"/>
<circle cx="284.34487840052986" cy="57.18104217387736" r="0.5" style="fill:none;stroke:white;stroke-width:3"/>
<circle cx="289.9687390754061" cy="55.05865236483514" r="0.5" style="fill:none;stroke:white;stroke-width:3"/>
<circle cx="291.47823137056236" cy="55.44454145953059" r="0.5" style="fill:none;stroke:white;stroke-width:3"/>
<circle cx="284.38495341721483" cy="60.01089454516768" r="0.5" style="fill:none;stroke:white;stroke-width:3"/>
<circle cx="278.013025764208" cy="69.42229159735143" r="0.5" style="fill:none;stroke:white;stroke-width:3"/>
<circle cx="278.1065341364741" cy="66.80682453252375" r="0.5" style="fill:none;stroke:white;stroke-width:3"/>
<circle cx="278.6809427089676" cy="66.48525066487491" r="0.5" style="fill:none;stroke:white;stroke-width:3"/>
<circle cx="278.427134269959" cy="66.91401581615209" r="0.5" style="fill:none;stroke:white;stroke-width:3"/>
<circle cx="278.9481094868719" cy="66.46381240747868" r="0.5" style="fill:none;stroke:white;stroke-width:3"/>
<circle cx="278.8145260979198" cy="65.3061463907361" r="0.5" style="fill:none;stroke:white;stroke-width:3"/>
<circle cx="281.967094077185" cy="61.96177713610231" r="0.5" style="fill:none;stroke:white;stroke-width:3"/>
<circle cx="281.1789520823684" cy="62.47629555724561" r="0.5" style="fill:none;stroke:white;stroke-width:3"/>
<circle cx="283.6235281001891" cy="57.75987567789852" r="0.5" style="fill:none;stroke:white;stroke-width:3"/>
<circle cx="283.36971966118" cy="60.546851339936254" r="0.5" style="fill:none;stroke:white;stroke-width:3"/>
<circle cx="282.68844437752574" cy="58.896104314550755" r="0.5" style="fill:none;stroke:white;stroke-width:3"/>
<circle cx="282.68844437752574" cy="58.59596846178174" r="0.5" style="fill:none;stroke:white;stroke-width:3"/>
<circle cx="282.7552360720021" cy="58.703159837052226" r="0.5" style="fill:none;stroke:white;stroke-width:3"/>
<circle cx="284.1177866393111" cy="58.03857328444719" r="0.5" style="fill:none;stroke:white;stroke-width:3"/>
<circle cx="290.22254751441415" cy="58.03857328444719" r="0.5" style="fill:none;stroke:white;stroke-width:3"/>
<circle cx="292.2930900431693" cy="62.96937568522989" r="0.5" style="fill:none;stroke:white;stroke-width:3"/>
<circle cx="297.83680068467453" cy="72.35933165252209" r="0.5" style="fill:none;stroke:white;stroke-width:3"/>
<circle cx="300.90921863056826" cy="80.42010858356953" r="0.5" style="fill:none;stroke:white;stroke-width:3"/>
<circle cx="307.38801299473687" cy="88.54519350416957" r="0.5" style="fill:none;stroke:white;stroke-width:3"/>
<circle cx="313.57292390321146" cy="95.96281131282448" r="0.5" style="fill:none;stroke:white;stroke-width:3"/>
<circle cx="314.0805407812286" cy="109.64036929607391" r="0.5" style="fill:none;stroke:white;stroke-width:3"/>
<circle cx="315.6033914152811" cy="120.78820805512368" r="0.5" style="fill:none;stroke:white;stroke-width:3"/>
<circle cx="317.0995253715422" cy="133.9083404827863" r="0.5" style="fill:none;stroke:white;stroke-width:3"/>
<circle cx="319.9181348784279" cy="147.19995996952056" r="0.5" style="fill:none;stroke:white;stroke-width:3"/>
<circle cx="320.93336863446274" cy="160.01992424055933" r="0.5" style="fill:none;stroke:white;stroke-width:3"/>
<circle cx="323.3913029911786" cy="169.32403495274482" r="0.5" style="fill:none;stroke:white;stroke-width:3"/>
<circle cx="325.74237063673206" cy="180.0859215594828" r="0.5" style="fill:none;stroke:white;stroke-width:3"/>
<circle cx="326.9446211372997" cy="193.2702884249389" r="0.5" style="fill:none;stroke:white;stroke-width:3"/>
<circle cx="327.29193794857434" cy="206.02587848380207" r="0.5" style="fill:none;stroke:white;stroke-width:3"/>
<circle cx="326.851112765033" cy="218.41700719445944" r="0.5" style="fill:none;stroke:white;stroke-width:3"/>
<circle cx="326.2633458536449" cy="230.63661703169345" r="0.5" style="fill:none;stroke:white;stroke-width:3"/>
<circle cx="325.78244565341754" cy="244.03529448062181" r="0.5" style="fill:none;stroke:white;stroke-width:3"/>
<circle cx="325.26147043650525" cy="255.1186666086316" r="0.5" style="fill:none;stroke:white;stroke-width:3"/>
<circle cx="323.95235322477583" cy="267.2953549772501" r="0.5" style="fill:none;stroke:white;stroke-width:3"/>
<circle cx="321.57456890143203" cy="277.94994486831126" r="0.5" style="fill:none;stroke:white;stroke-width:3"/>
<circle cx="319.74447647279027" cy="289.5477850668132" r="0.5" style="fill:none;stroke:white;stroke-width:3"/>
<circle cx="318.3685675665856" cy="299.3662785887718" r="0.5" style="fill:none;stroke:white;stroke-width:3"/>
<circle cx="315.69689978754724" cy="312.82917509526015" r="0.5" style="fill:none;stroke:white;stroke-width:3"/>
<circle cx="313.67979061437273" cy="325.62748470045625" r="0.5" style="fill:none;stroke:white;stroke-width:3"/>
<circle cx="310.4203559239462" cy="340.5909812327474" r="0.5" style="fill:none;stroke:white;stroke-width:3"/>
<circle cx="308.32309671740023" cy="352.55318693183364" r="0.5" style="fill:none;stroke:white;stroke-width:3"/>
<circle cx="306.8937544556149" cy="362.564555728063" r="0.5" style="fill:none;stroke:white;stroke-width:3"/>
<circle cx="302.3919942479353" cy="375.2127372141927" r="0.5" style="fill:none;stroke:white;stroke-width:3"/>
<circle cx="299.78711816337216" cy="385.524208669737" r="0.5" style="fill:none;stroke:white;stroke-width:3"/>
<circle cx="295.77961649481455" cy="396.60742054916915" r="0.5" style="fill:none;stroke:white;stroke-width:3"/>
<circle cx="291.59845642061936" cy="406.8759944312274" r="0.5" style="fill:none;stroke:white;stroke-width:3"/>
<circle cx="286.61579601271296" cy="420.21011812873184" r="0.5" style="fill:none;stroke:white;stroke-width:3"/>
<circle cx="283.2094195944375" cy="430.37147994227706" r="0.5" style="fill:none;stroke:white;stroke-width:3"/>
<circle cx="278.38705925327355" cy="444.7774431634694" r="0.5" style="fill:none;stroke:white;stroke-width:3"/>
<circle cx="274.55321599035307" cy="457.21114436946806" r="0.5" style="fill:none;stroke:white;stroke-width:3"/>
<circle cx="268.31487172629784" cy="459.6978827163577" r="0.5" style="fill:none;stroke:white;stroke-width:3"/>
<circle cx="271.828114855734" cy="455.5819016654044" r="0.5" style="fill:none;stroke:white;stroke-width:3"/>
<circle cx="271.6143814334109" cy="458.04720302559434" r="0.5" style="fill:none;stroke:white;stroke-width:3"/>
<circle cx="273.4578322009473" cy="454.6386557612568" r="0.5" style="fill:none;stroke:white;stroke-width:3"/>
<circle cx="274.7268743959912" cy="455.64621388055383" r="0.5" style="fill:none;stroke:white;stroke-width:3"/>
<circle cx="276.49017513015605" cy="459.2691347692162" r="0.5" style="fill:none;stroke:white;stroke-width:3"/>
<circle cx="274.24597419576327" cy="454.55290613137186" r="0.5" style="fill:none;stroke:white;stroke-width:3"/>
<circle cx="273.0704403729871" cy="452.3877276733518" r="0.5" style="fill:none;stroke:white;stroke-width:3"/>
<circle cx="273.1639487452532" cy="454.2313450019806" r="0.5" style="fill:none;stroke:white;stroke-width:3"/>
<circle cx="272.5494651560748" cy="454.14559536762533" r="0.5" style="fill:none;stroke:white;stroke-width:3"/>
<circle cx="272.7097652228167" cy="456.1821490075439" r="0.5" style="fill:none;stroke:white;stroke-width:3"/>
<circle cx="273.9120157233838" cy="456.9324581366032" r="0.5" style="fill:none;stroke:white;stroke-width:3"/>
<circle cx="271.34721465550666" cy="452.0876038905233" r="0.5" style="fill:none;stroke:white;stroke-width:3"/>
<circle cx="266.1107458085911" cy="447.542871177569" r="0.5" style="fill:none;stroke:white;stroke-width:3"/>
<circle cx="250.60171435127248" cy="449.68661328479646" r="0.5" style="fill:none;stroke:white;stroke-width:3"/>
<circle cx="248.0369132833959" cy="447.95018221624196" r="0.5" style="fill:none;stroke:white;stroke-width:3"/>
<circle cx="249.41282218960004" cy="448.3574932336807" r="0.5" style="fill:none;stroke:white;stroke-width:3"/>
<circle cx="251.79060651294438" cy="448.44324292279777" r="0.5" style="fill:none;stroke:white;stroke-width:3"/>
<circle cx="255.54429974249396" cy="446.5138747986406" r="0.5" style="fill:none;stroke:white;stroke-width:3"/>
</g>
</svg>
