<?xml version="1.0" encoding="UTF-8" standalone="no"?>
<!DOCTYPE svg PUBLIC "-//W3C//DTD SVG 1.1//EN" "http://www.w3.org/Graphics/SVG/1.1/DTD/svg11.dtd">
<!-- Created with gpx2svg 0.2.0 -->
<svg xmlns="http://www.w3.org/2000/svg" version="1.1" width="1113.883642130565px" height="1015.1331051751971px" viewBox="0 0 1113.883642130565 1015.1331051751971" viewport-fill="black" >
<rect width="100%" height="100%" fill="#3B3434" />
<g>
<circle cx="722.6720525684926" cy="979.1331051751971" r="0.5" style="fill:none;stroke:white;stroke-width:3"/>
<circle cx="713.6551738142367" cy="972.1448863618075" r="0.5" style="fill:none;stroke:white;stroke-width:3"/>
<circle cx="699.6957096687603" cy="971.073073220998" r="0.5" style="fill:none;stroke:white;stroke-width:3"/>
<circle cx="689.5300137695185" cy="968.8651377741247" r="0.5" style="fill:none;stroke:white;stroke-width:3"/>
<circle cx="681.287918671185" cy="965.7783145654946" r="0.5" style="fill:none;stroke:white;stroke-width:3"/>
<circle cx="672.2309649002442" cy="962.3699461475014" r="0.5" style="fill:none;stroke:white;stroke-width:3"/>
<circle cx="662.7198276068673" cy="959.4974837936461" r="0.5" style="fill:none;stroke:white;stroke-width:3"/>
<circle cx="653.2754820079657" cy="956.6893294740468" r="0.5" style="fill:none;stroke:white;stroke-width:3"/>
<circle cx="644.5925617260898" cy="955.2959701728075" r="0.5" style="fill:none;stroke:white;stroke-width:3"/>
<circle cx="633.8390989154605" cy="952.4020694307983" r="0.5" style="fill:none;stroke:white;stroke-width:3"/>
<circle cx="621.8433105875769" cy="947.8575717307626" r="0.5" style="fill:none;stroke:white;stroke-width:3"/>
<circle cx="619.99985982004" cy="946.8715011935681" r="0.5" style="fill:none;stroke:white;stroke-width:3"/>
<circle cx="616.6469167573463" cy="945.2852136064321" r="0.5" style="fill:none;stroke:white;stroke-width:3"/>
<circle cx="605.9602456411922" cy="937.7610622085631" r="0.5" style="fill:none;stroke:white;stroke-width:3"/>
<circle cx="597.2506086815271" cy="928.5219966005534" r="0.5" style="fill:none;stroke:white;stroke-width:3"/>
<circle cx="590.2241224226558" cy="921.4694325249642" r="0.5" style="fill:none;stroke:white;stroke-width:3"/>
<circle cx="585.1880286591671" cy="915.445809944719" r="0.5" style="fill:none;stroke:white;stroke-width:3"/>
<circle cx="578.9897594117984" cy="909.5936748482287" r="0.5" style="fill:none;stroke:white;stroke-width:3"/>
<circle cx="571.1484144803198" cy="901.4049671195447" r="0.5" style="fill:none;stroke:white;stroke-width:3"/>
<circle cx="561.2498853589817" cy="891.7800113137811" r="0.5" style="fill:none;stroke:white;stroke-width:3"/>
<circle cx="553.9562323222073" cy="883.0768137305975" r="0.5" style="fill:none;stroke:white;stroke-width:3"/>
<circle cx="545.4336121070738" cy="871.5868661474436" r="0.5" style="fill:none;stroke:white;stroke-width:3"/>
<circle cx="536.7373334863029" cy="863.098015609011" r="0.5" style="fill:none;stroke:white;stroke-width:3"/>
<circle cx="531.2069811836933" cy="860.2898336347192" r="0.5" style="fill:none;stroke:white;stroke-width:3"/>
<circle cx="522.6042109351889" cy="863.4624361149966" r="0.5" style="fill:none;stroke:white;stroke-width:3"/>
<circle cx="508.1772049283809" cy="880.3115104146301" r="0.5" style="fill:none;stroke:white;stroke-width:3"/>
<circle cx="495.2730495556248" cy="881.9621179115027" r="0.5" style="fill:none;stroke:white;stroke-width:3"/>
<circle cx="484.5596617616798" cy="864.1055310834199" r="0.5" style="fill:none;stroke:white;stroke-width:3"/>
<circle cx="477.59996719728497" cy="853.2157838646323" r="0.5" style="fill:none;stroke:white;stroke-width:3"/>
<circle cx="472.7909651950151" cy="847.3636115558445" r="0.5" style="fill:none;stroke:white;stroke-width:3"/>
<circle cx="469.62503887685415" cy="847.8566518496722" r="0.5" style="fill:none;stroke:white;stroke-width:3"/>
<circle cx="464.0546115575591" cy="846.2703482106327" r="0.5" style="fill:none;stroke:white;stroke-width:3"/>
<circle cx="457.68268390455177" cy="846.720515486598" r="0.5" style="fill:none;stroke:white;stroke-width:3"/>
<circle cx="449.40051378953285" cy="847.4279211591929" r="0.5" style="fill:none;stroke:white;stroke-width:3"/>
<circle cx="440.25005164632586" cy="848.7998592998832" r="0.5" style="fill:none;stroke:white;stroke-width:3"/>
<circle cx="430.0977140859786" cy="849.6358840037137" r="0.5" style="fill:none;stroke:white;stroke-width:3"/>
<circle cx="417.58095054118274" cy="847.1706827379763" r="0.5" style="fill:none;stroke:white;stroke-width:3"/>
<circle cx="408.08317158670104" cy="837.331308023259" r="0.5" style="fill:none;stroke:white;stroke-width:3"/>
<circle cx="400.6559351609745" cy="824.147816593945" r="0.5" style="fill:none;stroke:white;stroke-width:3"/>
<circle cx="393.2687737519323" cy="814.8228973008692" r="0.5" style="fill:none;stroke:white;stroke-width:3"/>
<circle cx="387.51132968810396" cy="806.6769835196435" r="0.5" style="fill:none;stroke:white;stroke-width:3"/>
<circle cx="383.3836029694894" cy="795.8300456900149" r="0.5" style="fill:none;stroke:white;stroke-width:3"/>
<circle cx="384.46562842000054" cy="780.3313369866461" r="0.5" style="fill:none;stroke:white;stroke-width:3"/>
<circle cx="384.5724951311613" cy="768.4339713267982" r="0.5" style="fill:none;stroke:white;stroke-width:3"/>
<circle cx="386.0552707485278" cy="758.3587134249508" r="0.5" style="fill:none;stroke:white;stroke-width:3"/>
<circle cx="385.93504569847136" cy="747.1044237099587" r="0.5" style="fill:none;stroke:white;stroke-width:3"/>
<circle cx="387.80521314379854" cy="736.1287991836667" r="0.5" style="fill:none;stroke:white;stroke-width:3"/>
<circle cx="388.9807469665753" cy="725.0245415277778" r="0.5" style="fill:none;stroke:white;stroke-width:3"/>
<circle cx="390.62382265068425" cy="713.6630293406546" r="0.5" style="fill:none;stroke:white;stroke-width:3"/>
<circle cx="390.94442278416864" cy="702.3229408163577" r="0.5" style="fill:none;stroke:white;stroke-width:3"/>
<circle cx="391.27838125654813" cy="694.412738962099" r="0.5" style="fill:none;stroke:white;stroke-width:3"/>
<circle cx="389.40821381122095" cy="682.9654436577111" r="0.5" style="fill:none;stroke:white;stroke-width:3"/>
<circle cx="383.75763645855494" cy="668.3669071868062" r="0.5" style="fill:none;stroke:white;stroke-width:3"/>
<circle cx="381.24626874625847" cy="660.8639798238873" r="0.5" style="fill:none;stroke:white;stroke-width:3"/>
<circle cx="376.4907000995703" cy="649.9311325035989" r="0.5" style="fill:none;stroke:white;stroke-width:3"/>
<circle cx="371.33438128602575" cy="638.1407932810486" r="0.5" style="fill:none;stroke:white;stroke-width:3"/>
<circle cx="367.44710466752457" cy="630.2519765518606" r="0.5" style="fill:none;stroke:white;stroke-width:3"/>
<circle cx="353.94182404448475" cy="634.5608147408813" r="0.5" style="fill:none;stroke:white;stroke-width:3"/>
<circle cx="342.3735025612479" cy="638.0764823008328" r="0.5" style="fill:none;stroke:white;stroke-width:3"/>
<circle cx="341.5720022275362" cy="636.8974475875497" r="0.5" style="fill:none;stroke:white;stroke-width:3"/>
<circle cx="340.4632600992347" cy="633.9820156887173" r="0.5" style="fill:none;stroke:white;stroke-width:3"/>
<circle cx="337.16375039212215" cy="625.9216994583606" r="0.5" style="fill:none;stroke:white;stroke-width:3"/>
<circle cx="327.6392547598496" cy="620.5838799957186" r="0.5" style="fill:none;stroke:white;stroke-width:3"/>
<circle cx="316.6319835102116" cy="623.4993158865719" r="0.5" style="fill:none;stroke:white;stroke-width:3"/>
<circle cx="307.38801299473795" cy="627.4222907502204" r="0.5" style="fill:none;stroke:white;stroke-width:3"/>
<circle cx="296.51432513405103" cy="630.144791502133" r="0.5" style="fill:none;stroke:white;stroke-width:3"/>
<circle cx="286.7760960794549" cy="633.1888465672731" r="0.5" style="fill:none;stroke:white;stroke-width:3"/>
<circle cx="278.05310078089406" cy="636.1042787030339" r="0.5" style="fill:none;stroke:white;stroke-width:3"/>
<circle cx="268.47517179304083" cy="640.348803340271" r="0.5" style="fill:none;stroke:white;stroke-width:3"/>
<circle cx="258.29611755490384" cy="643.3071073058992" r="0.5" style="fill:none;stroke:white;stroke-width:3"/>
<circle cx="251.00246451812944" cy="644.8720068667084" r="0.5" style="fill:none;stroke:white;stroke-width:3"/>
<circle cx="240.4360184520312" cy="646.9085196185857" r="0.5" style="fill:none;stroke:white;stroke-width:3"/>
<circle cx="231.08518122539624" cy="647.2300742290914" r="0.5" style="fill:none;stroke:white;stroke-width:3"/>
<circle cx="220.03783495907172" cy="649.3737713333219" r="0.5" style="fill:none;stroke:white;stroke-width:3"/>
<circle cx="208.60309686478703" cy="652.610753076151" r="0.5" style="fill:none;stroke:white;stroke-width:3"/>
<circle cx="196.80768362033086" cy="656.4050945475698" r="0.5" style="fill:none;stroke:white;stroke-width:3"/>
<circle cx="185.6401123039499" cy="660.3066192705184" r="0.5" style="fill:none;stroke:white;stroke-width:3"/>
<circle cx="173.6443239760669" cy="664.8726874418556" r="0.5" style="fill:none;stroke:white;stroke-width:3"/>
<circle cx="160.68673524772967" cy="668.7742087896913" r="0.5" style="fill:none;stroke:white;stroke-width:3"/>
<circle cx="149.10505542559767" cy="672.3756117302925" r="0.5" style="fill:none;stroke:white;stroke-width:3"/>
<circle cx="140.9030353439497" cy="669.0528888311237" r="0.5" style="fill:none;stroke:white;stroke-width:3"/>
<circle cx="141.30378551080503" cy="668.3883441142738" r="0.5" style="fill:none;stroke:white;stroke-width:3"/>
<circle cx="138.40502597054837" cy="658.7202852264046" r="0.5" style="fill:none;stroke:white;stroke-width:3"/>
<circle cx="137.04247540323885" cy="647.7874355211853" r="0.5" style="fill:none;stroke:white;stroke-width:3"/>
<circle cx="135.0921579245407" cy="638.0550453085452" r="0.5" style="fill:none;stroke:white;stroke-width:3"/>
<circle cx="133.23534881810863" cy="637.2190025232732" r="0.5" style="fill:none;stroke:white;stroke-width:3"/>
<circle cx="133.60938230717474" cy="633.5961496397853" r="0.5" style="fill:none;stroke:white;stroke-width:3"/>
<circle cx="132.46056516218778" cy="624.2281747229397" r="0.5" style="fill:none;stroke:white;stroke-width:3"/>
<circle cx="131.2850313394105" cy="615.4604280598461" r="0.5" style="fill:none;stroke:white;stroke-width:3"/>
<circle cx="129.57516396082627" cy="607.6787783581764" r="0.5" style="fill:none;stroke:white;stroke-width:3"/>
<circle cx="128.66679691595272" cy="599.0396393436938" r="0.5" style="fill:none;stroke:white;stroke-width:3"/>
<circle cx="126.98364621515829" cy="589.8860023397953" r="0.5" style="fill:none;stroke:white;stroke-width:3"/>
<circle cx="125.0466870753553" cy="586.1773835007101" r="0.5" style="fill:none;stroke:white;stroke-width:3"/>
<circle cx="123.24331132450497" cy="577.1309201024472" r="0.5" style="fill:none;stroke:white;stroke-width:3"/>
<circle cx="121.1326937790638" cy="565.6406132999807" r="0.5" style="fill:none;stroke:white;stroke-width:3"/>
<circle cx="116.44391682685199" cy="559.8097061812878" r="0.5" style="fill:none;stroke:white;stroke-width:3"/>
<circle cx="116.3504084545848" cy="560.6886299002915" r="0.5" style="fill:none;stroke:white;stroke-width:3"/>
<circle cx="116.81795031591591" cy="559.9168920021503" r="0.5" style="fill:none;stroke:white;stroke-width:3"/>
<circle cx="114.96114120948495" cy="548.0192583795637" r="0.5" style="fill:none;stroke:white;stroke-width:3"/>
<circle cx="112.40969848050354" cy="536.871912837401" r="0.5" style="fill:none;stroke:white;stroke-width:3"/>
<circle cx="110.29908093506292" cy="525.9174897652119" r="0.5" style="fill:none;stroke:white;stroke-width:3"/>
<circle cx="107.41367973370087" cy="514.7486817900091" r="0.5" style="fill:none;stroke:white;stroke-width:3"/>
<circle cx="103.37946138735242" cy="503.92285767160354" r="0.5" style="fill:none;stroke:white;stroke-width:3"/>
<circle cx="98.74411779072125" cy="491.76790820248425" r="0.5" style="fill:none;stroke:white;stroke-width:3"/>
<circle cx="95.27094967797056" cy="481.64949077703056" r="0.5" style="fill:none;stroke:white;stroke-width:3"/>
<circle cx="93.13361545474017" cy="471.01656627841294" r="0.5" style="fill:none;stroke:white;stroke-width:3"/>
<circle cx="92.46569850998003" cy="459.6547591924667" r="0.5" style="fill:none;stroke:white;stroke-width:3"/>
<circle cx="90.74247279249957" cy="449.2147474642843" r="0.5" style="fill:none;stroke:white;stroke-width:3"/>
<circle cx="87.5097547798634" cy="441.00421706624326" r="0.5" style="fill:none;stroke:white;stroke-width:3"/>
<circle cx="83.92971995595198" cy="432.7079300064593" r="0.5" style="fill:none;stroke:white;stroke-width:3"/>
<circle cx="84.73122028966317" cy="420.12414267696437" r="0.5" style="fill:none;stroke:white;stroke-width:3"/>
<circle cx="81.76566905493073" cy="408.63365152291954" r="0.5" style="fill:none;stroke:white;stroke-width:3"/>
<circle cx="77.67801735300164" cy="397.78627249337734" r="0.5" style="fill:none;stroke:white;stroke-width:3"/>
<circle cx="75.6341915020379" cy="386.78881863467393" r="0.5" style="fill:none;stroke:white;stroke-width:3"/>
<circle cx="75.16664964070515" cy="375.6412894371897" r="0.5" style="fill:none;stroke:white;stroke-width:3"/>
<circle cx="74.79261615163959" cy="366.3588179346174" r="0.5" style="fill:none;stroke:white;stroke-width:3"/>
<circle cx="74.39186598478427" cy="355.46851681955155" r="0.5" style="fill:none;stroke:white;stroke-width:3"/>
<circle cx="72.81558199515166" cy="343.6992604549974" r="0.5" style="fill:none;stroke:white;stroke-width:3"/>
<circle cx="71.54653980010771" cy="335.44576621502637" r="0.5" style="fill:none;stroke:white;stroke-width:3"/>
<circle cx="70.61145607744493" cy="326.39907103031874" r="0.5" style="fill:none;stroke:white;stroke-width:3"/>
<circle cx="71.8404232558023" cy="328.0068966127932" r="0.5" style="fill:none;stroke:white;stroke-width:3"/>
<circle cx="70.43779767180676" cy="319.539012228325" r="0.5" style="fill:none;stroke:white;stroke-width:3"/>
<circle cx="66.96462955905717" cy="305.5830652736127" r="0.5" style="fill:none;stroke:white;stroke-width:3"/>
<circle cx="61.94189413446475" cy="289.52619844302535" r="0.5" style="fill:none;stroke:white;stroke-width:3"/>
<circle cx="60.39232682262245" cy="278.2713695459068" r="0.5" style="fill:none;stroke:white;stroke-width:3"/>
<circle cx="57.46685060457494" cy="270.6395162992179" r="0.5" style="fill:none;stroke:white;stroke-width:3"/>
<circle cx="56.732141965339544" cy="262.5360251549631" r="0.5" style="fill:none;stroke:white;stroke-width:3"/>
<circle cx="53.33912388596036" cy="252.50312205813825" r="0.5" style="fill:none;stroke:white;stroke-width:3"/>
<circle cx="49.117888795079125" cy="239.79047580063343" r="0.5" style="fill:none;stroke:white;stroke-width:3"/>
<circle cx="47.22100467196269" cy="230.01480404175817" r="0.5" style="fill:none;stroke:white;stroke-width:3"/>
<circle cx="47.64847151660833" cy="221.39676952064036" r="0.5" style="fill:none;stroke:white;stroke-width:3"/>
<circle cx="49.665580689782836" cy="222.21140992417932" r="0.5" style="fill:none;stroke:white;stroke-width:3"/>
<circle cx="50.801039495873006" cy="223.0689260624349" r="0.5" style="fill:none;stroke:white;stroke-width:3"/>
<circle cx="51.24186467941545" cy="222.51154058016837" r="0.5" style="fill:none;stroke:white;stroke-width:3"/>
<circle cx="52.44411517998251" cy="225.85585300438106" r="0.5" style="fill:none;stroke:white;stroke-width:3"/>
<circle cx="52.6444902634099" cy="225.77010141983627" r="0.5" style="fill:none;stroke:white;stroke-width:3"/>
<circle cx="52.697923618991624" cy="225.70578772500156" r="0.5" style="fill:none;stroke:white;stroke-width:3"/>
<circle cx="52.75135697457171" cy="225.6629119377583" r="0.5" style="fill:none;stroke:white;stroke-width:3"/>
<circle cx="52.76471531346742" cy="225.6200361393392" r="0.5" style="fill:none;stroke:white;stroke-width:3"/>
<circle cx="53.23225717479909" cy="225.70578772500156" r="0.5" style="fill:none;stroke:white;stroke-width:3"/>
<circle cx="53.43263225822593" cy="225.4270950693637" r="0.5" style="fill:none;stroke:white;stroke-width:3"/>
<circle cx="55.823774920466526" cy="226.32748671546577" r="0.5" style="fill:none;stroke:white;stroke-width:3"/>
<circle cx="57.52028396015612" cy="228.29977289959788" r="0.5" style="fill:none;stroke:white;stroke-width:3"/>
<circle cx="61.98196915114968" cy="231.02238469719885" r="0.5" style="fill:none;stroke:white;stroke-width:3"/>
<circle cx="69.04853042670693" cy="229.73611149676142" r="0.5" style="fill:none;stroke:white;stroke-width:3"/>
<circle cx="71.01220624430024" cy="231.60120757743715" r="0.5" style="fill:none;stroke:white;stroke-width:3"/>
<circle cx="75.64754984093197" cy="228.514151808992" r="0.5" style="fill:none;stroke:white;stroke-width:3"/>
<circle cx="67.8195632483501" cy="228.44983813874424" r="0.5" style="fill:none;stroke:white;stroke-width:3"/>
<circle cx="66.21656258092662" cy="228.36408657208085" r="0.5" style="fill:none;stroke:white;stroke-width:3"/>
<circle cx="70.06376418274176" cy="228.02108031101525" r="0.5" style="fill:none;stroke:white;stroke-width:3"/>
<circle cx="79.94893496518416" cy="225.7272256258875" r="0.5" style="fill:none;stroke:white;stroke-width:3"/>
<circle cx="89.79403073094163" cy="224.11938323937355" r="0.5" style="fill:none;stroke:white;stroke-width:3"/>
<circle cx="92.66607359340796" cy="222.81167123392223" r="0.5" style="fill:none;stroke:white;stroke-width:3"/>
<circle cx="96.5934252285946" cy="224.52670333273707" r="0.5" style="fill:none;stroke:white;stroke-width:3"/>
<circle cx="95.71177486151191" cy="223.3261808965355" r="0.5" style="fill:none;stroke:white;stroke-width:3"/>
<circle cx="88.76543863601218" cy="219.63886105008422" r="0.5" style="fill:none;stroke:white;stroke-width:3"/>
<circle cx="81.67216068266407" cy="215.41559184528887" r="0.5" style="fill:none;stroke:white;stroke-width:3"/>
<circle cx="77.07689210271782" cy="208.70552078783513" r="0.5" style="fill:none;stroke:white;stroke-width:3"/>
<circle cx="77.75816738637313" cy="205.16826102733611" r="0.5" style="fill:none;stroke:white;stroke-width:3"/>
<circle cx="78.05205084206773" cy="198.95125593021513" r="0.5" style="fill:none;stroke:white;stroke-width:3"/>
<circle cx="82.39351098300484" cy="190.2903181001544" r="0.5" style="fill:none;stroke:white;stroke-width:3"/>
<circle cx="84.303753445017" cy="189.9473105058074" r="0.5" style="fill:none;stroke:white;stroke-width:3"/>
<circle cx="83.39538640014452" cy="191.0406471747905" r="0.5" style="fill:none;stroke:white;stroke-width:3"/>
<circle cx="83.80949490589445" cy="191.61947242654858" r="0.5" style="fill:none;stroke:white;stroke-width:3"/>
<circle cx="89.9810474754744" cy="191.87672808095812" r="0.5" style="fill:none;stroke:white;stroke-width:3"/>
<circle cx="90.2615725922733" cy="193.48457576707006" r="0.5" style="fill:none;stroke:white;stroke-width:3"/>
<circle cx="90.30164760895931" cy="193.50601373389364" r="0.5" style="fill:none;stroke:white;stroke-width:3"/>
<circle cx="90.47530601459638" cy="193.35594795942305" r="0.5" style="fill:none;stroke:white;stroke-width:3"/>
<circle cx="90.47530601459638" cy="193.35594795942305" r="0.5" style="fill:none;stroke:white;stroke-width:3"/>
<circle cx="90.39515598122543" cy="193.20588218718765" r="0.5" style="fill:none;stroke:white;stroke-width:3"/>
<circle cx="90.22149757558782" cy="193.14156827777623" r="0.5" style="fill:none;stroke:white;stroke-width:3"/>
<circle cx="90.07455584773997" cy="193.698955437541" r="0.5" style="fill:none;stroke:white;stroke-width:3"/>
<circle cx="89.70052235867605" cy="193.6560795005411" r="0.5" style="fill:none;stroke:white;stroke-width:3"/>
<circle cx="89.50014727524703" cy="194.2134666312486" r="0.5" style="fill:none;stroke:white;stroke-width:3"/>
<circle cx="90.00776415326472" cy="193.72039340548216" r="0.5" style="fill:none;stroke:white;stroke-width:3"/>
<circle cx="90.0478391699502" cy="193.6560795005411" r="0.5" style="fill:none;stroke:white;stroke-width:3"/>
<circle cx="90.07455584773997" cy="193.698955437541" r="0.5" style="fill:none;stroke:white;stroke-width:3"/>
<circle cx="89.92761411989432" cy="194.19202866107224" r="0.5" style="fill:none;stroke:white;stroke-width:3"/>
<circle cx="89.09939710839171" cy="194.17059069536626" r="0.5" style="fill:none;stroke:white;stroke-width:3"/>
<circle cx="89.48678893635187" cy="194.0848388336599" r="0.5" style="fill:none;stroke:white;stroke-width:3"/>
<circle cx="94.10877419408844" cy="205.08250926174222" r="0.5" style="fill:none;stroke:white;stroke-width:3"/>
<circle cx="83.92971995595198" cy="211.10656910464166" r="0.5" style="fill:none;stroke:white;stroke-width:3"/>
<circle cx="75.48724977419006" cy="212.1355896335095" r="0.5" style="fill:none;stroke:white;stroke-width:3"/>
<circle cx="70.49123102738794" cy="213.679120227322" r="0.5" style="fill:none;stroke:white;stroke-width:3"/>
<circle cx="71.09235627767175" cy="211.985524148494" r="0.5" style="fill:none;stroke:white;stroke-width:3"/>
<circle cx="73.32319887316825" cy="210.2490519158542" r="0.5" style="fill:none;stroke:white;stroke-width:3"/>
<circle cx="72.72207362288499" cy="210.3776794977486" r="0.5" style="fill:none;stroke:white;stroke-width:3"/>
<circle cx="76.4356918357491" cy="210.05611053854227" r="0.5" style="fill:none;stroke:white;stroke-width:3"/>
<circle cx="76.42233349685394" cy="210.12042432948945" r="0.5" style="fill:none;stroke:white;stroke-width:3"/>
<circle cx="75.27351635186696" cy="210.9350656773895" r="0.5" style="fill:none;stroke:white;stroke-width:3"/>
<circle cx="75.05978292954387" cy="211.04225531928242" r="0.5" style="fill:none;stroke:white;stroke-width:3"/>
<circle cx="76.66278359696734" cy="210.9350656773895" r="0.5" style="fill:none;stroke:white;stroke-width:3"/>
<circle cx="75.94143329662711" cy="209.60591397844254" r="0.5" style="fill:none;stroke:white;stroke-width:3"/>
<circle cx="75.54068312977124" cy="208.1052586108446" r="0.5" style="fill:none;stroke:white;stroke-width:3"/>
<circle cx="74.57888272931704" cy="204.46080892011523" r="0.5" style="fill:none;stroke:white;stroke-width:3"/>
<circle cx="75.22008299628578" cy="205.14682308621704" r="0.5" style="fill:none;stroke:white;stroke-width:3"/>
<circle cx="71.43967308894644" cy="206.62604096420108" r="0.5" style="fill:none;stroke:white;stroke-width:3"/>
<circle cx="76.68950027475766" cy="205.6613336764276" r="0.5" style="fill:none;stroke:white;stroke-width:3"/>
<circle cx="76.84980034149957" cy="205.59701985642315" r="0.5" style="fill:none;stroke:white;stroke-width:3"/>
<circle cx="77.37077555841188" cy="205.55414396859706" r="0.5" style="fill:none;stroke:white;stroke-width:3"/>
<circle cx="77.02345874713774" cy="205.9185889620334" r="0.5" style="fill:none;stroke:white;stroke-width:3"/>
<circle cx="76.54255854690982" cy="205.8328371975571" r="0.5" style="fill:none;stroke:white;stroke-width:3"/>
<circle cx="77.49100060846885" cy="205.08250926174222" r="0.5" style="fill:none;stroke:white;stroke-width:3"/>
<circle cx="77.67801735300164" cy="205.0396333783865" r="0.5" style="fill:none;stroke:white;stroke-width:3"/>
<circle cx="77.74480904747797" cy="205.12538514398037" r="0.5" style="fill:none;stroke:white;stroke-width:3"/>
<circle cx="77.77152572526829" cy="205.14682308621704" r="0.5" style="fill:none;stroke:white;stroke-width:3"/>
<circle cx="77.81160074195431" cy="205.2754507340491" r="0.5" style="fill:none;stroke:white;stroke-width:3"/>
<circle cx="77.85167575863979" cy="205.38264043852686" r="0.5" style="fill:none;stroke:white;stroke-width:3"/>
<circle cx="82.42022766079516" cy="209.28434498906134" r="0.5" style="fill:none;stroke:white;stroke-width:3"/>
<circle cx="81.73895237714041" cy="211.40670010261238" r="0.5" style="fill:none;stroke:white;stroke-width:3"/>
<circle cx="80.65692692662978" cy="212.88591703400016" r="0.5" style="fill:none;stroke:white;stroke-width:3"/>
<circle cx="78.94705954804557" cy="213.46474098712204" r="0.5" style="fill:none;stroke:white;stroke-width:3"/>
<circle cx="76.76965030812862" cy="213.872061528638" r="0.5" style="fill:none;stroke:white;stroke-width:3"/>
<circle cx="75.6074748242465" cy="212.88591703400016" r="0.5" style="fill:none;stroke:white;stroke-width:3"/>
<circle cx="78.15891755322845" cy="208.57689317911863" r="0.5" style="fill:none;stroke:white;stroke-width:3"/>
<circle cx="78.31921761997091" cy="207.89087926000357" r="0.5" style="fill:none;stroke:white;stroke-width:3"/>
<circle cx="79.01385124252083" cy="207.7193757712841" r="0.5" style="fill:none;stroke:white;stroke-width:3"/>
<circle cx="81.48514393813184" cy="209.64878984168172" r="0.5" style="fill:none;stroke:white;stroke-width:3"/>
<circle cx="81.83246074940708" cy="209.77741743028164" r="0.5" style="fill:none;stroke:white;stroke-width:3"/>
<circle cx="82.7007527775946" cy="209.6916657049209" r="0.5" style="fill:none;stroke:white;stroke-width:3"/>
<circle cx="82.82097782765103" cy="209.6916657049209" r="0.5" style="fill:none;stroke:white;stroke-width:3"/>
<circle cx="82.42022766079516" cy="209.62735191062092" r="0.5" style="fill:none;stroke:white;stroke-width:3"/>
<circle cx="82.1129858662065" cy="209.71310363598167" r="0.5" style="fill:none;stroke:white;stroke-width:3"/>
<circle cx="81.33820221028454" cy="209.54160017743706" r="0.5" style="fill:none;stroke:white;stroke-width:3"/>
<circle cx="81.2847688547039" cy="209.4772863831371" r="0.5" style="fill:none;stroke:white;stroke-width:3"/>
<circle cx="81.12446878796199" cy="209.64878984168172" r="0.5" style="fill:none;stroke:white;stroke-width:3"/>
<circle cx="79.14743463147242" cy="207.35493084490298" r="0.5" style="fill:none;stroke:white;stroke-width:3"/>
<circle cx="79.04056792031115" cy="207.31205497048794" r="0.5" style="fill:none;stroke:white;stroke-width:3"/>
<circle cx="79.01385124252083" cy="207.31205497048794" r="0.5" style="fill:none;stroke:white;stroke-width:3"/>
<circle cx="79.01385124252083" cy="207.2906170349568" r="0.5" style="fill:none;stroke:white;stroke-width:3"/>
<circle cx="75.23344133518148" cy="206.75466859191656" r="0.5" style="fill:none;stroke:white;stroke-width:3"/>
<circle cx="71.22593966662335" cy="203.9891741551459" r="0.5" style="fill:none;stroke:white;stroke-width:3"/>
<circle cx="68.15352172072907" cy="205.6613336764276" r="0.5" style="fill:none;stroke:white;stroke-width:3"/>
<circle cx="63.665119851944105" cy="207.35493084490298" r="0.5" style="fill:none;stroke:white;stroke-width:3"/>
<circle cx="61.31405220639007" cy="203.15309428945184" r="0.5" style="fill:none;stroke:white;stroke-width:3"/>
<circle cx="60.419043500413316" cy="196.50732870474457" r="0.5" style="fill:none;stroke:white;stroke-width:3"/>
<circle cx="62.36936097911093" cy="191.8338521350175" r="0.5" style="fill:none;stroke:white;stroke-width:3"/>
<circle cx="70.74503946639652" cy="185.65971453487873" r="0.5" style="fill:none;stroke:white;stroke-width:3"/>
<circle cx="74.64567442379338" cy="178.60661508142948" r="0.5" style="fill:none;stroke:white;stroke-width:3"/>
<circle cx="79.41460140937615" cy="174.55483224280178" r="0.5" style="fill:none;stroke:white;stroke-width:3"/>
<circle cx="81.73895237714041" cy="164.84340940006078" r="0.5" style="fill:none;stroke:white;stroke-width:3"/>
<circle cx="80.97752706011416" cy="163.64287963472307" r="0.5" style="fill:none;stroke:white;stroke-width:3"/>
<circle cx="80.93745204342922" cy="163.62144160307943" r="0.5" style="fill:none;stroke:white;stroke-width:3"/>
<circle cx="79.22758466484392" cy="163.36418520659208" r="0.5" style="fill:none;stroke:white;stroke-width:3"/>
<circle cx="79.56154313722399" cy="167.11584033183752" r="0.5" style="fill:none;stroke:white;stroke-width:3"/>
<circle cx="78.88026785356924" cy="176.50569085143505" r="0.5" style="fill:none;stroke:white;stroke-width:3"/>
<circle cx="74.51209103484071" cy="184.99513698779046" r="0.5" style="fill:none;stroke:white;stroke-width:3"/>
<circle cx="73.18961548421666" cy="193.37738592624663" r="0.5" style="fill:none;stroke:white;stroke-width:3"/>
<circle cx="75.96814997441743" cy="199.35857707187532" r="0.5" style="fill:none;stroke:white;stroke-width:3"/>
<circle cx="76.70285861365228" cy="207.97663100212813" r="0.5" style="fill:none;stroke:white;stroke-width:3"/>
<circle cx="65.92267912523202" cy="219.08147537112237" r="0.5" style="fill:none;stroke:white;stroke-width:3"/>
<circle cx="64.86737035251225" cy="227.442257219553" r="0.5" style="fill:none;stroke:white;stroke-width:3"/>
<circle cx="63.077352940555464" cy="233.76643360890446" r="0.5" style="fill:none;stroke:white;stroke-width:3"/>
<circle cx="61.3541272230761" cy="232.67310171313582" r="0.5" style="fill:none;stroke:white;stroke-width:3"/>
<circle cx="57.01266708213843" cy="230.72225429601966" r="0.5" style="fill:none;stroke:white;stroke-width:3"/>
<circle cx="57.961109143696376" cy="225.70578772500156" r="0.5" style="fill:none;stroke:white;stroke-width:3"/>
<circle cx="55.77034156488535" cy="219.9604296952486" r="0.5" style="fill:none;stroke:white;stroke-width:3"/>
<circle cx="49.3850555729834" cy="210.3562415678054" r="0.5" style="fill:none;stroke:white;stroke-width:3"/>
<circle cx="45.4443455989016" cy="197.85792013965548" r="0.5" style="fill:none;stroke:white;stroke-width:3"/>
<circle cx="43.72111988142223" cy="186.53867185860872" r="0.5" style="fill:none;stroke:white;stroke-width:3"/>
<circle cx="42.06468585841812" cy="176.07693074941633" r="0.5" style="fill:none;stroke:white;stroke-width:3"/>
<circle cx="39.11249296258029" cy="164.3074586313218" r="0.5" style="fill:none;stroke:white;stroke-width:3"/>
<circle cx="37.60300066742347" cy="155.38923353813587" r="0.5" style="fill:none;stroke:white;stroke-width:3"/>
<circle cx="36.0" cy="143.1695369169116" r="0.5" style="fill:none;stroke:white;stroke-width:3"/>
<circle cx="36.841575350397214" cy="136.50229249857367" r="0.5" style="fill:none;stroke:white;stroke-width:3"/>
<circle cx="41.66393569156225" cy="131.93597778640688" r="0.5" style="fill:none;stroke:white;stroke-width:3"/>
<circle cx="55.957358309418666" cy="129.47059572301805" r="0.5" style="fill:none;stroke:white;stroke-width:3"/>
<circle cx="66.57723773109646" cy="126.61932698562741" r="0.5" style="fill:none;stroke:white;stroke-width:3"/>
<circle cx="76.88987535818559" cy="125.33304006904363" r="0.5" style="fill:none;stroke:white;stroke-width:3"/>
<circle cx="89.56693896972338" cy="123.63942870162427" r="0.5" style="fill:none;stroke:white;stroke-width:3"/>
<circle cx="100.54749354157211" cy="123.46792373880743" r="0.5" style="fill:none;stroke:white;stroke-width:3"/>
<circle cx="111.90208160248476" cy="122.58896074332296" r="0.5" style="fill:none;stroke:white;stroke-width:3"/>
<circle cx="123.31010301898077" cy="119.84488065652549" r="0.5" style="fill:none;stroke:white;stroke-width:3"/>
<circle cx="135.63984981924386" cy="116.73635149151086" r="0.5" style="fill:none;stroke:white;stroke-width:3"/>
<circle cx="147.0077962190522" cy="112.47016158923506" r="0.5" style="fill:none;stroke:white;stroke-width:3"/>
<circle cx="156.69259191806722" cy="110.39066131599247" r="0.5" style="fill:none;stroke:white;stroke-width:3"/>
<circle cx="166.65791273388166" cy="110.4120994694531" r="0.5" style="fill:none;stroke:white;stroke-width:3"/>
<circle cx="175.83509155487846" cy="107.66801596172154" r="0.5" style="fill:none;stroke:white;stroke-width:3"/>
<circle cx="184.69167024239087" cy="105.33125673830509" r="0.5" style="fill:none;stroke:white;stroke-width:3"/>
<circle cx="197.0347753815491" cy="103.48757476173341" r="0.5" style="fill:none;stroke:white;stroke-width:3"/>
<circle cx="206.75964609725014" cy="101.19369088411331" r="0.5" style="fill:none;stroke:white;stroke-width:3"/>
<circle cx="218.10087581926874" cy="99.50007534250616" r="0.5" style="fill:none;stroke:white;stroke-width:3"/>
<circle cx="230.13673916383777" cy="99.17850273437797" r="0.5" style="fill:none;stroke:white;stroke-width:3"/>
<circle cx="242.6000693530519" cy="99.30713177919388" r="0.5" style="fill:none;stroke:white;stroke-width:3"/>
<circle cx="252.36501508543788" cy="96.8631796684116" r="0.5" style="fill:none;stroke:white;stroke-width:3"/>
<circle cx="259.8189681889558" cy="92.36116103120148" r="0.5" style="fill:none;stroke:white;stroke-width:3"/>
<circle cx="271.1468395720793" cy="85.11505048200488" r="0.5" style="fill:none;stroke:white;stroke-width:3"/>
<circle cx="281.7266439770727" cy="77.01140570752322" r="0.5" style="fill:none;stroke:white;stroke-width:3"/>
<circle cx="288.61954684699174" cy="69.4865866921842" r="0.5" style="fill:none;stroke:white;stroke-width:3"/>
<circle cx="293.16138207135737" cy="64.94167896173894" r="0.5" style="fill:none;stroke:white;stroke-width:3"/>
<circle cx="302.49886095909767" cy="56.32349906489253" r="0.5" style="fill:none;stroke:white;stroke-width:3"/>
<circle cx="315.7369748042327" cy="49.67763376235962" r="0.5" style="fill:none;stroke:white;stroke-width:3"/>
<circle cx="330.84525609469654" cy="45.66867412179708" r="0.5" style="fill:none;stroke:white;stroke-width:3"/>
<circle cx="342.90783611705535" cy="45.19703170247376" r="0.5" style="fill:none;stroke:white;stroke-width:3"/>
<circle cx="356.29289169003874" cy="43.91073407828808" r="0.5" style="fill:none;stroke:white;stroke-width:3"/>
<circle cx="369.89168068534474" cy="42.860257563740014" r="0.5" style="fill:none;stroke:white;stroke-width:3"/>
<circle cx="384.0915949309345" cy="41.31670003049076" r="0.5" style="fill:none;stroke:white;stroke-width:3"/>
<circle cx="397.39650047054636" cy="40.18047002591192" r="0.5" style="fill:none;stroke:white;stroke-width:3"/>
<circle cx="411.72999810508827" cy="38.25102253966033" r="0.5" style="fill:none;stroke:white;stroke-width:3"/>
<circle cx="425.08833700028134" cy="37.47924344167113" r="0.5" style="fill:none;stroke:white;stroke-width:3"/>
<circle cx="437.3245754282778" cy="36.0" r="0.5" style="fill:none;stroke:white;stroke-width:3"/>
<circle cx="452.5664401076932" cy="36.02143831215799" r="0.5" style="fill:none;stroke:white;stroke-width:3"/>
<circle cx="466.15187076410456" cy="38.12239269800484" r="0.5" style="fill:none;stroke:white;stroke-width:3"/>
<circle cx="479.8040931149917" cy="40.373414754867554" r="0.5" style="fill:none;stroke:white;stroke-width:3"/>
<circle cx="493.4162404491928" cy="41.40245323106647" r="0.5" style="fill:none;stroke:white;stroke-width:3"/>
<circle cx="510.3546141682973" cy="43.417653276398774" r="0.5" style="fill:none;stroke:white;stroke-width:3"/>
<circle cx="526.1040957257298" cy="46.20463138706982" r="0.5" style="fill:none;stroke:white;stroke-width:3"/>
<circle cx="538.9281010651144" cy="49.54900406487286" r="0.5" style="fill:none;stroke:white;stroke-width:3"/>
<circle cx="552.166214910251" cy="52.91481387354433" r="0.5" style="fill:none;stroke:white;stroke-width:3"/>
<circle cx="564.6562617772566" cy="56.130554645508525" r="0.5" style="fill:none;stroke:white;stroke-width:3"/>
<circle cx="576.7455584774058" cy="58.08143686875701" r="0.5" style="fill:none;stroke:white;stroke-width:3"/>
<circle cx="589.9970306614375" cy="61.61874979734421" r="0.5" style="fill:none;stroke:white;stroke-width:3"/>
<circle cx="601.99281898932" cy="63.633945679664606" r="0.5" style="fill:none;stroke:white;stroke-width:3"/>
<circle cx="613.9752489783084" cy="66.52810925804079" r="0.5" style="fill:none;stroke:white;stroke-width:3"/>
<circle cx="629.1236052854562" cy="70.4084309298545" r="0.5" style="fill:none;stroke:white;stroke-width:3"/>
<circle cx="646.3024291046746" cy="73.96717763096093" r="0.5" style="fill:none;stroke:white;stroke-width:3"/>
<circle cx="661.1969769728154" cy="77.22578793168067" r="0.5" style="fill:none;stroke:white;stroke-width:3"/>
<circle cx="675.4636829128804" cy="78.40489007122814" r="0.5" style="fill:none;stroke:white;stroke-width:3"/>
<circle cx="688.7552301135976" cy="80.29145321063697" r="0.5" style="fill:none;stroke:white;stroke-width:3"/>
<circle cx="702.3273024311133" cy="81.51343141235411" r="0.5" style="fill:none;stroke:white;stroke-width:3"/>
<circle cx="713.7353238476077" cy="83.35711753070355" r="0.5" style="fill:none;stroke:white;stroke-width:3"/>
<circle cx="727.240604470648" cy="84.25752225592733" r="0.5" style="fill:none;stroke:white;stroke-width:3"/>
<circle cx="742.8698609780241" cy="87.40893813036382" r="0.5" style="fill:none;stroke:white;stroke-width:3"/>
<circle cx="752.7416734215709" cy="89.05967937111855" r="0.5" style="fill:none;stroke:white;stroke-width:3"/>
<circle cx="765.6324704554323" cy="90.90336407348514" r="0.5" style="fill:none;stroke:white;stroke-width:3"/>
<circle cx="776.452724960538" cy="92.10390275493263" r="0.5" style="fill:none;stroke:white;stroke-width:3"/>
<circle cx="789.5572554167226" cy="92.87567755132913" r="0.5" style="fill:none;stroke:white;stroke-width:3"/>
<circle cx="802.0740189615184" cy="91.05343141257762" r="0.5" style="fill:none;stroke:white;stroke-width:3"/>
<circle cx="819.1192593917847" cy="87.53756732493639" r="0.5" style="fill:none;stroke:white;stroke-width:3"/>
<circle cx="829.8059305079394" cy="85.09361227937042" r="0.5" style="fill:none;stroke:white;stroke-width:3"/>
<circle cx="837.1263002225047" cy="89.1883085500449" r="0.5" style="fill:none;stroke:white;stroke-width:3"/>
<circle cx="846.1565373156546" cy="92.14677913226187" r="0.5" style="fill:none;stroke:white;stroke-width:3"/>
<circle cx="856.816491754019" cy="95.68407974615693" r="0.5" style="fill:none;stroke:white;stroke-width:3"/>
<circle cx="868.852355098587" cy="97.46344866715371" r="0.5" style="fill:none;stroke:white;stroke-width:3"/>
<circle cx="877.8024421583672" cy="93.39019404016435" r="0.5" style="fill:none;stroke:white;stroke-width:3"/>
<circle cx="886.7525292181457" cy="90.7104203402996" r="0.5" style="fill:none;stroke:white;stroke-width:3"/>
<circle cx="897.3189752842434" cy="92.66129566580057" r="0.5" style="fill:none;stroke:white;stroke-width:3"/>
<circle cx="912.2535981690686" cy="93.06862123534083" r="0.5" style="fill:none;stroke:white;stroke-width:3"/>
<circle cx="926.8542625815141" cy="92.78992479555309" r="0.5" style="fill:none;stroke:white;stroke-width:3"/>
<circle cx="938.5428091148079" cy="92.489790160954" r="0.5" style="fill:none;stroke:white;stroke-width:3"/>
<circle cx="947.4928961745876" cy="90.56035299003123" r="0.5" style="fill:none;stroke:white;stroke-width:3"/>
<circle cx="961.1184018476844" cy="87.53756732493639" r="0.5" style="fill:none;stroke:white;stroke-width:3"/>
<circle cx="977.1751251997061" cy="88.39509527049958" r="0.5" style="fill:none;stroke:white;stroke-width:3"/>
<circle cx="989.4113636277026" cy="87.28030892796814" r="0.5" style="fill:none;stroke:white;stroke-width:3"/>
<circle cx="990.5468224337939" cy="81.98507207706571" r="0.5" style="fill:none;stroke:white;stroke-width:3"/>
<circle cx="993.0314734683001" cy="70.98726330958307" r="0.5" style="fill:none;stroke:white;stroke-width:3"/>
<circle cx="1003.8517279734064" cy="71.93054564036429" r="0.5" style="fill:none;stroke:white;stroke-width:3"/>
<circle cx="1015.460124473328" cy="71.11589272767306" r="0.5" style="fill:none;stroke:white;stroke-width:3"/>
<circle cx="1029.7802637689754" cy="70.81575742699205" r="0.5" style="fill:none;stroke:white;stroke-width:3"/>
<circle cx="1045.0622034650758" cy="70.21548679322004" r="0.5" style="fill:none;stroke:white;stroke-width:3"/>
<circle cx="1048.4017881888742" cy="66.93543591164052" r="0.5" style="fill:none;stroke:white;stroke-width:3"/>
<circle cx="1048.1079047331798" cy="67.72865093126893" r="0.5" style="fill:none;stroke:white;stroke-width:3"/>
<circle cx="1047.8006629385904" cy="65.13462319672108" r="0.5" style="fill:none;stroke:white;stroke-width:3"/>
<circle cx="1045.823628782102" cy="65.0059937082231" r="0.5" style="fill:none;stroke:white;stroke-width:3"/>
<circle cx="1044.5412282481634" cy="61.53299677111208" r="0.5" style="fill:none;stroke:white;stroke-width:3"/>
<circle cx="1042.2836689748756" cy="58.72458477281034" r="0.5" style="fill:none;stroke:white;stroke-width:3"/>
<circle cx="1041.335226913317" cy="56.859455747902395" r="0.5" style="fill:none;stroke:white;stroke-width:3"/>
<circle cx="1039.732226245894" cy="55.12295598350465" r="0.5" style="fill:none;stroke:white;stroke-width:3"/>
<circle cx="1039.7856596014747" cy="60.63258995711803" r="0.5" style="fill:none;stroke:white;stroke-width:3"/>
<circle cx="1038.7437091676495" cy="55.74466581009328" r="0.5" style="fill:none;stroke:white;stroke-width:3"/>
<circle cx="1032.2114814479003" cy="53.90097449161112" r="0.5" style="fill:none;stroke:white;stroke-width:3"/>
<circle cx="1028.9787634352642" cy="53.236387997120616" r="0.5" style="fill:none;stroke:white;stroke-width:3"/>
<circle cx="1028.6982383184647" cy="54.372616490721704" r="0.5" style="fill:none;stroke:white;stroke-width:3"/>
<circle cx="1029.5264553299662" cy="54.95144982151687" r="0.5" style="fill:none;stroke:white;stroke-width:3"/>
<circle cx="1029.339438585434" cy="55.27302388250828" r="0.5" style="fill:none;stroke:white;stroke-width:3"/>
<circle cx="1031.0493059640187" cy="54.5226843919605" r="0.5" style="fill:none;stroke:white;stroke-width:3"/>
<circle cx="1030.3813890192591" cy="51.971529711037874" r="0.5" style="fill:none;stroke:white;stroke-width:3"/>
<circle cx="1032.8259650370794" cy="50.3850970543921" r="0.5" style="fill:none;stroke:white;stroke-width:3"/>
<circle cx="1032.1179730756337" cy="50.10639939755201" r="0.5" style="fill:none;stroke:white;stroke-width:3"/>
<circle cx="1026.2403039617495" cy="47.46949041523039" r="0.5" style="fill:none;stroke:white;stroke-width:3"/>
<circle cx="1025.7326870837323" cy="53.08632007576525" r="0.5" style="fill:none;stroke:white;stroke-width:3"/>
<circle cx="1025.8128371171033" cy="53.68659175559878" r="0.5" style="fill:none;stroke:white;stroke-width:3"/>
<circle cx="1025.9998538616355" cy="53.62227693647146" r="0.5" style="fill:none;stroke:white;stroke-width:3"/>
<circle cx="1026.2803789784343" cy="53.729468307271596" r="0.5" style="fill:none;stroke:white;stroke-width:3"/>
<circle cx="1024.6773783110114" cy="54.28686339743435" r="0.5" style="fill:none;stroke:white;stroke-width:3"/>
<circle cx="1031.650431214302" cy="50.08496111780405" r="0.5" style="fill:none;stroke:white;stroke-width:3"/>
<circle cx="1029.1657801797965" cy="51.58564071133733" r="0.5" style="fill:none;stroke:white;stroke-width:3"/>
<circle cx="1032.024464703368" cy="50.17071424238384" r="0.5" style="fill:none;stroke:white;stroke-width:3"/>
<circle cx="1030.9157225750666" cy="50.513726733997466" r="0.5" style="fill:none;stroke:white;stroke-width:3"/>
<circle cx="1028.1238297459713" cy="51.82146177068353" r="0.5" style="fill:none;stroke:white;stroke-width:3"/>
<circle cx="1029.09898848532" cy="51.52132587879896" r="0.5" style="fill:none;stroke:white;stroke-width:3"/>
<circle cx="1029.1524218409013" cy="51.457011037319894" r="0.5" style="fill:none;stroke:white;stroke-width:3"/>
<circle cx="1034.7094908213012" cy="51.992967987433076" r="0.5" style="fill:none;stroke:white;stroke-width:3"/>
<circle cx="1041.3085102355267" cy="64.74873471222817" r="0.5" style="fill:none;stroke:white;stroke-width:3"/>
<circle cx="1046.4514707101762" cy="75.03908903226257" r="0.5" style="fill:none;stroke:white;stroke-width:3"/>
<circle cx="1054.4664740472924" cy="83.48574677892029" r="0.5" style="fill:none;stroke:white;stroke-width:3"/>
<circle cx="1056.3900748481997" cy="96.24147245809435" r="0.5" style="fill:none;stroke:white;stroke-width:3"/>
<circle cx="1056.8442583706362" cy="110.84086244367063" r="0.5" style="fill:none;stroke:white;stroke-width:3"/>
<circle cx="1058.3938256824786" cy="123.83237178884445" r="0.5" style="fill:none;stroke:white;stroke-width:3"/>
<circle cx="1061.452885289477" cy="137.0382447950542" r="0.5" style="fill:none;stroke:white;stroke-width:3"/>
<circle cx="1064.9260534022283" cy="150.93011794053018" r="0.5" style="fill:none;stroke:white;stroke-width:3"/>
<circle cx="1074.3436823233385" cy="163.0426147006452" r="0.5" style="fill:none;stroke:white;stroke-width:3"/>
<circle cx="1076.6680332911021" cy="177.2131449792534" r="0.5" style="fill:none;stroke:white;stroke-width:3"/>
<circle cx="1077.8435671138795" cy="188.1250824484974" r="0.5" style="fill:none;stroke:white;stroke-width:3"/>
<circle cx="1077.883642130565" cy="201.90969332903623" r="0.5" style="fill:none;stroke:white;stroke-width:3"/>
<circle cx="1077.8168504360885" cy="211.27807253412902" r="0.5" style="fill:none;stroke:white;stroke-width:3"/>
<circle cx="1077.2023668469103" cy="222.29716153889893" r="0.5" style="fill:none;stroke:white;stroke-width:3"/>
<circle cx="1074.9848825903077" cy="236.63910899944602" r="0.5" style="fill:none;stroke:white;stroke-width:3"/>
<circle cx="1073.435315278466" cy="248.30130488947032" r="0.5" style="fill:none;stroke:white;stroke-width:3"/>
<circle cx="1071.5517894942432" cy="259.5990439005196" r="0.5" style="fill:none;stroke:white;stroke-width:3"/>
<circle cx="1068.7331799873575" cy="272.54748016521336" r="0.5" style="fill:none;stroke:white;stroke-width:3"/>
<circle cx="1066.983237592087" cy="283.6522512607276" r="0.5" style="fill:none;stroke:white;stroke-width:3"/>
<circle cx="1064.445153202001" cy="296.5792179588228" r="0.5" style="fill:none;stroke:white;stroke-width:3"/>
<circle cx="1062.1475189120276" cy="308.9702247340232" r="0.5" style="fill:none;stroke:white;stroke-width:3"/>
<circle cx="1060.8250433614035" cy="321.87572029978037" r="0.5" style="fill:none;stroke:white;stroke-width:3"/>
<circle cx="1061.105568478203" cy="335.9817076105624" r="0.5" style="fill:none;stroke:white;stroke-width:3"/>
<circle cx="1062.1608772509228" cy="347.9653495486826" r="0.5" style="fill:none;stroke:white;stroke-width:3"/>
<circle cx="1056.964483420693" cy="360.5063544731587" r="0.5" style="fill:none;stroke:white;stroke-width:3"/>
<circle cx="1053.5581070024189" cy="372.85440515018996" r="0.5" style="fill:none;stroke:white;stroke-width:3"/>
<circle cx="1049.991430517402" cy="385.6740662835538" r="0.5" style="fill:none;stroke:white;stroke-width:3"/>
<circle cx="1047.2796877216776" cy="398.4722731053829" r="0.5" style="fill:none;stroke:white;stroke-width:3"/>
<circle cx="1042.9115109029497" cy="411.7635254502296" r="0.5" style="fill:none;stroke:white;stroke-width:3"/>
<circle cx="1039.2379677067715" cy="422.9753258898854" r="0.5" style="fill:none;stroke:white;stroke-width:3"/>
<circle cx="1033.7610487597433" cy="431.52887055538594" r="0.5" style="fill:none;stroke:white;stroke-width:3"/>
<circle cx="1028.938688418578" cy="442.22615022361276" r="0.5" style="fill:none;stroke:white;stroke-width:3"/>
<circle cx="1022.6469107989424" cy="455.281531811133" r="0.5" style="fill:none;stroke:white;stroke-width:3"/>
<circle cx="1014.6986991563024" cy="460.4693797621876" r="0.5" style="fill:none;stroke:white;stroke-width:3"/>
<circle cx="1012.9888317777181" cy="457.14658490046855" r="0.5" style="fill:none;stroke:white;stroke-width:3"/>
<circle cx="1013.0689818110891" cy="458.32564127035437" r="0.5" style="fill:none;stroke:white;stroke-width:3"/>
<circle cx="1013.1357735055655" cy="457.89689352214333" r="0.5" style="fill:none;stroke:white;stroke-width:3"/>
<circle cx="1014.9124325786261" cy="457.382396190986" r="0.5" style="fill:none;stroke:white;stroke-width:3"/>
<circle cx="1020.3359181700738" cy="458.32564127035437" r="0.5" style="fill:none;stroke:white;stroke-width:3"/>
<circle cx="1023.1946026936455" cy="459.54757226742805" r="0.5" style="fill:none;stroke:white;stroke-width:3"/>
<circle cx="1024.7976033610685" cy="460.42650499753654" r="0.5" style="fill:none;stroke:white;stroke-width:3"/>
<circle cx="1022.9808692713218" cy="462.65599253363905" r="0.5" style="fill:none;stroke:white;stroke-width:3"/>
<circle cx="1029.5531720077572" cy="464.2423583563417" r="0.5" style="fill:none;stroke:white;stroke-width:3"/>
<circle cx="1005.1608451851353" cy="446.42788412757216" r="0.5" style="fill:none;stroke:white;stroke-width:3"/>
<circle cx="996.3176248365169" cy="442.97645998410877" r="0.5" style="fill:none;stroke:white;stroke-width:3"/>
<circle cx="995.8634413140809" cy="445.1416392467916" r="0.5" style="fill:none;stroke:white;stroke-width:3"/>
</g>
</svg>
