<?xml version="1.0" encoding="UTF-8" standalone="no"?>
<!DOCTYPE svg PUBLIC "-//W3C//DTD SVG 1.1//EN" "http://www.w3.org/Graphics/SVG/1.1/DTD/svg11.dtd">
<!-- Created with gpx2svg 0.2.0 -->
<svg xmlns="http://www.w3.org/2000/svg" version="1.1" width="240.43529512948643px" height="516.2799334689975px" viewBox="0 0 240.43529512948643 516.2799334689975" viewport-fill="black" >
<rect width="100%" height="100%" fill="#3B3434" />
<g>
<circle cx="202.4315442952071" cy="37.73642887026072" r="0.5" style="fill:none;stroke:white;stroke-width:3"/>
<circle cx="201.92392741718996" cy="38.95836010761559" r="0.5" style="fill:none;stroke:white;stroke-width:3"/>
<circle cx="204.43529512948643" cy="36.0" r="0.5" style="fill:none;stroke:white;stroke-width:3"/>
<circle cx="204.15477001268755" cy="38.743986220657824" r="0.5" style="fill:none;stroke:white;stroke-width:3"/>
<circle cx="198.3171759154882" cy="43.50308549255133" r="0.5" style="fill:none;stroke:white;stroke-width:3"/>
<circle cx="195.19132461401276" cy="53.10702653378248" r="0.5" style="fill:none;stroke:white;stroke-width:3"/>
<circle cx="191.99868161806208" cy="61.14603243581951" r="0.5" style="fill:none;stroke:white;stroke-width:3"/>
<circle cx="184.10390333100275" cy="73.47249532230198" r="0.5" style="fill:none;stroke:white;stroke-width:3"/>
<circle cx="179.0945262453055" cy="84.06252234578132" r="0.5" style="fill:none;stroke:white;stroke-width:3"/>
<circle cx="176.97055036097026" cy="90.79382910691201" r="0.5" style="fill:none;stroke:white;stroke-width:3"/>
<circle cx="174.96679952669146" cy="96.86057614088058" r="0.5" style="fill:none;stroke:white;stroke-width:3"/>
<circle cx="170.70548941912475" cy="111.71658745072781" r="0.5" style="fill:none;stroke:white;stroke-width:3"/>
<circle cx="167.25903798416493" cy="122.04932660982013" r="0.5" style="fill:none;stroke:white;stroke-width:3"/>
<circle cx="163.07787790996971" cy="134.9973909739405" r="0.5" style="fill:none;stroke:white;stroke-width:3"/>
<circle cx="158.3089509243853" cy="141.32135658971964" r="0.5" style="fill:none;stroke:white;stroke-width:3"/>
<circle cx="158.12193417985253" cy="154.78388671316205" r="0.5" style="fill:none;stroke:white;stroke-width:3"/>
<circle cx="155.87773324546086" cy="166.35993284359574" r="0.5" style="fill:none;stroke:white;stroke-width:3"/>
<circle cx="152.55150686055748" cy="176.04950166866183" r="0.5" style="fill:none;stroke:white;stroke-width:3"/>
<circle cx="148.81117196990363" cy="187.17534430548548" r="0.5" style="fill:none;stroke:white;stroke-width:3"/>
<circle cx="144.96397036808793" cy="199.75889289490877" r="0.5" style="fill:none;stroke:white;stroke-width:3"/>
<circle cx="140.16832670471376" cy="211.249137776345" r="0.5" style="fill:none;stroke:white;stroke-width:3"/>
<circle cx="135.09215792454015" cy="223.33960476033388" r="0.5" style="fill:none;stroke:white;stroke-width:3"/>
<circle cx="129.5217306052451" cy="235.25856114774942" r="0.5" style="fill:none;stroke:white;stroke-width:3"/>
<circle cx="125.94169578133314" cy="245.54829598590732" r="0.5" style="fill:none;stroke:white;stroke-width:3"/>
<circle cx="121.31971052359658" cy="258.3032647859305" r="0.5" style="fill:none;stroke:white;stroke-width:3"/>
<circle cx="115.08136625954194" cy="269.9863728705794" r="0.5" style="fill:none;stroke:white;stroke-width:3"/>
<circle cx="110.12542252942531" cy="280.25463433898983" r="0.5" style="fill:none;stroke:white;stroke-width:3"/>
<circle cx="107.13315461690253" cy="292.4093265764415" r="0.5" style="fill:none;stroke:white;stroke-width:3"/>
<circle cx="104.64850358239637" cy="302.2917019050568" r="0.5" style="fill:none;stroke:white;stroke-width:3"/>
<circle cx="97.80903406805737" cy="313.61033210121093" r="0.5" style="fill:none;stroke:white;stroke-width:3"/>
<circle cx="92.7996569823601" cy="324.67170806005595" r="0.5" style="fill:none;stroke:white;stroke-width:3"/>
<circle cx="87.06892959632259" cy="337.44801045991477" r="0.5" style="fill:none;stroke:white;stroke-width:3"/>
<circle cx="82.35343596631883" cy="350.54584678709506" r="0.5" style="fill:none;stroke:white;stroke-width:3"/>
<circle cx="77.06353376382266" cy="364.7798094280064" r="0.5" style="fill:none;stroke:white;stroke-width:3"/>
<circle cx="73.37663222874944" cy="376.3127338539809" r="0.5" style="fill:none;stroke:white;stroke-width:3"/>
<circle cx="70.0504058438466" cy="389.08896884098647" r="0.5" style="fill:none;stroke:white;stroke-width:3"/>
<circle cx="65.10782045262512" cy="401.5222016349435" r="0.5" style="fill:none;stroke:white;stroke-width:3"/>
<circle cx="60.72628529500198" cy="413.8482357949018" r="0.5" style="fill:none;stroke:white;stroke-width:3"/>
<circle cx="56.35810847627399" cy="425.35966585725544" r="0.5" style="fill:none;stroke:white;stroke-width:3"/>
<circle cx="51.62925650737561" cy="439.5077736340463" r="0.5" style="fill:none;stroke:white;stroke-width:3"/>
<circle cx="47.62175483881801" cy="451.3835937682539" r="0.5" style="fill:none;stroke:white;stroke-width:3"/>
<circle cx="44.12187004827701" cy="464.073984920606" r="0.5" style="fill:none;stroke:white;stroke-width:3"/>
<circle cx="41.463560608133776" cy="465.7031555626541" r="0.5" style="fill:none;stroke:white;stroke-width:3"/>
<circle cx="41.797519080513304" cy="468.94005958624183" r="0.5" style="fill:none;stroke:white;stroke-width:3"/>
<circle cx="36.0" cy="480.27993346899746" r="0.5" style="fill:none;stroke:white;stroke-width:3"/>
</g>
</svg>
