<?xml version="1.0" encoding="UTF-8" standalone="no"?>
<!DOCTYPE svg PUBLIC "-//W3C//DTD SVG 1.1//EN" "http://www.w3.org/Graphics/SVG/1.1/DTD/svg11.dtd">
<!-- Created with gpx2svg 0.2.0 -->
<svg xmlns="http://www.w3.org/2000/svg" version="1.1" width="1103.410704436734px" height="1031.682611293718px" viewBox="0 0 1103.410704436734 1031.682611293718" viewport-fill="black" >
<rect width="100%" height="100%" fill="#3B3434" />
<g>
<circle cx="715.3783995317172" cy="995.6826112937182" r="0.5" style="fill:none;stroke:white;stroke-width:3"/>
<circle cx="708.7393051008061" cy="988.6943989209831" r="0.5" style="fill:none;stroke:white;stroke-width:3"/>
<circle cx="696.6099333839715" cy="978.9194677267224" r="0.5" style="fill:none;stroke:white;stroke-width:3"/>
<circle cx="688.1808215411047" cy="973.6247092500329" r="0.5" style="fill:none;stroke:white;stroke-width:3"/>
<circle cx="679.1372261090589" cy="968.8872913409024" r="0.5" style="fill:none;stroke:white;stroke-width:3"/>
<circle cx="670.0802723381181" cy="964.7929599937052" r="0.5" style="fill:none;stroke:white;stroke-width:3"/>
<circle cx="662.3324357789066" cy="963.3781644724309" r="0.5" style="fill:none;stroke:white;stroke-width:3"/>
<circle cx="653.1953319745948" cy="960.9558625660836" r="0.5" style="fill:none;stroke:white;stroke-width:3"/>
<circle cx="640.1175181962005" cy="957.547489843145" r="0.5" style="fill:none;stroke:white;stroke-width:3"/>
<circle cx="629.0300969131905" cy="953.8175711732357" r="0.5" style="fill:none;stroke:white;stroke-width:3"/>
<circle cx="620.6544184259044" cy="950.6021228939294" r="0.5" style="fill:none;stroke:white;stroke-width:3"/>
<circle cx="612.7997151555317" cy="947.1508739065379" r="0.5" style="fill:none;stroke:white;stroke-width:3"/>
<circle cx="604.5576200571971" cy="943.828241733089" r="0.5" style="fill:none;stroke:white;stroke-width:3"/>
<circle cx="595.1800661527724" cy="935.0607746701687" r="0.5" style="fill:none;stroke:white;stroke-width:3"/>
<circle cx="585.7223622149751" cy="927.4079913720489" r="0.5" style="fill:none;stroke:white;stroke-width:3"/>
<circle cx="581.0736602794483" cy="926.1003723386675" r="0.5" style="fill:none;stroke:white;stroke-width:3"/>
<circle cx="572.4174566753633" cy="914.0102470960468" r="0.5" style="fill:none;stroke:white;stroke-width:3"/>
<circle cx="562.8528860264057" cy="902.3273991197348" r="0.5" style="fill:none;stroke:white;stroke-width:3"/>
<circle cx="553.9428739833116" cy="892.2522713139653" r="0.5" style="fill:none;stroke:white;stroke-width:3"/>
<circle cx="545.3000287181222" cy="882.5415532093494" r="0.5" style="fill:none;stroke:white;stroke-width:3"/>
<circle cx="540.7314768159658" cy="876.9895047537982" r="0.5" style="fill:none;stroke:white;stroke-width:3"/>
<circle cx="529.002855265987" cy="870.8157946653664" r="0.5" style="fill:none;stroke:white;stroke-width:3"/>
<circle cx="522.2702524628099" cy="870.7086121615022" r="0.5" style="fill:none;stroke:white;stroke-width:3"/>
<circle cx="525.8903623034067" cy="872.4878415305167" r="0.5" style="fill:none;stroke:white;stroke-width:3"/>
<circle cx="526.4246958592148" cy="874.3956895317882" r="0.5" style="fill:none;stroke:white;stroke-width:3"/>
<circle cx="524.4343033638306" cy="873.3667378485203" r="0.5" style="fill:none;stroke:white;stroke-width:3"/>
<circle cx="524.6881118028397" cy="874.8887288376689" r="0.5" style="fill:none;stroke:white;stroke-width:3"/>
<circle cx="530.9932477613708" cy="869.5510410770773" r="0.5" style="fill:none;stroke:white;stroke-width:3"/>
<circle cx="537.5254754811194" cy="862.8414133708924" r="0.5" style="fill:none;stroke:white;stroke-width:3"/>
<circle cx="537.3651754143775" cy="853.8595083732158" r="0.5" style="fill:none;stroke:white;stroke-width:3"/>
<circle cx="545.647345529397" cy="845.0276510328055" r="0.5" style="fill:none;stroke:white;stroke-width:3"/>
<circle cx="551.7921814211855" cy="834.9953373972327" r="0.5" style="fill:none;stroke:white;stroke-width:3"/>
<circle cx="563.2937112099465" cy="822.8407897856086" r="0.5" style="fill:none;stroke:white;stroke-width:3"/>
<circle cx="569.5988471684775" cy="808.6926201146096" r="0.5" style="fill:none;stroke:white;stroke-width:3"/>
<circle cx="576.4116000050262" cy="797.9742961429059" r="0.5" style="fill:none;stroke:white;stroke-width:3"/>
<circle cx="580.3122349624225" cy="783.0329329334199" r="0.5" style="fill:none;stroke:white;stroke-width:3"/>
<circle cx="587.8329797604157" cy="772.8504987381399" r="0.5" style="fill:none;stroke:white;stroke-width:3"/>
<circle cx="597.7181505428581" cy="761.9606416013091" r="0.5" style="fill:none;stroke:white;stroke-width:3"/>
<circle cx="596.04835818096" cy="749.505888563767" r="0.5" style="fill:none;stroke:white;stroke-width:3"/>
<circle cx="586.0429623484606" cy="739.5806609418242" r="0.5" style="fill:none;stroke:white;stroke-width:3"/>
<circle cx="575.6100996713145" cy="745.1542241301387" r="0.5" style="fill:none;stroke:white;stroke-width:3"/>
<circle cx="567.0741211172864" cy="755.6582384303211" r="0.5" style="fill:none;stroke:white;stroke-width:3"/>
<circle cx="555.6928163785818" cy="765.6263232093304" r="0.5" style="fill:none;stroke:white;stroke-width:3"/>
<circle cx="546.2083957629948" cy="775.5300877097994" r="0.5" style="fill:none;stroke:white;stroke-width:3"/>
<circle cx="536.2697916249717" cy="783.0543696250767" r="0.5" style="fill:none;stroke:white;stroke-width:3"/>
<circle cx="538.2601841203553" cy="779.4315679449588" r="0.5" style="fill:none;stroke:white;stroke-width:3"/>
<circle cx="538.5941425927355" cy="778.5740998931229" r="0.5" style="fill:none;stroke:white;stroke-width:3"/>
<circle cx="539.2887762152853" cy="777.9309988036752" r="0.5" style="fill:none;stroke:white;stroke-width:3"/>
<circle cx="532.9569235789635" cy="774.6297458991409" r="0.5" style="fill:none;stroke:white;stroke-width:3"/>
<circle cx="522.190102429439" cy="778.3811695709825" r="0.5" style="fill:none;stroke:white;stroke-width:3"/>
<circle cx="511.5034313132848" cy="778.7455935113131" r="0.5" style="fill:none;stroke:white;stroke-width:3"/>
<circle cx="507.16197117234606" cy="777.1592774514108" r="0.5" style="fill:none;stroke:white;stroke-width:3"/>
<circle cx="491.3724145982285" cy="774.6511826097965" r="0.5" style="fill:none;stroke:white;stroke-width:3"/>
<circle cx="476.6381667968313" cy="774.1152648266404" r="0.5" style="fill:none;stroke:white;stroke-width:3"/>
<circle cx="464.42864504662407" cy="773.8580242808908" r="0.5" style="fill:none;stroke:white;stroke-width:3"/>
<circle cx="453.03398196902486" cy="772.829062025249" r="0.5" style="fill:none;stroke:white;stroke-width:3"/>
<circle cx="441.6526772303214" cy="772.4217644345015" r="0.5" style="fill:none;stroke:white;stroke-width:3"/>
<circle cx="429.429797141219" cy="773.1291760269552" r="0.5" style="fill:none;stroke:white;stroke-width:3"/>
<circle cx="416.9531086131092" cy="772.7433151625097" r="0.5" style="fill:none;stroke:white;stroke-width:3"/>
<circle cx="416.11153326271193" cy="775.2299737818539" r="0.5" style="fill:none;stroke:white;stroke-width:3"/>
<circle cx="403.1539445343747" cy="771.9501566760242" r="0.5" style="fill:none;stroke:white;stroke-width:3"/>
<circle cx="398.57203429332367" cy="759.2596121672541" r="0.5" style="fill:none;stroke:white;stroke-width:3"/>
<circle cx="399.7609264549961" cy="743.3535348303616" r="0.5" style="fill:none;stroke:white;stroke-width:3"/>
<circle cx="399.70749309941544" cy="731.1559997834265" r="0.5" style="fill:none;stroke:white;stroke-width:3"/>
<circle cx="395.8068581420186" cy="732.4422080665827" r="0.5" style="fill:none;stroke:white;stroke-width:3"/>
<circle cx="395.259166247316" cy="730.1055962305516" r="0.5" style="fill:none;stroke:white;stroke-width:3"/>
<circle cx="385.73467061504397" cy="727.8547311007976" r="0.5" style="fill:none;stroke:white;stroke-width:3"/>
<circle cx="384.6927201812188" cy="719.4514966797084" r="0.5" style="fill:none;stroke:white;stroke-width:3"/>
<circle cx="379.5631180454646" cy="707.9184744358063" r="0.5" style="fill:none;stroke:white;stroke-width:3"/>
<circle cx="378.6948260172776" cy="694.7991091836244" r="0.5" style="fill:none;stroke:white;stroke-width:3"/>
<circle cx="375.7159164436489" cy="682.8801934797317" r="0.5" style="fill:none;stroke:white;stroke-width:3"/>
<circle cx="371.40117298050154" cy="669.4821144349872" r="0.5" style="fill:none;stroke:white;stroke-width:3"/>
<circle cx="372.6434984977546" cy="663.8227603364736" r="0.5" style="fill:none;stroke:white;stroke-width:3"/>
<circle cx="371.3878146416064" cy="664.0585668168961" r="0.5" style="fill:none;stroke:white;stroke-width:3"/>
<circle cx="368.99667197936685" cy="662.0006191100925" r="0.5" style="fill:none;stroke:white;stroke-width:3"/>
<circle cx="364.9090202774378" cy="652.8899079144" r="0.5" style="fill:none;stroke:white;stroke-width:3"/>
<circle cx="355.61161640638346" cy="646.7803674213588" r="0.5" style="fill:none;stroke:white;stroke-width:3"/>
<circle cx="351.8712815157296" cy="649.4171169418842" r="0.5" style="fill:none;stroke:white;stroke-width:3"/>
<circle cx="344.71121186790623" cy="651.2392605096102" r="0.5" style="fill:none;stroke:white;stroke-width:3"/>
<circle cx="343.13492787827363" cy="645.1511559806764" r="0.5" style="fill:none;stroke:white;stroke-width:3"/>
<circle cx="341.2647604329464" cy="644.2508021704853" r="0.5" style="fill:none;stroke:white;stroke-width:3"/>
<circle cx="340.4766184381304" cy="644.0578692030161" r="0.5" style="fill:none;stroke:white;stroke-width:3"/>
<circle cx="334.264990851865" cy="645.3869629126042" r="0.5" style="fill:none;stroke:white;stroke-width:3"/>
<circle cx="340.36975172696856" cy="635.4401926774532" r="0.5" style="fill:none;stroke:white;stroke-width:3"/>
<circle cx="339.08735119303" cy="633.1678687412292" r="0.5" style="fill:none;stroke:white;stroke-width:3"/>
<circle cx="333.7840906516387" cy="635.6116887968034" r="0.5" style="fill:none;stroke:white;stroke-width:3"/>
<circle cx="335.26686626900465" cy="637.1122797567397" r="0.5" style="fill:none;stroke:white;stroke-width:3"/>
<circle cx="330.25748918330737" cy="643.7363142427057" r="0.5" style="fill:none;stroke:white;stroke-width:3"/>
<circle cx="320.18530165633166" cy="652.5040423080325" r="0.5" style="fill:none;stroke:white;stroke-width:3"/>
<circle cx="273.2841737953102" cy="637.4338349316268" r="0.5" style="fill:none;stroke:white;stroke-width:3"/>
<circle cx="261.82271902323464" cy="643.3290112774819" r="0.5" style="fill:none;stroke:white;stroke-width:3"/>
<circle cx="251.04253953481492" cy="647.3377291671932" r="0.5" style="fill:none;stroke:white;stroke-width:3"/>
<circle cx="236.76247525585256" cy="649.2027470927685" r="0.5" style="fill:none;stroke:white;stroke-width:3"/>
<circle cx="224.36593676111423" cy="651.7323110640049" r="0.5" style="fill:none;stroke:white;stroke-width:3"/>
<circle cx="211.68887314957647" cy="654.3690592501313" r="0.5" style="fill:none;stroke:white;stroke-width:3"/>
<circle cx="199.98696827738695" cy="657.8632854312658" r="0.5" style="fill:none;stroke:white;stroke-width:3"/>
<circle cx="183.8768115697845" cy="662.6437278181314" r="0.5" style="fill:none;stroke:white;stroke-width:3"/>
<circle cx="171.72072317515958" cy="665.4519686680287" r="0.5" style="fill:none;stroke:white;stroke-width:3"/>
<circle cx="164.18662003827066" cy="669.2463080774993" r="0.5" style="fill:none;stroke:white;stroke-width:3"/>
<circle cx="164.07975332710885" cy="670.2752812195569" r="0.5" style="fill:none;stroke:white;stroke-width:3"/>
<circle cx="152.44464014939675" cy="672.8262766767293" r="0.5" style="fill:none;stroke:white;stroke-width:3"/>
<circle cx="139.3401096932117" cy="669.6750468984246" r="0.5" style="fill:none;stroke:white;stroke-width:3"/>
<circle cx="133.16855712363284" cy="662.1935517288745" r="0.5" style="fill:none;stroke:white;stroke-width:3"/>
<circle cx="131.71249818405667" cy="651.2178235307335" r="0.5" style="fill:none;stroke:white;stroke-width:3"/>
<circle cx="133.98341579623974" cy="643.2861372828484" r="0.5" style="fill:none;stroke:white;stroke-width:3"/>
<circle cx="129.68203067198755" cy="639.2774177324027" r="0.5" style="fill:none;stroke:white;stroke-width:3"/>
<circle cx="132.83459865125278" cy="637.1765907928348" r="0.5" style="fill:none;stroke:white;stroke-width:3"/>
<circle cx="137.61688397573235" cy="632.0960176482796" r="0.5" style="fill:none;stroke:white;stroke-width:3"/>
<circle cx="139.09965959309883" cy="622.3636043462902" r="0.5" style="fill:none;stroke:white;stroke-width:3"/>
<circle cx="131.8460815730088" cy="603.2846162572503" r="0.5" style="fill:none;stroke:white;stroke-width:3"/>
<circle cx="125.67452900342941" cy="582.7693032994866" r="0.5" style="fill:none;stroke:white;stroke-width:3"/>
<circle cx="119.97051829518222" cy="565.2551515169441" r="0.5" style="fill:none;stroke:white;stroke-width:3"/>
<circle cx="109.29720551792379" cy="572.9725294802338" r="0.5" style="fill:none;stroke:white;stroke-width:3"/>
<circle cx="109.1369054511808" cy="558.8239985648543" r="0.5" style="fill:none;stroke:white;stroke-width:3"/>
<circle cx="105.20955381599414" cy="541.4813016973436" r="0.5" style="fill:none;stroke:white;stroke-width:3"/>
<circle cx="102.31079427573749" cy="523.1095855884254" r="0.5" style="fill:none;stroke:white;stroke-width:3"/>
<circle cx="99.15822629647228" cy="506.81725305877626" r="0.5" style="fill:none;stroke:white;stroke-width:3"/>
<circle cx="95.81864157267373" cy="492.1970052592456" r="0.5" style="fill:none;stroke:white;stroke-width:3"/>
<circle cx="93.10689877694931" cy="477.0622389245778" r="0.5" style="fill:none;stroke:white;stroke-width:3"/>
<circle cx="91.49053977063177" cy="465.37886929214" r="0.5" style="fill:none;stroke:white;stroke-width:3"/>
<circle cx="89.75395571425615" cy="452.0876795500517" r="0.5" style="fill:none;stroke:white;stroke-width:3"/>
<circle cx="86.08041251807808" cy="440.61865453384814" r="0.5" style="fill:none;stroke:white;stroke-width:3"/>
<circle cx="85.33234553994753" cy="440.4042801048607" r="0.5" style="fill:none;stroke:white;stroke-width:3"/>
<circle cx="83.03471124997358" cy="435.6666040599346" r="0.5" style="fill:none;stroke:white;stroke-width:3"/>
<circle cx="80.60349357104914" cy="418.0664390388876" r="0.5" style="fill:none;stroke:white;stroke-width:3"/>
<circle cx="78.49287602560908" cy="401.5595563519746" r="0.5" style="fill:none;stroke:white;stroke-width:3"/>
<circle cx="73.95104080124293" cy="387.68946586400267" r="0.5" style="fill:none;stroke:white;stroke-width:3"/>
<circle cx="72.2010984059727" cy="370.1535273425281" r="0.5" style="fill:none;stroke:white;stroke-width:3"/>
<circle cx="69.2355471712397" cy="353.30356170348824" r="0.5" style="fill:none;stroke:white;stroke-width:3"/>
<circle cx="66.73753779783947" cy="339.7978431008756" r="0.5" style="fill:none;stroke:white;stroke-width:3"/>
<circle cx="66.32342929208734" cy="331.63008995354176" r="0.5" style="fill:none;stroke:white;stroke-width:3"/>
<circle cx="63.731911546420996" cy="317.97427747026086" r="0.5" style="fill:none;stroke:white;stroke-width:3"/>
<circle cx="61.661369017665855" cy="304.40419688746334" r="0.5" style="fill:none;stroke:white;stroke-width:3"/>
<circle cx="59.99157665576604" cy="290.0408999428153" r="0.5" style="fill:none;stroke:white;stroke-width:3"/>
<circle cx="57.07945877661477" cy="278.37874483354386" r="0.5" style="fill:none;stroke:white;stroke-width:3"/>
<circle cx="56.157733392846055" cy="266.5450732290745" r="0.5" style="fill:none;stroke:white;stroke-width:3"/>
<circle cx="55.74362488709557" cy="257.0266748137772" r="0.5" style="fill:none;stroke:white;stroke-width:3"/>
<circle cx="54.55473272542313" cy="245.92186496928332" r="0.5" style="fill:none;stroke:white;stroke-width:3"/>
<circle cx="54.47458269205163" cy="234.5383499007672" r="0.5" style="fill:none;stroke:white;stroke-width:3"/>
<circle cx="57.50692562125987" cy="232.00867808684706" r="0.5" style="fill:none;stroke:white;stroke-width:3"/>
<circle cx="60.39232682262245" cy="230.70096613168715" r="0.5" style="fill:none;stroke:white;stroke-width:3"/>
<circle cx="62.78346948486196" cy="230.8510314490646" r="0.5" style="fill:none;stroke:white;stroke-width:3"/>
<circle cx="61.086960445172366" cy="230.93678305372595" r="0.5" style="fill:none;stroke:white;stroke-width:3"/>
<circle cx="61.02016875069657" cy="231.00109675861893" r="0.5" style="fill:none;stroke:white;stroke-width:3"/>
<circle cx="76.63606691917649" cy="231.96580228842794" r="0.5" style="fill:none;stroke:white;stroke-width:3"/>
<circle cx="93.4007822326439" cy="229.52188142761588" r="0.5" style="fill:none;stroke:white;stroke-width:3"/>
<circle cx="92.82637366015096" cy="230.6152145180851" r="0.5" style="fill:none;stroke:white;stroke-width:3"/>
<circle cx="81.88589410498716" cy="233.53076883293687" r="0.5" style="fill:none;stroke:white;stroke-width:3"/>
<circle cx="71.59997315568944" cy="235.82462345212696" r="0.5" style="fill:none;stroke:white;stroke-width:3"/>
<circle cx="58.7492511385135" cy="227.37809070199728" r="0.5" style="fill:none;stroke:white;stroke-width:3"/>
<circle cx="47.91563829451152" cy="219.40318506248295" r="0.5" style="fill:none;stroke:white;stroke-width:3"/>
<circle cx="46.392787660460634" cy="206.28316488079727" r="0.5" style="fill:none;stroke:white;stroke-width:3"/>
<circle cx="51.829631590803544" cy="192.4771115709096" r="0.5" style="fill:none;stroke:white;stroke-width:3"/>
<circle cx="52.95173205799965" cy="187.31055555827916" r="0.5" style="fill:none;stroke:white;stroke-width:3"/>
<circle cx="62.54301938474855" cy="182.18687283731995" r="0.5" style="fill:none;stroke:white;stroke-width:3"/>
<circle cx="75.11321628512505" cy="179.33561726622284" r="0.5" style="fill:none;stroke:white;stroke-width:3"/>
<circle cx="76.36890014127275" cy="177.23469158560036" r="0.5" style="fill:none;stroke:white;stroke-width:3"/>
<circle cx="75.34030804634331" cy="177.81351809129117" r="0.5" style="fill:none;stroke:white;stroke-width:3"/>
<circle cx="68.54091354868923" cy="186.21721763089297" r="0.5" style="fill:none;stroke:white;stroke-width:3"/>
<circle cx="64.94752038588267" cy="195.6499330010265" r="0.5" style="fill:none;stroke:white;stroke-width:3"/>
<circle cx="59.44388476106396" cy="204.9111356075853" r="0.5" style="fill:none;stroke:white;stroke-width:3"/>
<circle cx="58.80268449409468" cy="215.93024025410412" r="0.5" style="fill:none;stroke:white;stroke-width:3"/>
<circle cx="60.779718650582616" cy="227.57103188261388" r="0.5" style="fill:none;stroke:white;stroke-width:3"/>
<circle cx="62.743394468175936" cy="240.1550765030086" r="0.5" style="fill:none;stroke:white;stroke-width:3"/>
<circle cx="58.92290954415166" cy="242.38461594097316" r="0.5" style="fill:none;stroke:white;stroke-width:3"/>
<circle cx="51.7628398963272" cy="237.34671360589562" r="0.5" style="fill:none;stroke:white;stroke-width:3"/>
<circle cx="45.41762892111128" cy="235.20292458683252" r="0.5" style="fill:none;stroke:white;stroke-width:3"/>
<circle cx="44.17530340385765" cy="221.91142221428453" r="0.5" style="fill:none;stroke:white;stroke-width:3"/>
<circle cx="43.54746147578353" cy="207.99820120073855" r="0.5" style="fill:none;stroke:white;stroke-width:3"/>
<circle cx="42.50551104195947" cy="197.04340154416857" r="0.5" style="fill:none;stroke:white;stroke-width:3"/>
<circle cx="44.482545198447404" cy="185.767019623518" r="0.5" style="fill:none;stroke:white;stroke-width:3"/>
<circle cx="41.03609376348813" cy="175.02657533101737" r="0.5" style="fill:none;stroke:white;stroke-width:3"/>
<circle cx="41.99789416394123" cy="163.77160608395934" r="0.5" style="fill:none;stroke:white;stroke-width:3"/>
<circle cx="38.578159406772826" cy="151.74485321603714" r="0.5" style="fill:none;stroke:white;stroke-width:3"/>
<circle cx="36.0" cy="143.76988594047725" r="0.5" style="fill:none;stroke:white;stroke-width:3"/>
<circle cx="40.12772671861512" cy="139.9967808846384" r="0.5" style="fill:none;stroke:white;stroke-width:3"/>
<circle cx="53.28569053037918" cy="140.29691428877413" r="0.5" style="fill:none;stroke:white;stroke-width:3"/>
<circle cx="64.39982849118005" cy="137.81009432449937" r="0.5" style="fill:none;stroke:white;stroke-width:3"/>
<circle cx="73.8441740900811" cy="135.55909295529128" r="0.5" style="fill:none;stroke:white;stroke-width:3"/>
<circle cx="85.19876215099593" cy="133.00795743986964" r="0.5" style="fill:none;stroke:white;stroke-width:3"/>
<circle cx="99.27845134652816" cy="131.91461344510316" r="0.5" style="fill:none;stroke:white;stroke-width:3"/>
<circle cx="110.98035621871767" cy="129.10621948242186" r="0.5" style="fill:none;stroke:white;stroke-width:3"/>
<circle cx="125.27377883657408" cy="126.98384488150477" r="0.5" style="fill:none;stroke:white;stroke-width:3"/>
<circle cx="138.52525102060534" cy="125.59036636166275" r="0.5" style="fill:none;stroke:white;stroke-width:3"/>
<circle cx="151.8969482546936" cy="123.9825062803924" r="0.5" style="fill:none;stroke:white;stroke-width:3"/>
<circle cx="162.69048608200845" cy="121.88156871199607" r="0.5" style="fill:none;stroke:white;stroke-width:3"/>
<circle cx="172.00124829195846" cy="118.75159966349601" r="0.5" style="fill:none;stroke:white;stroke-width:3"/>
<circle cx="187.0560962268406" cy="117.42243441715836" r="0.5" style="fill:none;stroke:white;stroke-width:3"/>
<circle cx="197.43552554840608" cy="114.9999231107533" r="0.5" style="fill:none;stroke:white;stroke-width:3"/>
<circle cx="210.05915580436266" cy="112.87754545547068" r="0.5" style="fill:none;stroke:white;stroke-width:3"/>
<circle cx="221.10650207068664" cy="106.27458979636431" r="0.5" style="fill:none;stroke:white;stroke-width:3"/>
<circle cx="229.02799703553683" cy="101.15086464285851" r="0.5" style="fill:none;stroke:white;stroke-width:3"/>
<circle cx="241.91879406939714" cy="101.21517919935286" r="0.5" style="fill:none;stroke:white;stroke-width:3"/>
<circle cx="252.7524069133991" cy="98.87841665111482" r="0.5" style="fill:none;stroke:white;stroke-width:3"/>
<circle cx="260.96778533394223" cy="97.07760842330754" r="0.5" style="fill:none;stroke:white;stroke-width:3"/>
<circle cx="268.74233857094566" cy="94.18345165997744" r="0.5" style="fill:none;stroke:white;stroke-width:3"/>
<circle cx="277.0245086859646" cy="89.05972017757594" r="0.5" style="fill:none;stroke:white;stroke-width:3"/>
<circle cx="285.7742206623157" cy="83.78591844141484" r="0.5" style="fill:none;stroke:white;stroke-width:3"/>
<circle cx="296.28723337283225" cy="79.75553145892918" r="0.5" style="fill:none;stroke:white;stroke-width:3"/>
<circle cx="305.3575454826683" cy="71.03016672357917" r="0.5" style="fill:none;stroke:white;stroke-width:3"/>
<circle cx="315.0423411816833" cy="60.71836200021207" r="0.5" style="fill:none;stroke:white;stroke-width:3"/>
<circle cx="324.7538535584892" cy="55.85187242478132" r="0.5" style="fill:none;stroke:white;stroke-width:3"/>
<circle cx="334.3584992241322" cy="52.74332054704428" r="0.5" style="fill:none;stroke:white;stroke-width:3"/>
<circle cx="346.14055412969265" cy="52.22880152016878" r="0.5" style="fill:none;stroke:white;stroke-width:3"/>
<circle cx="355.70512477865014" cy="52.357431278005244" r="0.5" style="fill:none;stroke:white;stroke-width:3"/>
<circle cx="367.78106313990463" cy="51.478461226075886" r="0.5" style="fill:none;stroke:white;stroke-width:3"/>
<circle cx="380.25775166801446" cy="50.34223152212798" r="0.5" style="fill:none;stroke:white;stroke-width:3"/>
<circle cx="393.0149653129238" cy="50.98538042642176" r="0.5" style="fill:none;stroke:white;stroke-width:3"/>
<circle cx="405.55844553551" cy="49.99921875782311" r="0.5" style="fill:none;stroke:white;stroke-width:3"/>
<circle cx="418.75648436396057" cy="47.66244397312403" r="0.5" style="fill:none;stroke:white;stroke-width:3"/>
<circle cx="430.7522726918436" cy="44.382383009791376" r="0.5" style="fill:none;stroke:white;stroke-width:3"/>
<circle cx="441.8530523137488" cy="41.93841530196369" r="0.5" style="fill:none;stroke:white;stroke-width:3"/>
<circle cx="454.9842994477225" cy="43.82498691491782" r="0.5" style="fill:none;stroke:white;stroke-width:3"/>
<circle cx="466.81978770886417" cy="45.23991539217531" r="0.5" style="fill:none;stroke:white;stroke-width:3"/>
<circle cx="476.6916001524119" cy="47.21223958991468" r="0.5" style="fill:none;stroke:white;stroke-width:3"/>
<circle cx="489.76941393080506" cy="51.77859734930098" r="0.5" style="fill:none;stroke:white;stroke-width:3"/>
<circle cx="500.58966843591185" cy="55.101532405614854" r="0.5" style="fill:none;stroke:white;stroke-width:3"/>
<circle cx="513.2400153696593" cy="56.96666319966316" r="0.5" style="fill:none;stroke:white;stroke-width:3"/>
<circle cx="523.3122028966345" cy="58.746040529385205" r="0.5" style="fill:none;stroke:white;stroke-width:3"/>
<circle cx="532.7966235122216" cy="61.68308431841433" r="0.5" style="fill:none;stroke:white;stroke-width:3"/>
<circle cx="543.2161278504719" cy="63.91266441978514" r="0.5" style="fill:none;stroke:white;stroke-width:3"/>
<circle cx="554.5306408947002" cy="65.67060221135615" r="0.5" style="fill:none;stroke:white;stroke-width:3"/>
<circle cx="562.0513856926934" cy="69.37942116558551" r="0.5" style="fill:none;stroke:white;stroke-width:3"/>
<circle cx="575.1024827932973" cy="66.7210770919919" r="0.5" style="fill:none;stroke:white;stroke-width:3"/>
<circle cx="585.4819121148622" cy="66.76395361348986" r="0.5" style="fill:none;stroke:white;stroke-width:3"/>
<circle cx="598.4127841654087" cy="67.08552752919495" r="0.5" style="fill:none;stroke:white;stroke-width:3"/>
<circle cx="610.7558893045668" cy="71.6947525139898" r="0.5" style="fill:none;stroke:white;stroke-width:3"/>
<circle cx="624.1409448775503" cy="76.2825370889157" r="0.5" style="fill:none;stroke:white;stroke-width:3"/>
<circle cx="634.0795490155733" cy="81.10614005103707" r="0.5" style="fill:none;stroke:white;stroke-width:3"/>
<circle cx="644.4589783371382" cy="84.62200914882123" r="0.5" style="fill:none;stroke:white;stroke-width:3"/>
<circle cx="656.1341665315368" cy="85.47953800968826" r="0.5" style="fill:none;stroke:white;stroke-width:3"/>
<circle cx="667.6624129980883" cy="86.85158402323722" r="0.5" style="fill:none;stroke:white;stroke-width:3"/>
<circle cx="680.6600767431104" cy="88.03068591021001" r="0.5" style="fill:none;stroke:white;stroke-width:3"/>
<circle cx="692.255114904138" cy="89.61711368970573" r="0.5" style="fill:none;stroke:white;stroke-width:3"/>
<circle cx="702.7280525979696" cy="91.41792328543961" r="0.5" style="fill:none;stroke:white;stroke-width:3"/>
<circle cx="712.0655314857095" cy="93.15441793687641" r="0.5" style="fill:none;stroke:white;stroke-width:3"/>
<circle cx="723.6605696467366" cy="94.56933927610517" r="0.5" style="fill:none;stroke:white;stroke-width:3"/>
<circle cx="738.1810840258113" cy="96.88466467000544" r="0.5" style="fill:none;stroke:white;stroke-width:3"/>
<circle cx="752.4477899658774" cy="98.74978750012815" r="0.5" style="fill:none;stroke:white;stroke-width:3"/>
<circle cx="766.8881543115805" cy="100.80785366110503" r="0.5" style="fill:none;stroke:white;stroke-width:3"/>
<circle cx="778.456475794818" cy="101.72969565689563" r="0.5" style="fill:none;stroke:white;stroke-width:3"/>
<circle cx="790.8530142895568" cy="102.09414479099213" r="0.5" style="fill:none;stroke:white;stroke-width:3"/>
<circle cx="800.6981100553131" cy="100.46484266594052" r="0.5" style="fill:none;stroke:white;stroke-width:3"/>
<circle cx="811.1576894102496" cy="99.3071804612875" r="0.5" style="fill:none;stroke:white;stroke-width:3"/>
<circle cx="821.2031602594344" cy="97.9780125785619" r="0.5" style="fill:none;stroke:white;stroke-width:3"/>
<circle cx="826.8403792732058" cy="96.52021533697844" r="0.5" style="fill:none;stroke:white;stroke-width:3"/>
<circle cx="836.4316665999542" cy="99.86457338891923" r="0.5" style="fill:none;stroke:white;stroke-width:3"/>
<circle cx="834.8553826103222" cy="101.87976295128465" r="0.5" style="fill:none;stroke:white;stroke-width:3"/>
<circle cx="833.3058152984798" cy="110.64797651097179" r="0.5" style="fill:none;stroke:white;stroke-width:3"/>
<circle cx="840.7998434186827" cy="116.60778466500341" r="0.5" style="fill:none;stroke:white;stroke-width:3"/>
<circle cx="854.8928909531112" cy="114.31390209943056" r="0.5" style="fill:none;stroke:white;stroke-width:3"/>
<circle cx="865.87344552496" cy="109.31881016939879" r="0.5" style="fill:none;stroke:white;stroke-width:3"/>
<circle cx="871.3370061330937" cy="100.52915722802281" r="0.5" style="fill:none;stroke:white;stroke-width:3"/>
<circle cx="882.3309190438371" cy="94.86947408393026" r="0.5" style="fill:none;stroke:white;stroke-width:3"/>
<circle cx="895.9297080391435" cy="95.98426041528582" r="0.5" style="fill:none;stroke:white;stroke-width:3"/>
<circle cx="910.5303724515892" cy="94.84803588353097" r="0.5" style="fill:none;stroke:white;stroke-width:3"/>
<circle cx="922.1254106126163" cy="95.53405825607479" r="0.5" style="fill:none;stroke:white;stroke-width:3"/>
<circle cx="933.1460402011511" cy="96.00569861233234" r="0.5" style="fill:none;stroke:white;stroke-width:3"/>
<circle cx="943.859427995095" cy="93.43311458230018" r="0.5" style="fill:none;stroke:white;stroke-width:3"/>
<circle cx="954.9201326003152" cy="92.57558642216027" r="0.5" style="fill:none;stroke:white;stroke-width:3"/>
<circle cx="966.114420594487" cy="93.025788712129" r="0.5" style="fill:none;stroke:white;stroke-width:3"/>
<circle cx="979.4193261340984" cy="94.16201345957815" r="0.5" style="fill:none;stroke:white;stroke-width:3"/>
<circle cx="993.3520736017845" cy="94.56933927610517" r="0.5" style="fill:none;stroke:white;stroke-width:3"/>
<circle cx="991.3349644286104" cy="95.16960887722671" r="0.5" style="fill:none;stroke:white;stroke-width:3"/>
<circle cx="997.1191251702286" cy="90.30313643328846" r="0.5" style="fill:none;stroke:white;stroke-width:3"/>
<circle cx="1006.2562289745405" cy="85.02933536656201" r="0.5" style="fill:none;stroke:white;stroke-width:3"/>
<circle cx="1011.7598645993603" cy="85.17940291911363" r="0.5" style="fill:none;stroke:white;stroke-width:3"/>
<circle cx="1012.6548733053381" cy="81.5777811013162" r="0.5" style="fill:none;stroke:white;stroke-width:3"/>
<circle cx="1014.5918324451405" cy="70.6657164271921" r="0.5" style="fill:none;stroke:white;stroke-width:3"/>
<circle cx="1013.7101820780584" cy="69.89393928945064" r="0.5" style="fill:none;stroke:white;stroke-width:3"/>
<circle cx="1009.6626053928148" cy="65.22039866410195" r="0.5" style="fill:none;stroke:white;stroke-width:3"/>
<circle cx="996.5447165977357" cy="57.609811670333144" r="0.5" style="fill:none;stroke:white;stroke-width:3"/>
<circle cx="991.0677976507062" cy="58.51021945104003" r="0.5" style="fill:none;stroke:white;stroke-width:3"/>
<circle cx="986.3389456818084" cy="57.781317917257546" r="0.5" style="fill:none;stroke:white;stroke-width:3"/>
<circle cx="986.47252907076" cy="51.7142824664712" r="0.5" style="fill:none;stroke:white;stroke-width:3"/>
<circle cx="981.8906188297094" cy="50.2779166303575" r="0.5" style="fill:none;stroke:white;stroke-width:3"/>
<circle cx="991.2280977174491" cy="49.48469958677888" r="0.5" style="fill:none;stroke:white;stroke-width:3"/>
<circle cx="990.6670474838514" cy="48.92730378359556" r="0.5" style="fill:none;stroke:white;stroke-width:3"/>
<circle cx="989.157555188694" cy="48.99161868877709" r="0.5" style="fill:none;stroke:white;stroke-width:3"/>
<circle cx="985.2302035535074" cy="48.45566116310656" r="0.5" style="fill:none;stroke:white;stroke-width:3"/>
<circle cx="984.0279530529398" cy="54.15824772790074" r="0.5" style="fill:none;stroke:white;stroke-width:3"/>
<circle cx="986.3389456818084" cy="53.53653732687235" r="0.5" style="fill:none;stroke:white;stroke-width:3"/>
<circle cx="986.5526791041315" cy="53.12920979820192" r="0.5" style="fill:none;stroke:white;stroke-width:3"/>
<circle cx="986.272153987332" cy="52.67900566644966" r="0.5" style="fill:none;stroke:white;stroke-width:3"/>
<circle cx="991.6422062231997" cy="51.67140588015318" r="0.5" style="fill:none;stroke:white;stroke-width:3"/>
<circle cx="991.7624312732572" cy="36.0" r="0.5" style="fill:none;stroke:white;stroke-width:3"/>
<circle cx="1001.5407353445378" cy="46.95497993454337" r="0.5" style="fill:none;stroke:white;stroke-width:3"/>
<circle cx="1001.7544687668609" cy="47.38374602012336" r="0.5" style="fill:none;stroke:white;stroke-width:3"/>
<circle cx="1001.5540936834329" cy="50.38510811626911" r="0.5" style="fill:none;stroke:white;stroke-width:3"/>
<circle cx="1000.6590849774551" cy="51.62852929159999" r="0.5" style="fill:none;stroke:white;stroke-width:3"/>
<circle cx="999.6037762047348" cy="58.917546757310625" r="0.5" style="fill:none;stroke:white;stroke-width:3"/>
<circle cx="997.4130086259232" cy="60.37534960024058" r="0.5" style="fill:none;stroke:white;stroke-width:3"/>
<circle cx="993.6192403796881" cy="71.80194377191364" r="0.5" style="fill:none;stroke:white;stroke-width:3"/>
<circle cx="992.0563147289507" cy="56.02337870746851" r="0.5" style="fill:none;stroke:white;stroke-width:3"/>
<circle cx="991.9360896788943" cy="58.51021945104003" r="0.5" style="fill:none;stroke:white;stroke-width:3"/>
<circle cx="992.4437065569114" cy="55.723242713883515" r="0.5" style="fill:none;stroke:white;stroke-width:3"/>
<circle cx="992.3101231679593" cy="56.17344669923186" r="0.5" style="fill:none;stroke:white;stroke-width:3"/>
<circle cx="992.6040066236533" cy="56.6236506678164" r="0.5" style="fill:none;stroke:white;stroke-width:3"/>
<circle cx="993.1516985183565" cy="64.51293589510023" r="0.5" style="fill:none;stroke:white;stroke-width:3"/>
<circle cx="989.7186054222924" cy="68.13600225001574" r="0.5" style="fill:none;stroke:white;stroke-width:3"/>
<circle cx="991.174664361868" cy="72.80954148508609" r="0.5" style="fill:none;stroke:white;stroke-width:3"/>
<circle cx="992.0162397122652" cy="70.17263659648597" r="0.5" style="fill:none;stroke:white;stroke-width:3"/>
<circle cx="991.0544393118116" cy="70.68715467900037" r="0.5" style="fill:none;stroke:white;stroke-width:3"/>
<circle cx="989.5315886777596" cy="68.80058824270964" r="0.5" style="fill:none;stroke:white;stroke-width:3"/>
<circle cx="989.3312135943306" cy="70.47277215197683" r="0.5" style="fill:none;stroke:white;stroke-width:3"/>
<circle cx="989.0106134608468" cy="71.137357981503" r="0.5" style="fill:none;stroke:white;stroke-width:3"/>
<circle cx="988.9972551219516" cy="70.94441371634602" r="0.5" style="fill:none;stroke:white;stroke-width:3"/>
<circle cx="990.4132390448417" cy="71.09448147788643" r="0.5" style="fill:none;stroke:white;stroke-width:3"/>
<circle cx="987.300746082262" cy="74.07439805679023" r="0.5" style="fill:none;stroke:white;stroke-width:3"/>
<circle cx="988.6632966495721" cy="73.6885096270591" r="0.5" style="fill:none;stroke:white;stroke-width:3"/>
<circle cx="993.3921486184704" cy="81.70641047246754" r="0.5" style="fill:none;stroke:white;stroke-width:3"/>
<circle cx="993.111623501671" cy="81.02038712650537" r="0.5" style="fill:none;stroke:white;stroke-width:3"/>
<circle cx="988.9037467496855" cy="75.81089578829706" r="0.5" style="fill:none;stroke:white;stroke-width:3"/>
<circle cx="990.680405822746" cy="74.91048959232866" r="0.5" style="fill:none;stroke:white;stroke-width:3"/>
<circle cx="992.0295980511604" cy="79.3910814922303" r="0.5" style="fill:none;stroke:white;stroke-width:3"/>
<circle cx="994.9417159303127" cy="88.18075341582298" r="0.5" style="fill:none;stroke:white;stroke-width:3"/>
<circle cx="1004.2257614624714" cy="95.21248527355492" r="0.5" style="fill:none;stroke:white;stroke-width:3"/>
<circle cx="1013.6033153668972" cy="95.3196762688458" r="0.5" style="fill:none;stroke:white;stroke-width:3"/>
<circle cx="1024.9712617667055" cy="93.69037301391363" r="0.5" style="fill:none;stroke:white;stroke-width:3"/>
<circle cx="1038.2628089674233" cy="91.63230535760522" r="0.5" style="fill:none;stroke:white;stroke-width:3"/>
<circle cx="1050.4723307176293" cy="89.74574295468628" r="0.5" style="fill:none;stroke:white;stroke-width:3"/>
<circle cx="1055.8023079368106" cy="97.67787787020207" r="0.5" style="fill:none;stroke:white;stroke-width:3"/>
<circle cx="1056.1496247480857" cy="112.85610729083419" r="0.5" style="fill:none;stroke:white;stroke-width:3"/>
<circle cx="1057.1915751819108" cy="132.25762333720922" r="0.5" style="fill:none;stroke:white;stroke-width:3"/>
<circle cx="1058.1667339212609" cy="147.92887506522237" r="0.5" style="fill:none;stroke:white;stroke-width:3"/>
<circle cx="1059.0483842883425" cy="161.8421814903617" r="0.5" style="fill:none;stroke:white;stroke-width:3"/>
<circle cx="1060.664743294661" cy="172.02525146529078" r="0.5" style="fill:none;stroke:white;stroke-width:3"/>
<circle cx="1063.510069479337" cy="182.5513189740479" r="0.5" style="fill:none;stroke:white;stroke-width:3"/>
<circle cx="1066.0214371916336" cy="199.1657609436661" r="0.5" style="fill:none;stroke:white;stroke-width:3"/>
<circle cx="1066.502337391861" cy="212.20003890395165" r="0.5" style="fill:none;stroke:white;stroke-width:3"/>
<circle cx="1066.5290540696508" cy="229.05024750754237" r="0.5" style="fill:none;stroke:white;stroke-width:3"/>
<circle cx="1067.3706294200479" cy="242.21311292499303" r="0.5" style="fill:none;stroke:white;stroke-width:3"/>
<circle cx="1067.410704436734" cy="255.59033911675215" r="0.5" style="fill:none;stroke:white;stroke-width:3"/>
<circle cx="1066.3153206473276" cy="266.9095162309706" r="0.5" style="fill:none;stroke:white;stroke-width:3"/>
<circle cx="1064.525303235372" cy="279.0004409506917" r="0.5" style="fill:none;stroke:white;stroke-width:3"/>
<circle cx="1062.7887191789973" cy="288.09006246775385" r="0.5" style="fill:none;stroke:white;stroke-width:3"/>
<circle cx="1061.0120601059364" cy="302.4533622745424" r="0.5" style="fill:none;stroke:white;stroke-width:3"/>
<circle cx="1059.542642827465" cy="315.3374386377632" r="0.5" style="fill:none;stroke:white;stroke-width:3"/>
<circle cx="1057.8995671433565" cy="328.5645010549575" r="0.5" style="fill:none;stroke:white;stroke-width:3"/>
<circle cx="1055.348124414374" cy="345.328758687526" r="0.5" style="fill:none;stroke:white;stroke-width:3"/>
<circle cx="1052.930265074344" cy="358.6844063010067" r="0.5" style="fill:none;stroke:white;stroke-width:3"/>
<circle cx="1057.0713501318544" cy="374.24810748696325" r="0.5" style="fill:none;stroke:white;stroke-width:3"/>
<circle cx="1050.0181471951923" cy="388.7827812876552" r="0.5" style="fill:none;stroke:white;stroke-width:3"/>
<circle cx="1052.0352563683664" cy="401.62386893481016" r="0.5" style="fill:none;stroke:white;stroke-width:3"/>
<circle cx="1047.6804378885336" cy="413.8432522214949" r="0.5" style="fill:none;stroke:white;stroke-width:3"/>
<circle cx="1043.4992778143383" cy="426.70574446097015" r="0.5" style="fill:none;stroke:white;stroke-width:3"/>
<circle cx="1038.1158672395761" cy="438.6035347312689" r="0.5" style="fill:none;stroke:white;stroke-width:3"/>
<circle cx="1031.5302061642456" cy="451.29449507407844" r="0.5" style="fill:none;stroke:white;stroke-width:3"/>
<circle cx="1030.047430546879" cy="463.96400156915183" r="0.5" style="fill:none;stroke:white;stroke-width:3"/>
<circle cx="1025.7460454226275" cy="474.74700347743925" r="0.5" style="fill:none;stroke:white;stroke-width:3"/>
<circle cx="1027.5761378512686" cy="476.7621158391237" r="0.5" style="fill:none;stroke:white;stroke-width:3"/>
<circle cx="1024.022819705147" cy="468.4015405721962" r="0.5" style="fill:none;stroke:white;stroke-width:3"/>
<circle cx="1017.4371586298171" cy="463.64244068898256" r="0.5" style="fill:none;stroke:white;stroke-width:3"/>
<circle cx="1015.6070662011754" cy="463.7496276520192" r="0.5" style="fill:none;stroke:white;stroke-width:3"/>
<circle cx="1017.2501418852844" cy="465.14305801950394" r="0.5" style="fill:none;stroke:white;stroke-width:3"/>
<circle cx="1015.4334077955389" cy="464.8858093556016" r="0.5" style="fill:none;stroke:white;stroke-width:3"/>
<circle cx="1011.5594895159323" cy="460.89845412410796" r="0.5" style="fill:none;stroke:white;stroke-width:3"/>
<circle cx="1009.5290220038632" cy="464.24268765226003" r="0.5" style="fill:none;stroke:white;stroke-width:3"/>
<circle cx="998.6686924820709" cy="458.36884082593025" r="0.5" style="fill:none;stroke:white;stroke-width:3"/>
<circle cx="995.1955243693213" cy="454.87454340979457" r="0.5" style="fill:none;stroke:white;stroke-width:3"/>
<circle cx="991.7624312732572" cy="452.98805103488263" r="0.5" style="fill:none;stroke:white;stroke-width:3"/>
<circle cx="990.4933890782127" cy="453.71692313812673" r="0.5" style="fill:none;stroke:white;stroke-width:3"/>
<circle cx="989.157555188694" cy="455.06748010776937" r="0.5" style="fill:none;stroke:white;stroke-width:3"/>
<circle cx="989.5716636944451" cy="451.6589311949909" r="0.5" style="fill:none;stroke:white;stroke-width:3"/>
<circle cx="984.1081030863113" cy="450.2226240612566" r="0.5" style="fill:none;stroke:white;stroke-width:3"/>
<circle cx="981.0089684626262" cy="450.3941234283149" r="0.5" style="fill:none;stroke:white;stroke-width:3"/>
<circle cx="985.4572953147257" cy="450.95149635896087" r="0.5" style="fill:none;stroke:white;stroke-width:3"/>
<circle cx="986.0183455483234" cy="450.90862151943145" r="0.5" style="fill:none;stroke:white;stroke-width:3"/>
<circle cx="985.3237119257735" cy="450.82287184149027" r="0.5" style="fill:none;stroke:white;stroke-width:3"/>
<circle cx="986.9400709320921" cy="453.8241102028638" r="0.5" style="fill:none;stroke:white;stroke-width:3"/>
<circle cx="992.0830314067416" cy="452.47355305105447" r="0.5" style="fill:none;stroke:white;stroke-width:3"/>
<circle cx="992.1498231012174" cy="452.28061630502344" r="0.5" style="fill:none;stroke:white;stroke-width:3"/>
<circle cx="991.7357145954658" cy="452.2163040552288" r="0.5" style="fill:none;stroke:white;stroke-width:3"/>
<circle cx="991.7223562565712" cy="452.2163040552288" r="0.5" style="fill:none;stroke:white;stroke-width:3"/>
</g>
</svg>
